<svg width="102" height="82" viewBox="0 0 102 82" fill="none" xmlns="http://www.w3.org/2000/svg">
<path d="M1.0329 79.6213C0.860288 79.8532 0.755631 80.1447 0.756098 80.4675C0.753639 81.2145 1.3103 81.8247 1.99844 81.8271C23.5537 81.915 44.8768 74.1769 62.0557 60.0427C79.2345 45.9086 91.8563 25.6958 97.6015 3.14578C97.7842 2.42612 97.3958 1.67608 96.7329 1.47803C96.07 1.27999 95.379 1.70183 95.1964 2.42148C89.5999 24.4051 77.2915 44.1 60.5529 57.8798C43.8094 71.6553 23.0223 79.2014 2.01286 79.1131C1.6181 79.1153 1.26435 79.3104 1.03682 79.6161L1.0329 79.6213Z" fill="black"/>
<path d="M95.5273 1.44864C95.3312 1.71218 95.2273 2.05657 95.2539 2.41964C95.3571 3.70365 95.8033 4.81798 96.2321 5.89097C96.367 6.22707 96.5068 6.56744 96.629 6.90983C96.9524 7.81192 97.1866 8.8014 97.4172 9.75275L99.5013 18.4102C99.6744 19.1369 100.356 19.5689 101.025 19.3808C101.695 19.1926 102.093 18.4529 101.92 17.7262L99.8356 9.06873C99.5889 8.04217 99.3335 6.97326 98.9563 5.92805C98.8215 5.54856 98.6741 5.17535 98.5228 4.80741C98.1586 3.89559 97.8077 3.03041 97.7385 2.18569C97.6786 1.43624 97.0748 0.889323 96.3844 0.954605C96.0324 0.985627 95.7274 1.17981 95.5234 1.45389L95.5273 1.44864Z" fill="black"/>
<path d="M81.3799 7.09089C81.2465 7.2701 81.1519 7.48337 81.1177 7.72338C81.008 8.4635 81.4708 9.1568 82.1486 9.28085C83.6523 9.54558 85.101 9.0651 86.3381 8.59943C90.0572 7.1919 93.6497 5.35099 97.0148 3.13645C97.6024 2.7458 97.7923 1.91932 97.4366 1.27631C97.0809 0.633289 96.3108 0.42833 95.7232 0.818976C92.5038 2.93479 89.0716 4.68978 85.5155 6.03994C84.5225 6.41478 83.4741 6.76712 82.5488 6.60902C82.0881 6.52733 81.6506 6.72722 81.376 7.09617L81.3799 7.09089Z" fill="black"/>
</svg>
