<svg width="107" height="92" viewBox="0 0 107 92" fill="none" xmlns="http://www.w3.org/2000/svg">
<path fill-rule="evenodd" clip-rule="evenodd" d="M99.2145 69.0532L100.363 69.6739C100.969 70.0064 101.727 70.6049 102.009 71.004C102.291 71.3808 102.702 72.068 102.919 72.4892C103.287 73.1986 103.33 73.8637 103.33 87.231L102.767 88.4503C102.442 89.1153 101.814 89.9799 101.359 90.3789C100.883 90.7557 100.081 91.2434 99.5394 91.4429C98.6729 91.7533 95.3152 91.7755 37.2595 91.6646L36.1114 90.9996C35.4615 90.6449 34.7033 90.002 34.4217 89.6252C34.1401 89.2261 33.7502 88.4724 33.5769 87.9626C33.2953 87.1867 33.252 85.7457 33.252 80.2481C33.252 73.9302 33.2953 73.4203 33.7069 72.4892C33.9452 71.935 34.4651 71.1591 34.8333 70.7601C35.2232 70.3389 35.8081 69.8512 36.1764 69.6739C36.5447 69.4744 37.2162 69.2527 37.6928 69.164C38.1694 69.0753 52.2067 69.0088 99.2145 69.0532ZM37.1512 71.6468C36.7613 71.935 36.2197 72.4449 35.9814 72.7774C35.5482 73.376 35.5265 73.7085 35.4615 79.9377C35.4182 86.0783 35.4399 86.4995 35.8515 87.3419C36.0898 87.8517 36.6313 88.4503 37.0862 88.7384L37.9094 89.2261C69.5584 89.3148 78.7434 89.2705 78.7434 89.1818C78.7434 89.071 78.5917 88.6054 78.3968 88.1177C78.1152 87.3419 78.0718 86.2334 78.1368 80.0264C78.2018 73.0213 78.2235 72.7996 78.6784 71.9794L79.1766 71.1591H37.8877L37.1512 71.6468ZM80.823 72.8439L80.2381 73.7085C80.2381 85.9674 80.2814 86.6325 80.6497 87.3419C80.8663 87.763 81.3862 88.3394 81.7761 88.6054C82.5127 89.1153 82.5343 89.1153 90.6361 89.0931C98.3263 89.0931 98.8029 89.071 99.4745 88.6498C99.8644 88.4059 100.363 87.8074 100.601 87.3197C101.012 86.4995 101.034 86.0118 101.034 80.0707C101.034 73.8858 101.013 73.6641 100.558 72.8661C100.276 72.4006 99.7344 71.8464 99.3012 71.6025C98.5863 71.1813 98.1097 71.1591 90.5278 71.1591C82.9242 71.1591 82.491 71.1813 81.9711 71.5803C81.6678 71.8242 81.1479 72.4006 80.823 72.8439Z" fill="#FF2D46"/>
<path fill-rule="evenodd" clip-rule="evenodd" d="M89.6831 74.041C90.1597 74.041 90.9829 74.1962 91.5245 74.3735C92.066 74.573 92.8242 75.0386 93.2358 75.4376C93.6257 75.8366 94.1456 76.546 94.3623 77.0337C94.6222 77.5879 94.7738 78.4303 94.7738 79.2505C94.7738 80.0929 94.6222 80.9131 93.9507 82.3541L95.1204 83.5733C95.7703 84.2383 96.2902 84.9921 96.2902 85.2359C96.2902 85.4798 96.1819 85.8123 96.0303 85.9675C95.8786 86.1005 95.532 86.2335 95.2288 86.2335C94.8388 86.2335 94.2973 85.8788 93.5174 85.0807C92.3693 83.9058 92.3693 83.9058 91.5678 84.1718C91.1345 84.327 90.3763 84.4379 89.8998 84.46C89.4232 84.46 88.6867 84.3492 88.2751 84.2383C87.8635 84.1053 87.1703 83.7728 86.7587 83.4846C86.3471 83.1743 85.7189 82.3984 85.3723 81.7555C84.8524 80.8245 84.7224 80.3146 84.7224 79.2505C84.7441 78.3195 84.8741 77.6544 85.199 77.0337C85.4589 76.546 85.7839 75.9918 85.9355 75.8145C86.1088 75.6371 86.4121 75.3046 86.6504 75.1051C86.8887 74.8834 87.4736 74.573 87.9501 74.3957C88.4267 74.1962 89.2066 74.0632 89.6831 74.041ZM87.3436 78.0091C87.1486 78.386 86.9753 79.0732 86.9753 79.5387C86.9753 79.9821 87.1486 80.6693 87.3652 81.024C87.5819 81.3787 88.1451 81.8664 88.6217 82.1102C89.2066 82.3984 89.7048 82.4871 90.2247 82.3762C90.7229 82.2875 91.2645 81.9329 91.8061 81.3565C92.4776 80.6249 92.6076 80.3146 92.6076 79.5387C92.6076 78.9845 92.4343 78.2973 92.1743 77.8761C91.9361 77.4771 91.3945 76.9894 90.9829 76.812C90.5713 76.6347 90.0514 76.4795 89.8348 76.4795C89.6398 76.4795 89.0766 76.679 88.6 76.9007C88.1018 77.1224 87.5602 77.6101 87.3436 78.0091Z" fill="#FF2D46"/>
<path d="M62.0199 77.6992C61.9983 77.4332 62.1066 77.1228 62.2799 76.9677C62.4532 76.8125 62.7998 76.7016 63.0814 76.7016C63.363 76.7016 63.7096 76.9233 63.8829 77.2115C64.0562 77.4775 64.2945 78.0761 64.4245 78.5416C64.5544 78.985 64.7494 79.4062 64.8794 79.4727C65.0094 79.5392 65.2693 79.251 65.4859 78.8741C65.7026 78.4751 66.0708 78.0761 66.2874 78.0096C66.5257 77.9431 66.9373 77.9652 67.2189 78.0539C67.4789 78.1647 67.8472 78.5859 68.0421 78.985C68.2371 79.4283 68.4537 79.6057 68.562 79.4727C68.6703 79.3396 68.9303 78.7633 69.1469 78.1647C69.3635 77.5662 69.7101 76.9677 69.9051 76.8347C70.165 76.6573 70.4033 76.6573 70.8149 76.879C71.1832 77.0342 71.3782 77.3224 71.3782 77.6549C71.3782 77.9209 70.9016 79.3396 70.3383 80.8027C69.5368 82.8422 69.1686 83.5294 68.7137 83.7954C68.2804 84.0393 68.0421 84.0615 67.7605 83.8841C67.5439 83.7511 67.1973 83.3299 67.0023 82.953C66.7857 82.554 66.5474 82.2437 66.4607 82.2215C66.3524 82.2215 66.1358 82.5319 65.9625 82.9309C65.7892 83.3299 65.4859 83.7511 65.3126 83.8619C65.1393 83.9728 64.7494 84.0171 64.4461 83.9506C64.1212 83.8841 63.7963 83.5738 63.6446 83.1969C63.493 82.8644 63.0814 81.5786 62.7131 80.3594C62.3665 79.1401 62.0416 77.9431 62.0199 77.6992Z" fill="#FF2D46"/>
<path d="M51.8818 80.4702C50.842 77.6549 50.7987 77.4554 51.1453 77.1007C51.3403 76.879 51.7085 76.7016 51.9685 76.7016C52.2284 76.6795 52.5317 76.8125 52.6617 76.9677C52.7917 77.1228 52.9866 77.4997 53.0733 77.81C53.1816 78.1204 53.3982 78.7189 53.8748 79.916L54.2864 79.0958C54.503 78.6303 54.8713 78.1647 55.0662 78.0539C55.2829 77.9209 55.6944 77.8987 55.9761 77.9874C56.2793 78.0761 56.6693 78.4973 56.8859 78.985C57.1242 79.4283 57.3408 79.8052 57.4058 79.8052C57.4708 79.8052 57.6874 79.251 57.8824 78.5638C58.099 77.8766 58.4456 77.1672 58.6622 76.9677C58.9655 76.6573 59.1821 76.6351 59.637 76.8125C59.962 76.9455 60.2436 77.2337 60.2869 77.4775C60.3302 77.7214 59.897 79.118 59.3338 80.5811C58.7922 82.0442 58.164 83.4186 57.969 83.6403C57.7741 83.8619 57.4275 84.0393 57.1892 84.0393C56.9509 84.0393 56.6043 83.8619 56.4093 83.6403C56.2143 83.4186 55.9111 82.9309 55.3695 81.9111L54.9363 82.9752C54.633 83.6403 54.3514 84.0171 54.0914 84.0171C53.8965 84.0171 53.5499 83.9063 53.3549 83.7511C53.1383 83.5959 52.4884 82.1107 51.8818 80.4702Z" fill="#FF2D46"/>
<path d="M39.7291 77.6105C39.7291 77.4997 39.8808 77.2337 40.0974 77.0342C40.2924 76.8347 40.7039 76.7016 41.0289 76.746C41.5055 76.7903 41.6788 77.0342 42.1337 78.2091C42.4369 78.9628 42.7186 79.5835 42.7835 79.6057C42.8485 79.6057 43.0218 79.3396 43.1735 79.0293C43.3035 78.7189 43.6501 78.3199 43.9317 78.1426C44.2999 77.8766 44.5382 77.8544 44.9498 78.0317C45.2531 78.1647 45.6647 78.6303 46.2929 79.916L46.8778 78.4086C47.2244 77.4775 47.5926 76.8568 47.8309 76.7903C48.0476 76.7238 48.4158 76.7238 48.6541 76.7903C48.8707 76.8568 49.1307 77.145 49.1957 77.4332C49.2607 77.7435 48.9357 78.8963 48.2858 80.5811C47.7226 82.0442 47.0944 83.4186 46.9211 83.6403C46.7261 83.8619 46.4012 84.0393 46.2062 84.0171C45.9896 84.0171 45.6213 83.9284 45.3831 83.7954C45.1448 83.6624 44.8632 83.2191 44.7332 82.7979C44.6032 82.3767 44.4299 82.022 44.2999 82.022C44.17 82.022 43.9533 82.4432 43.8234 82.9309C43.6717 83.4407 43.3901 83.9063 43.2168 83.9728C43.0435 84.0171 42.6752 83.9506 42.4153 83.8176C42.047 83.6403 41.6138 82.7979 40.8339 80.6919C40.2274 79.118 39.7508 77.7214 39.7291 77.6105Z" fill="#FF2D46"/>
<path fill-rule="evenodd" clip-rule="evenodd" d="M18.1966 0.0221681L95.4237 0L96.7884 0.620706C97.6766 1.0419 98.4564 1.61827 99.1063 2.34982C99.7129 3.03703 100.233 3.92375 100.471 4.67747C100.796 5.6972 100.839 6.7391 100.839 18.1778H101.662C102.096 18.1778 102.854 18.2887 103.331 18.4217C103.85 18.5769 104.544 19.0202 105.064 19.5966C105.605 20.1508 106.06 20.8823 106.212 21.503C106.428 22.2568 106.472 25.449 106.363 47.7722L105.778 48.8363C105.388 49.5013 104.825 50.0777 104.262 50.4102C103.742 50.7206 102.724 51.0309 100.623 51.3191V54.6443C100.623 57.8809 100.623 58.0139 99.9945 59.2996C99.6479 60.0312 98.998 60.9622 98.5214 61.3834C98.0665 61.8046 97.265 62.3588 96.7234 62.6027C95.7486 63.0682 95.532 63.0682 43.975 63.2012L43.2818 63.9549C42.8919 64.3761 42.1554 64.9525 40.7257 65.7284L22.9623 65.7949C7.79853 65.8392 5.04738 65.7949 4.2242 65.5067C3.68264 65.3294 2.77281 64.753 2.18792 64.2431C1.60303 63.7111 0.866503 62.8022 0 61.0731V42.8953C0 24.9613 0 24.6953 0.454914 23.7199C0.693203 23.1657 1.23477 22.3454 1.64636 21.8799C2.05795 21.3922 2.92445 20.7493 3.57433 20.439C4.72244 19.8626 4.91741 19.8404 13.1059 19.7296L13.1708 12.2368C13.2142 4.96565 13.2358 4.74397 13.7124 3.81291C13.9724 3.30305 14.5356 2.52716 14.9472 2.10597C15.3588 1.68477 16.2686 1.0419 16.9618 0.665043L18.1966 0.0221681ZM16.8318 3.45822C16.3986 3.81291 15.8787 4.52229 15.662 5.00999C15.3154 5.78587 15.2721 6.65043 15.2721 12.8132V19.7518L40.509 19.8626C42.177 20.7493 43.0869 21.503 43.5851 22.1016C44.105 22.7001 44.6682 23.6312 44.8415 24.1854C45.1232 25.0278 45.1665 27.8653 45.1665 43.0726V60.9844L95.0987 60.8736C96.5068 60.0977 97.1567 59.5435 97.4383 59.1445C97.7199 58.7454 98.0665 58.0804 98.1965 57.6592C98.3481 57.2158 98.4564 55.5976 98.4564 54.0458V51.2305L56.0844 51.1196C54.763 50.3659 54.1564 49.9225 53.8965 49.6343C53.6149 49.3462 53.2683 48.7476 53.0733 48.2821C52.7917 47.5727 52.7267 45.7328 52.7267 34.7152C52.7267 23.6755 52.7917 21.8356 53.0733 21.1262C53.2683 20.6607 53.6799 20.0178 54.0048 19.6631C54.3081 19.3084 54.9796 18.8429 55.4345 18.599C56.2794 18.2222 57.3409 18.2 77.4871 18.2H98.673L98.5647 5.36468C97.5249 3.87942 96.8101 3.1922 96.2685 2.90402L95.3154 2.34982C28.6163 2.26115 19.0631 2.32765 18.4565 2.52716C18.0016 2.66017 17.2867 3.08136 16.8318 3.45822ZM55.2396 21.7469C54.958 22.3011 54.9146 24.2076 54.9146 34.6044C54.9146 42.208 54.9796 46.9963 55.1313 47.351C55.2396 47.6392 55.5645 48.1048 55.8245 48.3486C56.301 48.792 56.5393 48.792 79.5667 48.792H102.811C103.829 47.7722 104.067 47.2402 104.175 46.5752C104.262 46.021 104.284 40.2794 104.262 33.8285C104.197 22.4784 104.175 22.0572 103.764 21.4587C103.525 21.104 103.027 20.7272 102.681 20.6163C102.269 20.4833 93.539 20.3946 79.5017 20.4168C60.222 20.4168 56.8643 20.4611 56.2577 20.7493C55.8678 20.9267 55.4129 21.37 55.2396 21.7469ZM3.68264 22.9218C3.31437 23.21 2.8378 23.8307 2.59951 24.2962C2.16626 25.1386 2.1446 25.6706 2.10127 35.868C2.05795 43.6268 2.12293 46.553 2.29623 46.5087C2.42621 46.4865 3.98591 44.1145 5.78391 41.2548C7.56024 38.373 9.18493 35.8458 9.3799 35.6241C9.57486 35.3803 10.2247 34.9591 10.8313 34.6709C11.5028 34.3384 12.3043 34.161 12.9975 34.161C13.6691 34.161 14.4706 34.3384 15.1638 34.6709C15.7487 34.9591 16.4852 35.4689 16.7885 35.8458C17.0701 36.2005 18.6948 38.7055 20.3628 41.41C23.3739 46.3091 23.3956 46.3313 23.7638 45.8436C23.9805 45.5776 24.4571 44.9569 24.847 44.4692C25.2369 44.0037 25.9518 43.4273 26.4283 43.2056C26.9049 42.9839 27.7931 42.8066 28.4213 42.8066C29.0495 42.8066 29.916 42.9396 30.3709 43.1391C30.8258 43.3386 31.4974 43.8041 31.909 44.2032C32.2989 44.58 34.8768 48.0604 37.6496 51.9398C40.4007 55.7971 42.7403 58.9228 42.8269 58.8563C42.9136 58.8119 43.0002 51.2748 43.0002 42.1415C43.0002 27.5993 42.9569 25.4046 42.6536 24.6731C42.4587 24.2076 42.1121 23.609 41.8304 23.3208C41.5705 23.0326 41.0723 22.6336 40.7257 22.4341C40.1191 22.1016 38.4294 22.0572 23.0706 22.0351C12.7159 22.0129 5.71892 22.0794 5.19902 22.2124C4.72244 22.3233 4.02924 22.6558 3.68264 22.9218ZM6.58542 44.8017L2.03628 52.4497C2.03628 57.6814 2.16626 59.7208 2.29623 60.3637C2.44787 61.0066 2.81614 61.8268 3.11941 62.1815C3.42269 62.5362 4.07257 63.0017 4.54914 63.2234C5.26401 63.5559 6.0222 63.6224 9.35823 63.6224L13.3225 63.6446C20.0812 52.2059 22.0308 48.792 22.0308 48.6811C22.0308 48.5481 20.4711 45.9545 18.5432 42.9174C16.3119 39.3927 14.7955 37.1759 14.3406 36.8655C13.9507 36.5773 13.3441 36.3557 12.9975 36.3557C12.6293 36.3557 12.0661 36.533 11.7411 36.7547C11.3295 37.0207 9.57486 39.7474 6.58542 44.8017ZM26.6883 45.8214C26.515 46.0431 24.1105 50.0555 21.3593 54.7108C18.6082 59.3661 16.3552 63.2899 16.3552 63.4229C16.3552 63.5559 20.3412 63.6446 27.8797 63.6446C36.0249 63.6446 39.6425 63.5559 40.1841 63.3786C40.5957 63.2456 41.1589 62.913 41.4188 62.6692C41.7005 62.4032 41.9171 62.115 41.9171 62.0263C41.9171 61.9376 39.3826 58.3021 36.3065 53.935C33.2087 49.5678 30.5009 45.8214 30.2843 45.6219C30.0677 45.4002 29.4394 45.1786 28.9195 45.1121C28.378 45.0677 27.7281 45.1121 27.4682 45.2007C27.2082 45.3116 26.8616 45.5776 26.6883 45.8214Z" fill="#FF2D46"/>
<path fill-rule="evenodd" clip-rule="evenodd" d="M27.6198 28.4417C28.1613 28.4639 29.0928 28.7521 29.6777 29.0624C30.3493 29.4171 30.9991 29.9713 31.4107 30.5698C31.909 31.3014 32.0823 31.8112 32.1256 32.7645C32.1906 33.8064 32.0823 34.2497 31.584 35.2473C31.1291 36.1784 30.7175 36.6217 29.8943 37.1316C29.2661 37.5084 28.3996 37.8188 27.8364 37.8853C27.2948 37.9296 26.4717 37.841 25.9951 37.6858C25.5185 37.5306 24.8036 37.1316 24.4137 36.8212C24.0021 36.5109 23.5039 35.8458 23.2656 35.3581C23.0273 34.8039 22.854 33.9837 22.854 33.1857C22.854 32.3655 23.0056 31.6339 23.2656 31.0797C23.5039 30.6363 23.9588 29.9935 24.3054 29.6388C24.6303 29.3063 25.3019 28.8851 25.7785 28.7077C26.255 28.5304 27.0782 28.3974 27.6198 28.4417ZM25.4752 31.7669C25.1069 32.3211 25.0203 32.6758 25.1069 33.4739C25.1719 34.1167 25.4102 34.6488 25.7135 34.9813C25.9951 35.2473 26.4933 35.5355 26.8616 35.602C27.2298 35.6907 27.8581 35.6242 28.2696 35.5133C28.6812 35.3803 29.2011 35.0256 29.4178 34.7153C29.6127 34.3827 29.786 33.762 29.786 33.2965C29.8077 32.7645 29.6344 32.2546 29.3095 31.8334C29.0278 31.4787 28.4863 31.0575 28.118 30.8802C27.7281 30.725 27.3815 30.592 27.3598 30.6142C27.3165 30.6142 26.9916 30.725 26.6233 30.8359C26.255 30.9689 25.7351 31.3679 25.4752 31.7669Z" fill="#FF2D46"/>
<path fill-rule="evenodd" clip-rule="evenodd" d="M85.4156 40.3463C87.7768 40.3463 88.1018 40.3906 88.4917 40.7897C88.8599 41.1665 88.9249 41.5212 88.9249 43.5607C88.9249 45.3784 88.8599 45.9548 88.5783 46.2208C88.3184 46.4869 87.6252 46.5534 85.3289 46.5534C83.0327 46.5534 82.3612 46.4869 82.1012 46.2208C81.8629 45.977 81.7763 45.2898 81.7546 43.472C81.7113 41.1443 81.733 41.0113 82.2312 40.6788C82.6428 40.4128 83.3577 40.3463 85.3939 40.3463H85.4156ZM83.9642 44.3365L86.672 44.2257L86.7803 42.7848H83.9642V44.3365ZM62.4533 38.7945C63.9263 38.7945 65.3127 38.8832 65.551 39.0162C65.9626 39.2157 65.9843 39.4596 65.9843 42.6296C65.9843 44.9794 65.9193 46.0878 65.7243 46.2652C65.551 46.4647 64.5979 46.5534 62.5183 46.5534C60.4386 46.5534 59.5072 46.4869 59.3122 46.2873C59.1172 46.0878 59.0306 45.0238 59.0089 42.6296C58.9873 39.5039 59.0089 39.2379 59.3988 39.0384C59.6155 38.9054 61.0019 38.7945 62.4533 38.7945ZM61.2185 44.3365H63.818V41.0113H61.2185V44.3365ZM74.1511 35.9127C76.9022 35.9127 77.0538 35.9348 77.3571 36.4225C77.6171 36.8216 77.6821 37.7526 77.6821 41.233C77.6821 44.7134 77.6171 45.6445 77.3571 46.0657C77.0538 46.5312 76.9022 46.5534 74.216 46.5534C72.678 46.5534 71.2049 46.4647 70.9667 46.3317C70.5551 46.11 70.5334 45.8661 70.4901 41.233C70.4684 36.6442 70.4901 36.356 70.88 36.1565C71.0966 36.0235 72.5914 35.9127 74.1511 35.9127ZM72.6997 44.3365H75.2992V38.1295H72.6997V44.3365ZM96.5935 33.4742C98.7814 33.4742 99.7562 33.5407 99.9512 33.7402C100.146 33.9619 100.211 35.4693 100.211 39.9473C100.211 45.0681 100.168 45.9326 99.8645 46.2208C99.6046 46.4869 98.9114 46.5534 96.6152 46.5534C93.8423 46.5534 93.6907 46.5312 93.3874 46.0435C93.1275 45.6445 93.0625 44.5582 93.0408 39.9473C93.0192 36.1787 93.1058 34.1836 93.2575 33.8954C93.4957 33.5185 93.7774 33.4742 96.5935 33.4742ZM95.4454 44.3365H98.0449V35.691H95.4454V44.3365ZM96.3552 22.6118C96.7018 22.6118 97.2867 22.7448 97.6549 22.9C98.0449 23.0552 98.6081 23.5429 98.9114 23.9641C99.323 24.5404 99.4529 25.006 99.4529 25.937C99.4529 26.7351 99.3013 27.4666 99.0197 28.0208C98.7814 28.4864 98.3265 29.0184 97.9799 29.1736C97.6549 29.3509 96.9401 29.4839 96.3552 29.4839C95.7053 29.4839 95.0988 29.3287 94.6872 29.0406C94.3406 28.7967 93.864 28.4864 93.669 28.3312C93.3658 28.0873 93.2141 28.1317 92.7375 28.5972C92.4343 28.9076 91.7627 29.9938 91.2645 31.0135C90.7663 32.0333 89.9647 33.3412 89.4665 33.8954C88.9899 34.4496 88.4484 35.3585 88.2534 35.9127C88.0584 36.4669 87.6035 37.1763 87.2353 37.5088C86.6937 38.0186 86.3471 38.1295 85.4806 38.1295C84.874 38.1295 84.0942 37.9743 83.7476 37.797C83.401 37.6196 82.9027 37.1984 82.6644 36.8437C82.4262 36.5112 82.1662 35.9792 82.1229 35.6245C82.0579 35.292 81.8413 34.9816 81.6246 34.9373C81.4297 34.8708 80.6282 34.2501 79.8483 33.5407C79.0685 32.8313 78.1153 32.0111 77.7037 31.7007C77.0538 31.213 76.9455 31.1909 76.7289 31.5012C76.5989 31.6786 76.2523 32.0111 75.9491 32.2106C75.6458 32.4101 75.0609 32.6761 74.6493 32.8091C74.1077 32.9643 73.6095 32.9421 72.9163 32.7648C72.3531 32.6096 71.6599 32.1884 71.2266 31.7672C70.5334 31.0357 70.5334 31.0357 69.8185 31.3904C69.4503 31.5899 68.7354 32.0333 68.2588 32.3436C67.7823 32.6761 67.0457 33.0973 66.6341 33.2747C66.0493 33.5407 65.7893 33.8732 65.486 34.6491C65.1394 35.6023 65.0311 35.7132 63.9696 36.0457C63.3631 36.2452 62.5399 36.356 62.1933 36.3117C61.8467 36.2452 61.1752 36.0013 60.7203 35.7797C60.157 35.4915 59.7454 35.0703 59.4638 34.4717C59.2472 33.984 59.0522 33.3633 59.0522 33.0752C59.0522 32.8091 59.1822 32.2549 59.3339 31.8559C59.5072 31.4791 59.9187 30.9027 60.2653 30.5923C60.6119 30.282 61.2618 29.9495 61.6951 29.8608C62.15 29.7721 62.9082 29.7943 63.3848 29.9273C63.8613 30.0603 64.5545 30.3928 64.9011 30.7032C65.2477 31.0135 65.6593 31.2574 65.811 31.2574C65.9626 31.2574 66.5692 30.8805 67.1757 30.4372C67.7606 29.9938 68.6921 29.4174 69.2337 29.1736C69.7752 28.9076 70.6634 28.2425 71.1833 27.6661C71.8981 26.9124 72.3747 26.6021 73.0246 26.4912C73.5012 26.4026 74.1944 26.4026 74.541 26.4691C74.8876 26.5356 75.4941 26.7794 75.8407 27.0011C76.1873 27.2228 76.6423 27.7105 76.8156 28.1095C76.9889 28.4864 77.4221 28.9297 77.7904 29.0849C78.137 29.2401 79.2634 30.149 80.2816 31.1022C81.2997 32.0554 82.2529 32.8091 82.3828 32.8091C82.5345 32.8091 82.7294 32.654 82.8161 32.4544C82.9244 32.2549 83.3793 31.8781 83.8559 31.6342C84.4408 31.346 85.004 31.2352 85.5889 31.3017C86.0655 31.346 86.7803 31.6121 87.1486 31.8781C87.5385 32.1441 87.9068 32.3658 87.9718 32.3658C88.0368 32.3658 88.535 31.4347 89.0982 30.3041C89.7698 28.9519 90.5063 27.8657 91.2645 27.0898C91.8927 26.4691 92.5859 25.8927 92.7809 25.8262C92.9975 25.7819 93.2358 25.4493 93.3224 25.1168C93.3874 24.7843 93.6474 24.2079 93.9073 23.8532C94.1456 23.5207 94.6655 23.0995 95.0554 22.9222C95.4454 22.767 96.0303 22.634 96.3552 22.6118ZM95.402 26.0035C95.4237 26.2696 95.5537 26.6464 95.7053 26.8459C95.857 27.0454 96.1602 27.2671 96.3552 27.3558C96.6151 27.4445 96.9617 27.2893 97.33 26.9568C97.9149 26.4247 97.9149 26.3804 97.6116 25.7819C97.395 25.405 97.0701 25.139 96.7451 25.1168C96.4418 25.0725 96.0086 25.1611 95.792 25.2942C95.5537 25.4272 95.3804 25.7153 95.402 26.0035ZM72.6563 29.4396C72.678 29.7721 72.808 30.1711 72.9596 30.3263C73.1113 30.4815 73.4795 30.5923 73.7828 30.5923C74.0861 30.6145 74.4977 30.4372 74.6926 30.2155C74.9092 29.9938 75.0825 29.6391 75.0825 29.4174C75.0825 29.2179 74.8876 28.8411 74.6493 28.5972C74.411 28.3534 74.0861 28.1538 73.9344 28.1538C73.8045 28.1538 73.4362 28.309 73.1546 28.4864C72.808 28.7302 72.6563 29.0406 72.6563 29.4396ZM61.2185 32.8091C61.2185 32.92 61.4568 33.2747 61.7601 33.585C62.0633 33.8954 62.3666 34.1392 62.4533 34.1392C62.5616 34.1614 62.8865 33.9619 63.2115 33.6959C63.5581 33.452 63.818 33.0752 63.818 32.8535C63.818 32.654 63.6664 32.2549 63.4931 31.9668C63.3198 31.7007 62.9732 31.4791 62.7349 31.4791C62.4749 31.4791 62.0417 31.7229 61.7601 32.0333C61.4784 32.3214 61.2402 32.6761 61.2185 32.8091ZM84.3975 35.2255C84.6357 35.6245 84.939 35.824 85.4373 35.8462C85.9788 35.8905 86.1954 35.8018 86.4554 35.3585C86.6937 34.9594 86.7154 34.6934 86.5637 34.3609C86.4337 34.1171 86.1521 33.8289 85.9138 33.6959C85.6755 33.5629 85.3289 33.4742 85.1556 33.4742C84.9823 33.4742 84.6574 33.7402 84.4624 34.0506C84.1158 34.5826 84.0942 34.6934 84.3975 35.2255Z" fill="#FF2D46"/>
<path fill-rule="evenodd" clip-rule="evenodd" d="M69.9267 4.87695C90.2462 4.87695 91.7843 4.89912 92.5424 5.27598C92.9757 5.47549 93.5606 6.00753 93.8422 6.42872C94.2105 7.00509 94.3404 7.51496 94.3404 8.42385C94.3404 9.24407 94.2105 9.86478 93.9072 10.3746C93.6689 10.7515 93.149 11.2835 92.7591 11.5274C92.0875 11.9707 91.6759 11.9707 48.0908 11.9929L47.3543 11.483C46.9427 11.1949 46.4012 10.685 46.1629 10.3525C45.8163 9.88694 45.708 9.39925 45.708 8.46819C45.708 7.49279 45.8379 7.04943 46.2495 6.47306C46.5311 6.05186 47.0727 5.51983 47.441 5.29815C48.0692 4.89912 48.8707 4.87695 69.9051 4.87695H69.9267ZM48.2208 7.44845C47.9609 7.78097 47.7442 8.09133 47.7659 8.18C47.7659 8.2465 47.9609 8.57903 48.2208 8.91155L48.6541 9.53225C90.2895 9.55442 91.4593 9.53225 91.8059 9.1554C92.0225 8.93372 92.1958 8.51252 92.1958 8.20217C92.1958 7.89181 92.0442 7.47062 91.8276 7.27111C91.4593 6.91642 90.0079 6.87208 70.0567 6.87208H48.6757L48.2208 7.44845ZM39.0359 4.74395C39.6208 4.81045 40.3573 5.0543 40.6606 5.27598C40.9422 5.49766 41.4188 6.0297 41.6787 6.45089C42.047 6.98292 42.177 7.51496 42.177 8.31301C42.177 9.08889 42.047 9.64309 41.6787 10.1973C41.3971 10.6185 40.8339 11.1949 40.4223 11.4609C39.9674 11.7934 39.3608 11.9707 38.8193 11.9707C38.3427 11.9707 37.5195 11.7491 36.9996 11.4609C36.4147 11.1727 35.8948 10.6628 35.6349 10.1973C35.3966 9.73177 35.2449 8.97805 35.2449 8.31301C35.2449 7.64797 35.3966 6.89425 35.6349 6.42872C35.8948 5.96319 36.4364 5.43116 36.9996 5.1208C37.7578 4.69961 38.1477 4.63311 39.0359 4.74395ZM37.5845 8.20217C37.6062 8.51252 37.7578 8.97805 37.9528 9.24407C38.1261 9.53225 38.4943 9.75393 38.7543 9.75393C39.0359 9.75393 39.4691 9.59876 39.7291 9.42141C40.0612 9.19973 40.2273 8.86721 40.2273 8.42385C40.2273 8.04699 40.0324 7.55929 39.7941 7.31544C39.5558 7.0716 39.1225 6.87208 38.8409 6.87208C38.5593 6.87208 38.1477 7.04943 37.9311 7.27111C37.7145 7.49279 37.5628 7.91398 37.5845 8.20217ZM30.1542 4.72178C30.7391 4.78828 31.4756 5.03213 31.7789 5.25381C32.0605 5.49766 32.5371 6.0297 32.7971 6.45089C33.1653 6.98292 33.2953 7.51496 33.2953 8.31301C33.2736 9.06672 33.122 9.7096 32.7321 10.3525C32.4505 10.8845 31.9089 11.4387 31.5623 11.6382C31.194 11.8156 30.5008 11.9707 29.9809 11.9707C29.4394 11.9707 28.6812 11.7712 28.1179 11.4609C27.5547 11.1727 26.9915 10.6407 26.7532 10.1973C26.4283 9.59876 26.3416 9.08889 26.4066 8.09133C26.4499 7.22677 26.6232 6.51739 26.9048 6.11837C27.1215 5.76368 27.7064 5.29815 28.1829 5.0543C28.8328 4.74395 29.3527 4.65527 30.1542 4.72178ZM28.7028 8.26867C28.7245 8.60119 28.9411 9.06672 29.1794 9.31057C29.4827 9.62093 29.7643 9.7096 30.1975 9.62093C30.5225 9.55442 30.9341 9.37708 31.0857 9.2219C31.2374 9.08889 31.3457 8.68987 31.3457 8.35735C31.3457 8.02482 31.1507 7.55929 30.9124 7.31544C30.6741 7.0716 30.2409 6.87208 29.9593 6.87208C29.6776 6.87208 29.2661 7.04943 29.0494 7.27111C28.8328 7.49279 28.6812 7.93615 28.7028 8.26867ZM21.1643 4.65527C21.5758 4.65527 22.3124 4.85479 22.7889 5.09864C23.2655 5.32032 23.8937 5.89669 24.197 6.34005C24.6086 6.98292 24.7386 7.44845 24.7386 8.42385C24.7386 9.46575 24.6303 9.79827 24.0887 10.5298C23.7204 10.9953 23.0922 11.5274 22.6806 11.7047C22.2474 11.8599 21.4675 11.9707 20.926 11.9264C20.2761 11.8821 19.6695 11.6382 19.1496 11.2392C18.6947 10.9067 18.1965 10.3303 18.0232 9.97562C17.8282 9.59876 17.6982 8.84504 17.6982 8.31301C17.6982 7.75881 17.8282 7.02726 18.0015 6.69474C18.1532 6.36222 18.5214 5.87452 18.803 5.6085C19.0846 5.34248 19.5612 5.00996 19.8645 4.89912C20.1461 4.76611 20.731 4.67744 21.1643 4.65527ZM20.0378 8.26867C20.0595 8.60119 20.2761 9.06672 20.5144 9.31057C20.8177 9.62093 21.1209 9.7096 21.5325 9.62093C21.8575 9.55442 22.3124 9.2884 22.529 9.02239C22.724 8.75637 22.8973 8.44602 22.8973 8.35735C22.8973 8.26867 22.6373 7.89181 22.3557 7.53713C22.0308 7.1381 21.5975 6.87208 21.2942 6.87208C21.0126 6.87208 20.601 7.04943 20.3844 7.27111C20.1678 7.49279 20.0161 7.93615 20.0378 8.26867Z" fill="#FF2D46"/>
<path fill-rule="evenodd" clip-rule="evenodd" d="M14.0807 68.6549C14.319 68.7214 14.6439 68.9209 14.7956 69.1426C14.9472 69.3421 15.0555 69.6525 15.0555 69.8298C15.0555 70.0072 15.2505 70.3619 15.4888 70.6057C15.8787 71.0047 15.9653 71.0047 16.247 70.7165C16.4203 70.5392 16.6802 69.985 16.8318 69.4973C17.1135 68.6549 17.1568 68.6106 17.98 68.6549C18.4565 68.6771 19.388 68.8988 20.0379 69.1426C20.6878 69.3865 21.6193 69.9407 22.9623 71.1156L22.5941 71.9136C22.3775 72.357 22.2042 72.9112 22.2042 73.155C22.2042 73.3989 22.3558 73.6427 22.5291 73.7092C22.7024 73.7757 23.179 73.6649 23.5689 73.4654C23.9372 73.288 24.5004 73.155 24.8037 73.1994C25.2369 73.2437 25.5185 73.5984 26.1684 74.9285C26.6233 75.8374 27.0566 77.0123 27.1432 77.5C27.2515 78.1872 27.2082 78.5197 26.9699 78.7857C26.7966 78.9852 26.3634 79.2069 25.9951 79.2513C25.6268 79.3178 25.1936 79.5173 25.0203 79.7168C24.782 79.9828 24.7603 80.1601 24.9336 80.4262C25.0636 80.6478 25.6052 80.9582 27.0782 81.4902L27.0566 82.5986C27.0349 83.3967 26.8183 84.1061 26.1901 85.3475C25.4752 86.7441 25.2586 87.0101 24.7603 87.0766C24.4137 87.0988 23.8722 86.9658 23.5039 86.7884C22.984 86.5224 22.789 86.5002 22.5291 86.7441C22.3341 86.8771 22.1825 87.1874 22.2042 87.4091C22.2042 87.6086 22.3775 88.052 22.5724 88.3623C22.8974 88.8279 22.919 89.0052 22.6807 89.4707C22.5508 89.7589 22.0092 90.2466 21.4893 90.5348C20.9911 90.8452 19.9729 91.3107 19.2147 91.5989C18.1533 91.9979 17.785 92.0644 17.4817 91.8649C17.2868 91.7319 17.0485 91.4659 16.9835 91.3107C16.8968 91.1334 16.7452 90.69 16.6369 90.3353C16.5069 89.8254 16.3336 89.6703 15.922 89.6703C15.4888 89.6703 15.3371 89.8476 15.0988 90.557C14.9472 91.0447 14.6872 91.5767 14.5573 91.7319C14.4056 91.8871 14.0157 92.0201 13.6474 91.9979C13.2792 91.9979 12.1744 91.5767 11.1779 91.0447C10.1598 90.5348 9.24994 89.9363 9.11996 89.7368C8.94666 89.4707 8.98999 89.1604 9.29326 88.5175C9.50989 88.052 9.63986 87.4978 9.55321 87.2983C9.46656 87.0323 9.20661 86.8993 8.77336 86.8993C8.42676 86.8993 8.08016 87.0101 8.01517 87.1209C7.95018 87.2539 7.60358 87.3426 7.25698 87.3426C6.73708 87.3426 6.49879 87.1653 6.02221 86.4116C5.69727 85.8795 5.26402 84.9928 5.0474 84.4164C4.83077 83.8179 4.65747 83.0198 4.65747 82.643C4.65747 82.2439 4.76578 81.7784 4.91742 81.6454C5.06906 81.4902 5.37234 81.3572 5.63229 81.3572C5.87058 81.3794 6.30383 81.202 6.58544 80.9804C6.93204 80.7144 7.06202 80.4483 6.97537 80.2045C6.88872 79.9828 6.45546 79.6946 6.00055 79.5616C5.5673 79.4064 5.06906 79.1848 4.89576 79.0517C4.67913 78.8744 4.63581 78.5197 4.74412 77.766C4.80911 77.1675 5.26402 75.9039 5.7406 74.9285C6.39048 73.5984 6.71542 73.155 7.04035 73.155C7.27864 73.155 7.79854 73.3102 8.18847 73.5097C8.55673 73.7092 9.05497 73.8201 9.2716 73.7314C9.48823 73.6649 9.63986 73.3767 9.63986 73.0442C9.63986 72.7338 9.48823 72.2461 9.31493 71.9358C9.14162 71.6254 9.03331 71.1821 9.0983 70.9382C9.16329 70.6944 9.66153 70.2288 10.2464 69.8963C10.8096 69.5638 11.8061 69.1204 12.456 68.9209C13.1059 68.6992 13.8424 68.5884 14.0807 68.6549ZM11.9144 72.7117C12.0227 73.3989 11.9578 73.9531 11.7195 74.5516C11.5245 74.995 11.0479 75.5714 10.6797 75.8152C10.2897 76.0591 9.70485 76.2586 9.37991 76.2586C9.03331 76.2586 8.53507 76.1699 8.2318 76.0369C7.75522 75.8374 7.64691 75.8817 7.38696 76.4359C7.10534 77.0123 7.127 77.0566 7.95018 77.8103C8.70837 78.4754 8.83835 78.7414 8.925 79.6946C9.01165 80.4705 8.94666 81.0247 8.68671 81.5346C8.49175 81.9114 7.99351 82.4435 7.58192 82.6873C6.82373 83.1307 6.82373 83.1307 7.14867 83.8622C7.32197 84.2391 7.58192 84.5273 7.73356 84.4829C7.88519 84.4386 8.44842 84.3943 8.98999 84.3721C9.63986 84.3721 10.1814 84.5199 10.6147 84.8154C10.9613 85.0815 11.3945 85.6135 11.5678 86.0347C11.7845 86.5446 11.8278 87.1431 11.7411 87.8525C11.6112 88.8057 11.6328 88.9165 12.1311 89.1826C12.6293 89.4264 12.7376 89.3821 13.4741 88.5397C13.9724 88.0077 14.6439 87.52 15.1638 87.3426C15.9003 87.1209 16.182 87.1431 16.9618 87.4313C17.59 87.6751 18.0016 88.0298 18.3049 88.5619C18.5432 88.983 18.7815 89.3377 18.8465 89.3377C18.9114 89.3377 19.1931 89.2047 19.4963 89.0717C19.9946 88.8057 20.0379 88.6949 19.9079 87.8968C19.8429 87.4091 19.8863 86.6332 20.0162 86.1899C20.1679 85.6578 20.5145 85.1701 20.9477 84.8598C21.4243 84.5494 21.9659 84.3721 22.5291 84.3943C23.0057 84.4164 23.5906 84.4608 23.8072 84.5051C24.1105 84.5494 24.3054 84.3721 24.5221 83.8622C24.8037 83.1528 24.782 83.1307 24.1538 82.7982C23.7855 82.6208 23.309 82.1331 23.0707 81.7563C22.8324 81.3572 22.6374 80.6478 22.6374 80.2045C22.6374 79.739 22.789 79.0517 22.9623 78.6971C23.1357 78.3424 23.6339 77.8325 24.0455 77.5886C24.782 77.1675 24.8037 77.1231 24.5004 76.5468C24.2188 75.9482 24.1321 75.926 22.7674 75.9925C21.446 76.0369 21.2727 75.9925 20.6228 75.394C19.9729 74.7733 19.9296 74.6625 19.9296 73.1772C19.9296 71.7363 19.8863 71.6033 19.388 71.3816C19.0847 71.2486 18.8465 71.1821 18.8465 71.2042C18.8248 71.2486 18.5648 71.6476 18.2399 72.1131C17.8283 72.6895 17.3951 72.9999 16.7235 73.1994C16.0303 73.3767 15.6187 73.3767 14.9905 73.1994C14.4056 72.9999 14.059 72.6895 13.6908 72.0466C13.4092 71.5589 13.0842 71.1599 12.9759 71.1821C12.8676 71.1821 12.5643 71.3151 12.2827 71.4481C11.8278 71.6919 11.7845 71.8249 11.9144 72.7117Z" fill="#FF2D46"/>
<path fill-rule="evenodd" clip-rule="evenodd" d="M16.2468 75.4376C16.8534 75.4819 17.7415 75.7701 18.2614 76.0583C18.7813 76.3465 19.4529 76.9894 19.7778 77.4549C20.2544 78.1643 20.3844 78.6298 20.4277 79.8934C20.4927 81.2235 20.4277 81.6225 19.9728 82.4649C19.6912 83.0191 19.0413 83.7728 18.543 84.1275C17.6982 84.726 17.4599 84.7925 15.9219 84.7925C14.3838 84.7925 14.1455 84.726 13.3007 84.1275C12.7808 83.7506 12.1526 83.0191 11.8493 82.4649C11.481 81.7112 11.3511 81.1348 11.3511 80.1372C11.3511 79.2062 11.5027 78.519 11.8493 77.8317C12.1309 77.2997 12.6292 76.6568 12.9974 76.3908C13.3657 76.147 13.9939 75.8144 14.4055 75.6593C14.8171 75.5041 15.6403 75.3932 16.2468 75.4376ZM13.9506 78.652C13.6906 79.0288 13.5173 79.583 13.539 80.1816C13.539 80.9131 13.6906 81.3121 14.1672 81.8442C14.7304 82.487 14.9254 82.5757 15.9219 82.5757C16.9184 82.5757 17.1133 82.487 17.6765 81.8442C18.1531 81.29 18.3048 80.9131 18.3048 80.1816C18.3048 79.6495 18.1531 79.0288 17.9365 78.7185C17.7199 78.4081 17.2216 78.0313 16.8317 77.8761C16.4634 77.7209 16.0735 77.5879 15.9652 77.6101C15.8786 77.6101 15.4886 77.7209 15.0987 77.8317C14.7088 77.9426 14.1889 78.3194 13.9506 78.652Z" fill="#FF2D46"/>
</svg>
