<svg width="1921" height="1253" viewBox="0 0 1921 1253" fill="none" xmlns="http://www.w3.org/2000/svg">
<g clip-path="url(#clip0_1_269)">
<rect width="1939" height="1253" transform="translate(-9)" fill="#E96F6F"/>
<g filter="url(#filter0_f_1_269)">
<path fill-rule="evenodd" clip-rule="evenodd" d="M871.8 529.153C936.812 547.306 956.444 630.248 1009.49 671.99C1055.21 707.969 1143.38 699.045 1158.93 755.108C1175.32 814.217 1084.11 854.816 1077.08 915.751C1069.7 979.795 1146.68 1042.25 1119.1 1100.52C1093.13 1155.36 1016.38 1170.05 955.73 1172.08C900.682 1173.92 860.066 1120.44 805.802 1111C740.543 1099.65 656.823 1160.06 611.111 1112.12C566.274 1065.1 612.723 985.429 625.273 921.681C634.141 876.641 666.985 841.09 673.42 795.639C683.786 722.42 629.735 637.603 673.893 578.286C715.32 522.636 804.979 510.496 871.8 529.153Z" fill="#FFBCE4"/>
</g>
<g filter="url(#filter1_f_1_269)">
<path fill-rule="evenodd" clip-rule="evenodd" d="M1388.83 563.648C1448.9 546.201 1514.31 571.908 1568.34 603.443C1623.76 635.791 1670.79 683.489 1695.56 742.686C1719.94 800.946 1728.38 869.774 1704.19 928.111C1681.49 982.858 1618.67 1005.07 1571.74 1041.27C1534.75 1069.8 1497.78 1093.71 1457.92 1118.08C1402.56 1151.93 1349.86 1241.78 1292.08 1212.25C1228.65 1179.83 1278.7 1070.57 1243.66 1008.56C1219.2 965.279 1148.29 965.378 1127.13 920.394C1104.47 872.217 1100.99 809.457 1128.56 763.909C1155.91 718.723 1223.93 723.524 1265.79 691.315C1313.6 654.528 1330.9 580.473 1388.83 563.648Z" fill="white"/>
</g>
<g filter="url(#filter2_f_1_269)">
<path fill-rule="evenodd" clip-rule="evenodd" d="M338.16 465.039C425.982 466.663 505.145 517.931 561.127 585.617C612.19 647.355 618.005 728.581 622.301 808.584C626.962 895.384 640.019 988.414 586.432 1056.86C528.015 1131.47 432.553 1179.83 338.16 1171.49C248.64 1163.59 192.277 1081.53 130.182 1016.56C70.3008 953.913 -4.11178 895.125 -8.71934 808.584C-13.4836 719.1 43.1212 640.273 106.791 577.215C170.098 514.516 249.074 463.391 338.16 465.039Z" fill="#FF4747"/>
</g>
<g filter="url(#filter3_f_1_269)">
<path fill-rule="evenodd" clip-rule="evenodd" d="M419.461 7.49935C507.089 0.0783191 607.45 -15.8495 670.369 45.5903C733.57 107.305 722.39 208.438 715.418 296.498C709.149 375.677 689.698 454.409 633.555 510.591C577.393 566.793 498.878 590.264 419.461 592.664C337.167 595.151 253.652 578.529 192.026 523.934C126.845 466.19 82.0399 383.521 85.1526 296.498C88.183 211.775 143.598 140.213 207.734 84.7701C266.819 33.6932 341.638 14.0901 419.461 7.49935Z" fill="white"/>
</g>
<g filter="url(#filter4_f_1_269)">
<path fill-rule="evenodd" clip-rule="evenodd" d="M944.169 70.7593C999.705 77.5039 1054.47 89.933 1100.5 121.72C1145.59 152.854 1175.74 199.047 1200.64 247.853C1226.5 298.511 1251.59 351.826 1246.85 408.501C1241.99 466.788 1218.77 526.426 1174.22 564.318C1131.54 600.607 1070.83 608.397 1014.87 605.782C968.392 603.61 935.106 560.478 889.545 551.014C837.611 540.226 774.045 581.785 733.681 547.371C694.694 514.132 709.604 449.768 710.717 398.547C711.679 354.255 732.704 315.342 739.672 271.591C749.962 206.985 714.689 126.371 761.365 80.5325C805.802 36.8916 882.34 63.2503 944.169 70.7593Z" fill="white"/>
</g>
<g filter="url(#filter5_f_1_269)">
<path fill-rule="evenodd" clip-rule="evenodd" d="M1355.55 119.078C1385.53 136.687 1397.46 174.647 1425.42 195.312C1445.68 210.287 1472.75 211.146 1495.3 222.375C1522.07 235.704 1552.69 244.933 1571.61 268.096C1590.74 291.531 1604.4 322.708 1601.85 352.857C1599.26 383.57 1556.97 402.369 1557.66 433.185C1558.71 480.524 1615.97 518.844 1606.59 565.256C1598.97 602.938 1544.91 609.819 1516.67 635.903C1482.94 667.064 1468.5 731.242 1422.73 735.077C1374.4 739.127 1349.89 668.142 1303.57 653.76C1263.76 641.401 1218.37 675.263 1179.73 659.628C1141.96 644.34 1099.11 611.155 1097.66 570.429C1095.74 516.54 1165.54 481.639 1171.5 428.046C1174.82 398.239 1137.43 379.567 1121.73 354.013C1094.55 309.775 1042.98 272.466 1044.02 220.555C1044.86 177.966 1090.67 147.563 1126.29 124.199C1160.96 101.458 1203.05 89.9721 1244.51 89.0461C1283.17 88.1825 1322.2 99.4916 1355.55 119.078Z" fill="#FFBCE4"/>
</g>
</g>
<defs>
<filter id="filter0_f_1_269" x="92" y="21" width="1568.9" height="1651.12" filterUnits="userSpaceOnUse" color-interpolation-filters="sRGB">
<feFlood flood-opacity="0" result="BackgroundImageFix"/>
<feBlend mode="normal" in="SourceGraphic" in2="BackgroundImageFix" result="shape"/>
<feGaussianBlur stdDeviation="250" result="effect1_foregroundBlur_1_269"/>
</filter>
<filter id="filter1_f_1_269" x="609" y="58" width="1609.64" height="1660.12" filterUnits="userSpaceOnUse" color-interpolation-filters="sRGB">
<feFlood flood-opacity="0" result="BackgroundImageFix"/>
<feBlend mode="normal" in="SourceGraphic" in2="BackgroundImageFix" result="shape"/>
<feGaussianBlur stdDeviation="250" result="effect1_foregroundBlur_1_269"/>
</filter>
<filter id="filter2_f_1_269" x="-509" y="-35" width="1636.14" height="1707.43" filterUnits="userSpaceOnUse" color-interpolation-filters="sRGB">
<feFlood flood-opacity="0" result="BackgroundImageFix"/>
<feBlend mode="normal" in="SourceGraphic" in2="BackgroundImageFix" result="shape"/>
<feGaussianBlur stdDeviation="250" result="effect1_foregroundBlur_1_269"/>
</filter>
<filter id="filter3_f_1_269" x="-415" y="-500" width="1635.92" height="1592.9" filterUnits="userSpaceOnUse" color-interpolation-filters="sRGB">
<feFlood flood-opacity="0" result="BackgroundImageFix"/>
<feBlend mode="normal" in="SourceGraphic" in2="BackgroundImageFix" result="shape"/>
<feGaussianBlur stdDeviation="250" result="effect1_foregroundBlur_1_269"/>
</filter>
<filter id="filter4_f_1_269" x="207" y="-444" width="1540.43" height="1550.24" filterUnits="userSpaceOnUse" color-interpolation-filters="sRGB">
<feFlood flood-opacity="0" result="BackgroundImageFix"/>
<feBlend mode="normal" in="SourceGraphic" in2="BackgroundImageFix" result="shape"/>
<feGaussianBlur stdDeviation="250" result="effect1_foregroundBlur_1_269"/>
</filter>
<filter id="filter5_f_1_269" x="544" y="-411" width="1563.63" height="1646.24" filterUnits="userSpaceOnUse" color-interpolation-filters="sRGB">
<feFlood flood-opacity="0" result="BackgroundImageFix"/>
<feBlend mode="normal" in="SourceGraphic" in2="BackgroundImageFix" result="shape"/>
<feGaussianBlur stdDeviation="250" result="effect1_foregroundBlur_1_269"/>
</filter>
<clipPath id="clip0_1_269">
<rect width="1939" height="1253" fill="white" transform="translate(-9)"/>
</clipPath>
</defs>
</svg>
