<svg width="102" height="103" viewBox="0 0 102 103" fill="none" xmlns="http://www.w3.org/2000/svg">
<path d="M66.5908 87.5721C66.5685 87.1931 66.7022 86.881 66.9918 86.7472C67.2146 86.6134 67.5933 86.502 67.7938 86.502C68.0612 86.502 69.3979 88.0849 71.5366 90.9608C73.3635 93.4132 74.8784 95.5758 74.8784 95.7541C74.8784 95.9325 74.7002 96.2446 74.4774 96.4452C74.2769 96.6459 73.8536 96.7574 73.5417 96.7128C73.1184 96.6682 72.2495 95.6649 69.7989 92.41C67.6824 89.6009 66.613 87.9734 66.5908 87.5721Z" fill="#FF2D46"/>
<path d="M29.1181 91.5182C30.6776 89.4225 32.1926 87.4606 32.5045 87.1262V87.1039C32.8164 86.7695 33.262 86.502 33.4847 86.502C33.7075 86.502 34.0417 86.658 34.2199 86.8364C34.3982 87.0147 34.5541 87.3714 34.5541 87.6167C34.5541 87.8619 33.0837 90.0245 31.2569 92.41C28.5166 96.0662 27.8928 96.7797 27.425 96.7797C27.1131 96.7574 26.7343 96.6459 26.5784 96.4898C26.4224 96.3338 26.311 95.9994 26.311 95.7541C26.311 95.5089 27.5586 93.6139 29.1181 91.5182Z" fill="#FF2D46"/>
<path d="M77.7747 78.0298C77.6187 77.6954 77.641 77.4279 77.8861 77.0266C78.0866 76.7145 78.3985 76.4692 78.6213 76.4692C78.8218 76.4692 80.8491 77.4056 83.1215 78.5649C85.394 79.7242 87.399 80.8389 87.5773 81.0396C87.8446 81.3294 87.8669 81.5524 87.6887 81.9982C87.5327 82.4218 87.2654 82.6225 86.8421 82.6671C86.441 82.6894 84.8815 82.0205 82.119 80.5937C79.7129 79.3675 77.9083 78.2974 77.7747 78.0298Z" fill="#FF2D46"/>
<path d="M13.6345 81.1965C13.7682 80.8398 15.0381 80.1041 18.0234 78.6103C20.3181 77.451 22.3678 76.4924 22.5905 76.4924C22.7911 76.4701 23.1252 76.6261 23.3035 76.8045C23.4817 76.9828 23.6376 77.295 23.6376 77.4733C23.6376 77.6517 23.5708 77.9638 23.4817 78.1867C23.3703 78.3874 21.4098 79.5021 19.0705 80.6391C16.7313 81.7984 14.6594 82.7125 14.4143 82.6679C14.1915 82.6233 13.8796 82.4004 13.7237 82.1551C13.5232 81.8653 13.5009 81.5532 13.6345 81.1965Z" fill="#FF2D46"/>
<path d="M88.6689 66.9274C88.6466 66.7713 88.758 66.4369 88.8917 66.1917C89.0699 65.9093 89.3966 65.7681 89.8719 65.7681C90.2729 65.7904 91.6988 66.0356 93.0355 66.3254C94.3945 66.6375 95.553 66.9943 95.6421 67.1503C95.7312 67.3064 95.8203 67.6408 95.8203 67.886C95.8203 68.1313 95.7089 68.4657 95.553 68.6217C95.397 68.7555 95.0406 68.8893 94.7287 68.8893C94.3945 68.8893 93.1023 68.6886 91.8102 68.4211C90.518 68.1536 89.2927 67.7969 89.0699 67.5739C88.8471 67.3733 88.6689 67.0834 88.6689 66.9274Z" fill="#FF2D46"/>
<path d="M5.48059 67.2401C5.70338 66.9502 6.54997 66.6604 8.08719 66.3037C9.35707 66.0362 10.6715 65.7909 11.0502 65.7909C11.429 65.7686 11.8523 65.8801 12.0082 66.0362C12.1642 66.1922 12.2756 66.5935 12.2756 66.9502C12.2756 67.3069 12.1196 67.6414 11.8746 67.7528C11.674 67.8643 10.4487 68.1541 9.15657 68.4217C7.86441 68.6892 6.6168 68.8898 6.37174 68.8898C6.12667 68.8898 5.74794 68.7115 5.52515 68.4885C5.30237 68.2879 5.12414 68.0204 5.14642 67.8866C5.14642 67.7751 5.28009 67.463 5.48059 67.2401Z" fill="#FF2D46"/>
<path fill-rule="evenodd" clip-rule="evenodd" d="M12.9216 16.498C12.9884 16.498 14.8598 17.1446 17.0654 17.9472C19.271 18.7721 21.2984 19.5747 21.5657 19.753C21.8553 19.9314 22.0781 20.2435 22.0781 20.4664C22.0781 20.6671 21.8776 21.4028 21.6325 22.0716C21.3875 22.7405 21.2092 23.3201 21.2315 23.3201C21.2761 23.3424 22.4568 23.766 23.8604 24.2788C25.2639 24.7916 26.5784 25.3712 26.7566 25.5273C26.9348 25.7056 29.0513 26.2407 31.4351 26.7312C35.6458 27.5561 35.8017 27.5783 36.3364 27.1993C36.6483 26.9764 37.8514 26.3299 39.0098 25.7502C40.1683 25.1483 42.1734 24.3011 43.4656 23.8552C44.7577 23.387 46.6069 22.8296 47.5871 22.629C48.9461 22.3169 49.9264 22.2723 51.7087 22.3615C53.2013 22.4506 55.0504 22.7405 56.8327 23.1864C58.37 23.5654 61.0657 24.3457 66.0784 25.9286L69.9771 26.0177C73.6308 26.1069 73.8982 26.0846 74.3214 25.661C74.5665 25.4158 75.9255 24.7916 77.3291 24.2788C78.7326 23.766 79.9134 23.3424 79.9579 23.3201C79.9802 23.3201 79.802 22.7628 79.5569 22.1162C79.3119 21.492 79.1114 20.7786 79.1114 20.5556C79.0891 20.355 79.2673 20.0206 79.4901 19.8199C79.7129 19.6193 81.7625 18.7944 84.0572 17.9918C87.6886 16.6987 88.3124 16.5426 88.7134 16.7656C89.0699 16.9885 90.5848 20.89 95.1742 33.5532C98.4715 42.6271 101.189 50.2071 101.189 50.3855C101.189 50.5638 101.056 50.8314 100.9 50.9874C100.744 51.1435 98.8279 51.9238 96.6446 52.7264C94.4836 53.529 92.3894 54.1755 92.0329 54.1755C91.476 54.1755 91.2977 54.0418 90.9636 53.2838C90.7631 52.7933 90.5403 52.392 90.4734 52.392C90.4066 52.392 89.2704 52.7933 87.9114 53.2615C85.9286 53.9749 85.3494 54.287 84.9038 54.889C84.5919 55.2903 83.8344 56.182 83.2106 56.8509C82.5645 57.5197 81.6957 58.2777 81.2501 58.5229C80.8045 58.7682 80.4703 59.0357 80.4926 59.1026C80.5372 59.1918 81.005 59.6377 81.562 60.0835C82.119 60.5517 82.7428 61.1314 82.9433 61.3989C83.1438 61.6664 83.478 62.313 83.6562 62.8703C83.8567 63.4277 84.0126 64.4309 84.0126 65.0998C84.0126 65.9024 83.8344 66.705 83.5002 67.4407C83.2106 68.0649 82.6314 68.8452 82.2081 69.2019C81.7848 69.5586 81.0941 70.0045 80.6709 70.2275C80.2476 70.4504 79.3341 70.7402 78.6658 70.874C77.9974 71.0078 77.084 71.0524 76.6607 70.9855C76.2374 70.8963 75.6136 70.6957 75.2571 70.5396C74.6556 70.2275 74.6556 70.2275 74.5442 71.1193C74.4774 71.6097 74.2323 72.4123 73.9873 72.9028C73.7422 73.3933 73.2075 74.0398 72.8065 74.3296C72.4278 74.6195 71.6926 74.9762 71.2024 75.1322C70.7123 75.2883 69.7321 75.3775 67.7493 75.2437V76.247C67.7715 76.9158 67.5487 77.6515 67.1255 78.4764C66.6799 79.3459 66.212 79.8809 65.4991 80.3268C64.9644 80.6612 64.0287 80.9957 63.4049 81.0625C62.7366 81.1517 61.8009 81.0848 61.0657 80.9065C60.3973 80.7504 59.5062 80.3937 59.1052 80.1039C58.615 79.7472 58.37 79.6803 58.3031 79.8809C58.2586 80.0147 58.1472 80.5498 58.0803 81.0403C58.0135 81.5307 57.6793 82.3333 57.3229 82.8238C56.9887 83.3143 56.2981 83.9385 55.8302 84.2061C55.3401 84.4959 54.4266 84.7857 53.8251 84.8526C53.1568 84.9418 52.2211 84.8749 51.4859 84.6965C50.7061 84.5182 49.7704 84.05 48.9238 83.4035C48.1886 82.8684 46.9188 81.932 46.0722 81.3301C44.7577 80.3937 44.5349 80.3045 44.1785 80.5721C43.978 80.7281 43.4433 81.0403 43.02 81.2632C42.5299 81.5084 41.7724 81.6422 40.9481 81.6199C40.2575 81.6199 39.344 81.4416 38.943 81.2409C38.5643 81.0403 37.9405 80.6167 37.6063 80.2822C37.2498 79.9701 36.782 79.3236 36.5369 78.8554C36.3141 78.4095 36.1136 77.7853 36.1136 77.4732C36.1136 77.161 36.0468 76.9158 35.9354 76.9158C35.8463 76.9158 35.3784 77.0719 34.8883 77.2502C34.3982 77.4286 33.5516 77.5623 32.9946 77.5623C32.4377 77.5846 31.5911 77.4509 31.1009 77.3171C30.5663 77.1387 29.7642 76.6037 29.0959 75.9125C28.4052 75.2437 27.8705 74.4411 27.6923 73.9061C27.5586 73.4156 27.425 72.6799 27.425 72.2786C27.425 71.6543 27.3581 71.5651 26.8012 71.5651C26.467 71.5651 25.665 71.4091 25.0189 71.2307C24.2169 71.0078 23.5485 70.6065 22.9024 69.9377C22.2563 69.3134 21.8108 68.6 21.5434 67.7751C21.2984 67.084 21.1647 66.1476 21.2092 65.6348C21.2984 64.6985 21.2984 64.6985 20.4518 64.5647C20.0062 64.4978 19.2264 64.2303 18.7363 63.9851C18.2462 63.7398 17.6001 63.2048 17.3105 62.8035C17.0209 62.4244 16.6644 61.6887 16.5085 61.1983C16.3525 60.6855 16.2857 59.8606 16.3525 59.3032C16.4193 58.7459 16.7981 57.8318 17.8452 56.182L16.6644 55.1119C15.751 54.2647 15.0158 53.8634 13.0998 53.1723C11.7854 52.6818 10.6937 52.3251 10.6492 52.392C10.6269 52.4589 10.4264 52.8602 10.2482 53.2838C10.0477 53.7074 9.71347 54.1309 9.46841 54.1978C9.22334 54.287 7.35194 53.7074 4.81218 52.7933C2.47293 51.9461 0.445572 51.1212 0.289622 50.9874C0.133672 50.8314 0 50.5638 0 50.3855C0 50.2071 2.67343 42.6716 5.94839 33.6647C9.80259 23.0303 12.0304 17.1446 12.3201 16.8771C12.5651 16.6764 12.8325 16.498 12.9216 16.498V16.498ZM7.97574 34.6234C5.03497 42.6716 2.62888 49.36 2.65115 49.4491C2.67343 49.5383 3.96559 50.0734 5.5251 50.6307C7.10688 51.2104 8.39904 51.6563 8.42132 51.634C8.44359 51.634 10.9165 44.7896 13.9464 36.4515C16.954 28.1134 19.4047 21.269 19.3601 21.2467C19.3156 21.2245 18.0902 20.7563 16.6198 20.1989C15.1495 19.6416 13.8796 19.1734 13.7905 19.1734C13.7236 19.1734 13.59 19.3517 13.5008 19.5524C13.4117 19.7753 10.9388 26.5528 7.97574 34.6234ZM81.7402 21.3805C81.7625 21.4474 84.124 28.0019 87.0203 35.9387C89.8942 43.8978 92.3894 50.6753 92.5231 51.032L92.8127 51.6786C97.1348 50.118 98.4046 49.6275 98.4269 49.5829C98.4715 49.5383 96.0654 42.6716 93.08 34.3335C90.117 25.9954 87.5772 19.1734 87.4658 19.1957C87.3322 19.1957 85.9954 19.6638 84.4582 20.2212C82.9433 20.7786 81.7179 21.3136 81.7402 21.3805ZM44.1339 26.0177C42.9754 26.4413 40.859 27.4 39.4554 28.1134C38.0519 28.8268 36.5815 29.7409 36.2027 30.1422C35.7126 30.655 35.267 31.6359 34.6878 33.3303C34.2199 34.6903 33.4625 36.5853 32.9946 37.5662C32.5268 38.5695 31.5911 39.974 30.8782 40.7989C29.7642 42.0697 29.6083 42.3372 29.7419 42.9169C29.8311 43.2959 30.0093 43.7195 30.1652 43.8532C30.3212 44.0093 30.9227 44.2322 31.5465 44.3437C32.2372 44.4775 33.2174 44.4775 34.1086 44.366C34.9106 44.2545 36.0022 44.0093 36.5592 43.8087C37.1162 43.608 37.9628 43.229 38.4529 42.9392C38.943 42.6493 39.745 41.9805 40.2129 41.4454C40.703 40.9104 41.2154 40.1747 41.3714 39.7957C41.5051 39.439 41.7724 39.0154 41.9283 38.8816C42.1066 38.7255 42.8863 38.3688 43.6884 38.0567C44.4904 37.7446 45.582 37.2318 46.139 36.9197C46.696 36.6299 47.4757 36.0056 47.8545 35.582C48.2555 35.1361 48.7902 34.7794 49.0352 34.7794C49.2803 34.7794 52.934 37.4993 57.1669 40.7989L64.853 46.8184C67.5265 46.6177 69.0637 46.3948 69.9771 46.2164C70.8905 46.0381 72.0936 45.6814 72.6506 45.4361C73.2075 45.1909 74.0318 44.6558 74.4774 44.2322C74.9452 43.8087 75.5022 43.4742 75.7027 43.4742C75.9255 43.4519 76.282 43.6303 76.4825 43.8532C76.7053 44.0762 76.8835 44.4552 76.8835 44.7004C76.8835 44.9457 76.3711 45.6145 75.7027 46.2164C75.0789 46.8184 74.0318 47.5318 73.4303 47.8216C72.8065 48.1338 71.7149 48.5128 70.9797 48.7134C70.2445 48.8918 69.3088 49.0478 68.9077 49.0478C68.529 49.0478 68.1948 49.137 68.1948 49.2708C68.1948 49.4045 70.3781 51.2104 73.0293 53.3283C75.7027 55.424 78.042 57.1853 78.2202 57.2522C78.3984 57.2967 78.9777 57.1184 79.4901 56.8732C80.0248 56.6056 80.8936 55.9591 81.4506 55.4017C82.0076 54.8444 82.6982 54.0195 83.0101 53.5736L83.5671 52.7264L74.767 28.5816C67.2146 28.3587 66.212 28.2472 64.6303 27.8013C63.5832 27.5115 61.333 26.8426 59.6176 26.3299C57.9021 25.8171 55.4737 25.2151 54.2039 24.9699C52.9563 24.7247 51.3522 24.524 50.6393 24.5463C49.9486 24.5463 48.6565 24.7024 47.8099 24.903C46.941 25.0814 45.2924 25.5719 44.1339 26.0177ZM15.8847 37.7446C11.5403 49.7835 11.4512 50.0511 11.9191 50.2963C12.1641 50.4301 13.0553 50.7868 13.8796 51.0766C14.8598 51.4333 15.4614 51.5448 15.5728 51.3887C15.6841 51.255 17.6892 45.8597 20.0285 39.3498C22.3677 32.8621 24.3282 27.4 24.3505 27.2216C24.3951 27.021 23.749 26.6643 22.39 26.1738L20.3404 25.4604L15.8847 37.7446ZM76.7944 27.2216C76.8167 27.3777 78.7994 32.9736 81.2055 39.6173L85.5722 51.7009C88.4238 50.653 89.3595 50.274 89.4932 50.1848C89.6491 50.0957 88.5352 46.7292 86.1959 40.3307C84.2577 35.0024 82.2749 29.518 81.7848 28.1357C81.0941 26.2184 80.8045 25.6387 80.4926 25.6387C80.2921 25.6387 79.3564 25.9286 78.443 26.2853C77.4405 26.6643 76.7721 27.0433 76.7944 27.2216ZM21.8999 40.7989C19.5829 47.2643 17.6447 52.6149 17.6447 52.7264C17.6224 52.8379 18.1571 53.4621 18.7809 54.1087C19.8057 55.1119 20.0508 55.2457 20.63 55.1342C20.9865 55.0673 21.6994 55.1119 22.1895 55.268C22.6796 55.4017 23.4594 55.8253 23.9495 56.2266C24.4174 56.6279 24.9966 57.319 25.2194 57.7872C25.4422 58.2554 25.6427 58.9911 25.6427 59.4593V60.2842C27.7146 60.5517 28.6949 60.8193 29.1404 61.0645C29.6083 61.2874 30.2989 61.8225 30.6999 62.2238C31.0787 62.6251 31.5688 63.3385 31.747 63.8067C31.9475 64.2749 32.1035 65.0998 32.1035 65.6348V66.6381C34.3759 66.7496 34.9551 66.9279 35.7794 67.4407C36.4255 67.8197 37.1607 68.5331 37.5172 69.1128C37.8514 69.6478 38.2078 70.5842 38.2969 71.1638C38.386 71.7435 38.4529 72.234 38.4529 72.2117C38.4529 72.2117 38.8539 72.0779 39.344 71.8996C39.8342 71.7212 40.6362 71.5651 41.1263 71.5651C41.6164 71.5651 42.463 71.7658 43.02 72.011C43.577 72.2563 44.2453 72.6799 44.5349 72.9697C44.8246 73.2372 45.2479 73.8169 45.4929 74.2851C45.7157 74.7532 45.9831 75.489 46.0499 75.9571C46.1167 76.4253 46.0722 77.161 45.9385 77.6292C45.6934 78.4541 45.6934 78.4764 46.5177 78.9223C46.9856 79.1898 48.2109 80.037 49.258 80.8173C50.4611 81.7091 51.5082 82.311 52.1542 82.4448C52.8003 82.6009 53.4241 82.6009 53.9365 82.4671C54.3598 82.3556 54.9613 81.9989 55.2732 81.6868C55.652 81.2855 55.8525 80.7727 55.9193 80.0593C55.9861 79.3236 55.8748 78.7439 55.5406 78.0082C55.1396 77.1833 54.4712 76.5814 51.8201 74.5526C49.1689 72.5684 48.5897 72.011 48.5897 71.5428C48.5897 71.253 48.701 70.874 48.857 70.718C48.9907 70.5619 49.3694 70.4504 49.6813 70.4504C50.0823 70.4504 51.9314 71.7435 55.496 74.4634C59.1052 77.2279 60.9988 78.5656 61.6226 78.7216C62.1128 78.8331 62.8034 78.8777 63.1821 78.7885C63.5386 78.6993 64.0733 78.4987 64.3406 78.3203C64.6302 78.1643 65.009 77.6738 65.1872 77.2279C65.3654 76.8043 65.5214 76.1801 65.5214 75.8457C65.4991 75.5112 65.2986 74.7978 65.0758 74.2851C64.6971 73.5048 63.6723 72.5907 59.3725 69.1573C56.4986 66.861 54.0925 64.8099 54.0256 64.587C53.9811 64.3641 54.0256 64.0296 54.137 63.8067C54.2261 63.5838 54.5158 63.3385 54.7385 63.2716C54.9836 63.1825 55.4292 63.2939 55.8302 63.5169C56.1867 63.7398 58.9492 65.9024 61.9568 68.2879C65.7665 71.3422 67.6824 72.7467 68.3062 72.9028C68.7964 73.0366 69.5538 73.1035 69.9771 73.0143C70.4004 72.9474 70.9797 72.7467 71.247 72.5461C71.5366 72.3677 71.9154 71.855 72.1159 71.3868C72.3609 70.8071 72.4278 70.2721 72.3164 69.6478C72.2273 69.1573 72.0045 68.4885 71.804 68.1318C71.5812 67.7974 68.8855 65.3896 65.7887 62.7812C62.692 60.195 60.1077 57.8987 60.0409 57.6758C59.9963 57.4528 60.0409 57.0738 60.1745 56.8286C60.3231 56.5313 60.6201 56.3827 61.0657 56.3827C61.6004 56.3827 63.0262 57.4751 69.0191 62.5136L76.3265 68.6446C78.042 68.6446 78.9554 68.4662 79.4455 68.221C79.9357 67.998 80.5595 67.5745 80.8268 67.2846C81.0941 66.9948 81.406 66.482 81.5397 66.1476C81.6734 65.8132 81.7848 65.2781 81.7848 64.966C81.7848 64.6762 81.6066 63.9851 81.3838 63.4723C81.0719 62.692 80.2698 61.9563 76.6607 59.058C74.2769 57.1407 68.0612 52.2359 62.848 48.1338C57.6348 44.0539 52.4661 39.974 51.3745 39.0822L49.3694 37.477C47.6317 38.6587 46.3395 39.3498 45.3593 39.7734C43.822 40.4422 43.4879 40.7097 42.9532 41.5569C42.619 42.1143 41.9283 42.9838 41.3937 43.4742C40.8813 43.987 39.9456 44.6781 39.344 45.0125C38.7202 45.3693 37.5172 45.8597 36.6706 46.1273C35.5344 46.484 34.5096 46.64 32.9946 46.64C31.4574 46.64 30.6331 46.5509 29.987 46.261C29.4969 46.0604 28.8954 45.726 28.6726 45.503C28.4498 45.3024 28.0711 44.7673 27.8483 44.2991C27.6032 43.8309 27.425 43.1175 27.425 42.6716C27.425 42.248 27.5586 41.5792 27.7369 41.1779C27.8928 40.7766 28.5612 39.8403 29.2073 39.1045C29.8533 38.3688 30.6999 37.1203 31.0564 36.3177C31.4128 35.5374 32.148 33.6424 32.6827 32.1487C33.2174 30.655 33.6407 29.4065 33.5961 29.4065C33.5739 29.4065 32.0366 29.1167 30.2098 28.7377C28.3607 28.3809 26.7789 28.0688 26.6898 28.0688C26.6007 28.0688 26.4447 28.3141 26.3333 28.5816C26.2219 28.8491 24.2391 34.3558 21.8999 40.7989ZM18.6026 59.3478C18.5358 59.7491 18.5804 60.3511 18.714 60.6855C18.8477 61.0199 19.1819 61.4881 19.4492 61.7333C19.7388 61.9786 20.229 62.2238 20.5632 62.2907C20.8973 62.3576 21.5434 62.2684 21.9667 62.0677C22.4123 61.8894 22.8801 61.4435 23.0806 61.0645C23.2589 60.7078 23.4148 60.1504 23.4148 59.8383C23.4148 59.5485 23.3034 59.058 23.1698 58.7905C23.0138 58.5229 22.7019 58.1216 22.4346 57.8987C22.1672 57.6758 21.5657 57.5197 21.031 57.5197C20.3627 57.4974 19.9171 57.6757 19.4269 58.0548C19.0037 58.4115 18.6918 58.9019 18.6026 59.3478ZM24.4619 63.7175C24.1277 64.0519 23.7267 64.6539 23.5931 65.0775C23.4594 65.5234 23.4148 66.1922 23.5039 66.5935C23.5708 66.9948 23.9495 67.6636 24.3505 68.1095C24.7515 68.5554 25.4422 69.0013 25.8655 69.1128C26.2888 69.2242 26.9348 69.2242 27.3136 69.1351C27.67 69.0236 28.227 68.8006 28.5389 68.6C28.8508 68.3993 29.2741 67.8866 29.4746 67.4407C29.6974 67.0171 29.8756 66.3483 29.8756 65.9693C29.8756 65.6125 29.6974 64.9437 29.4746 64.4978C29.2741 64.0519 28.784 63.5169 28.4275 63.2939C28.0265 63.0264 27.3581 62.8703 26.7566 62.8703C26.1996 62.8926 25.5981 62.9372 25.4199 63.0041C25.2417 63.071 24.7961 63.4054 24.4619 63.7175ZM30.2544 70.2052C30.0316 70.5173 29.7865 71.2307 29.7419 71.7658C29.6528 72.4792 29.7419 72.992 30.0316 73.5493C30.2544 73.9729 30.6776 74.4857 30.9895 74.7309C31.3015 74.9539 31.9921 75.1991 32.5491 75.266C33.262 75.3329 33.7744 75.2437 34.3091 74.9539C34.7324 74.7532 35.267 74.3074 35.4898 73.9952C35.7349 73.7054 35.9577 72.992 36.0245 72.4346C36.0914 71.7435 36.0245 71.2084 35.7349 70.6734C35.5121 70.2498 35.0888 69.7147 34.7769 69.4918C34.465 69.2688 33.7744 69.0236 33.2174 68.9567C32.5045 68.8898 31.9921 68.979 31.4574 69.2465C31.0341 69.4695 30.4994 69.9154 30.2544 70.2052ZM38.7648 75.0431C38.4752 75.4444 38.3192 76.0463 38.3192 76.6706C38.3415 77.2279 38.4752 77.919 38.6757 78.1866C38.8539 78.4541 39.2995 78.8331 39.6782 79.0115C40.0347 79.2121 40.6362 79.3459 41.0149 79.3459C41.3714 79.3459 41.9506 79.2121 42.2848 79.0561C42.619 78.8777 43.0868 78.4764 43.2873 78.1643C43.5101 77.8299 43.6884 77.1387 43.6884 76.626C43.6884 75.9571 43.5324 75.4667 43.1982 75.0208C42.9086 74.6641 42.3516 74.2405 41.9506 74.0844C41.5496 73.906 41.104 73.7946 40.9481 73.7946C40.7921 73.7946 40.3466 73.9283 39.9455 74.1067C39.5445 74.2628 39.0098 74.6864 38.7648 75.0431Z" fill="#FF2D46"/>
<path d="M69.1528 11.4591C70.4895 9.63093 71.9376 7.71362 72.3609 7.20085C72.8733 6.53201 73.2966 6.24219 73.6753 6.24219C73.965 6.24219 74.366 6.39825 74.5442 6.5766C74.7224 6.75496 74.8784 7.06708 74.8784 7.24543C74.8784 7.42379 73.3857 9.58634 71.5366 12.0387C69.7098 14.4911 68.0389 16.4976 67.8606 16.4976C67.6824 16.4976 67.3259 16.3861 67.0809 16.2747C66.769 16.1186 66.6353 15.8511 66.6799 15.4275C66.6947 14.9964 67.519 13.6736 69.1528 11.4591Z" fill="#FF2D46"/>
<path d="M26.2665 7.24548C26.2442 6.97794 26.3556 6.66582 26.5338 6.50976C26.7121 6.3537 27.0908 6.24223 27.4027 6.24223C27.8928 6.21993 28.4721 6.88877 31.2569 10.5896C33.0838 12.9751 34.5541 15.1377 34.5541 15.3829C34.5541 15.6282 34.3982 15.9849 34.1977 16.1632C34.0195 16.3416 33.6853 16.4976 33.4848 16.4976C33.2843 16.4976 32.8387 16.2301 32.5268 15.8957C32.1926 15.539 30.6777 13.5548 29.1182 11.4814C27.5587 9.40803 26.2888 7.49071 26.2665 7.24548Z" fill="#FF2D46"/>
<path d="M49.4363 6.26472C49.414 1.24848 49.4363 0.780303 49.815 0.401299C50.0378 0.178355 50.372 0 50.5725 0C50.773 0 51.1072 0.178355 51.33 0.401299C51.6864 0.735714 51.731 1.29307 51.7087 6.24242C51.7087 11.1026 51.6642 11.7491 51.3077 12.1058C51.1072 12.3288 50.773 12.4848 50.5948 12.4848C50.4166 12.4848 50.0824 12.3065 49.8596 12.0835C49.5031 11.7491 49.4586 11.1695 49.4363 6.26472Z" fill="#FF2D46"/>
<path d="M49.4363 96.7799C49.414 91.7636 49.4363 91.2954 49.815 90.9164C50.0378 90.6935 50.372 90.5151 50.5725 90.5151C50.773 90.5151 51.1072 90.6935 51.33 90.9164C51.6864 91.2509 51.731 91.8082 51.7087 96.7576C51.7087 101.618 51.6642 102.264 51.3077 102.621C51.1072 102.844 50.773 103 50.5948 103C50.4166 103 50.0824 102.822 49.8596 102.599C49.5031 102.264 49.4586 101.685 49.4363 96.7799Z" fill="#FF2D46"/>
</svg>
