<svg width="83" height="104" viewBox="0 0 83 104" fill="none" xmlns="http://www.w3.org/2000/svg">
<path fill-rule="evenodd" clip-rule="evenodd" d="M9.61253 0H44.5062C78.4651 0 79.4405 0.0203125 80.1925 0.385938C80.5989 0.609375 81.1883 1.03594 81.4728 1.36094C81.7776 1.66563 82.1434 2.19375 82.3263 2.53906C82.5702 3.04688 82.6312 4.93594 82.7734 25.8984L80.2331 26L80.1315 3.61563L79.0138 2.64063H10.1003L9.61253 3.14844C9.10447 3.65625 9.10447 3.65625 9.10447 12.3906L10.3035 11.3141C10.9538 10.7453 12.4374 9.38438 13.5957 8.30782C14.7541 7.23125 16.0344 6.175 16.4206 5.97188C17.1115 5.60625 18.087 5.58594 73.2219 5.58594L74.1973 6.13438C74.7257 6.45938 75.3964 7.08907 76.2702 8.40938L76.3718 95.875H77.4896C78.0993 95.875 78.8918 95.7329 79.217 95.5704C79.6031 95.3875 79.908 95.0219 80.0299 94.5954C80.1721 94.1688 80.2331 83.2407 80.2331 31.0781H82.875V62.8063C82.875 91.6297 82.8547 94.636 82.5499 95.3672C82.367 95.8141 82.0012 96.4844 81.737 96.8297C81.4728 97.1954 80.8631 97.7032 80.3957 97.9266C79.847 98.211 78.9325 98.4141 76.3718 98.6172V99.5719C76.3718 100.12 76.2296 100.892 76.0467 101.298C75.8841 101.725 75.5793 102.253 75.3964 102.456C75.2135 102.659 74.6444 103.106 73.2219 104H38.3282C6.6048 104 3.35321 103.98 2.76386 103.675C2.39805 103.492 1.82902 103.106 1.52419 102.802C1.19903 102.517 0.731609 101.908 0.0609674 100.648L0 22.0391L0.447094 21.0234C0.812899 20.2313 1.52419 19.4391 6.46255 14.9297V9.18125C6.46255 4.46875 6.52351 3.31094 6.78771 2.68125C6.95028 2.275 7.25512 1.74688 7.43802 1.54375C7.62093 1.34063 8.18996 0.89375 8.69802 0.56875L9.61253 0ZM18.4122 14.4828C18.3512 20.1297 18.3105 20.9016 18.0057 21.3891C17.8025 21.6938 17.3351 22.1203 16.9896 22.3438C16.3596 22.7297 15.9531 22.75 9.47027 22.75H2.60128L2.70289 100.384L3.82062 101.359H72.7341L73.7299 100.344C73.7096 19.3172 73.669 9.18125 73.4657 8.9375C73.3438 8.75469 73.0186 8.51094 72.7748 8.36875C72.4293 8.18594 65.4587 8.125 45.4004 8.125H18.4731L18.4122 14.4828ZM4.83675 20.0484C4.83675 20.0891 7.31609 20.1297 10.3238 20.1297H15.8109C15.8109 12.0453 15.7296 10.1766 15.6077 10.1766C15.506 10.1766 13.0267 12.3703 10.1206 15.0719C7.21448 17.7734 4.83675 20.0078 4.83675 20.0484Z" fill="#FF2D46"/>
<path fill-rule="evenodd" clip-rule="evenodd" d="M6.21863 87.953H8.90119V95.0624H13.9818V97.703H11.0351C8.75894 97.703 7.96636 97.6421 7.53959 97.3983C7.21443 97.2155 6.8283 96.8702 6.66572 96.6264C6.42185 96.2811 6.34056 95.2858 6.29992 92.0764L6.21863 87.953ZM59.3822 52.5889C62.4916 52.6092 62.9183 52.6499 63.5077 53.0155C63.9548 53.2796 64.2393 53.6452 64.3612 54.1733C64.4832 54.5999 64.5644 56.3671 64.5644 61.3233H61.9225V55.2296H57.0451V90.1671H61.9225V66.4014H64.5644V90.3702H67.4096L67.4299 92.7061L65.2351 92.8686C64.0361 92.9499 56.4151 93.0311 48.3065 93.0108C40.2181 93.0108 32.5566 92.9499 29.0001 92.7061V90.3702H32.0485L32.1501 80.8436L33.4914 79.503L39.5678 79.4014V72.9014L40.9497 71.4796H46.8839L46.9042 68.8999C46.9042 67.478 46.9855 65.9952 47.0871 65.5889C47.1887 65.203 47.5139 64.6546 47.8187 64.3702C48.3268 63.8827 48.4487 63.8624 54.4032 63.7608V59.0889C54.4032 55.3514 54.4642 54.3155 54.708 53.8077C54.8909 53.4827 55.2364 53.0764 55.4803 52.8936C55.8461 52.6499 56.6387 52.5889 59.3822 52.5889ZM49.6071 70.2202C49.6681 72.3124 49.729 77.6546 49.729 82.103V90.1671H54.4032V66.4014H49.4648L49.6071 70.2202ZM42.23 90.1874H46.9042V73.9374H42.23V90.1874ZM34.7107 90.1874H39.5881V82.0624H34.7107V90.1874ZM22.6189 36.3592C24.0211 36.3592 25.1388 36.4811 26.2769 36.7655C27.1711 36.9889 28.5327 37.4764 29.3253 37.8624C30.0975 38.228 31.2966 38.9795 31.9875 39.528C32.6582 40.0764 33.654 41.0311 34.1824 41.6405C34.7107 42.2499 35.483 43.3467 35.8894 44.078C36.2959 44.8092 36.8446 46.0889 37.1291 46.9217C37.5762 48.2624 37.6372 48.7905 37.6372 51.3905C37.6372 54.0921 37.5965 54.478 37.0681 55.9608C36.7633 56.8546 36.1333 58.2155 35.6862 59.0077C35.1985 59.8405 34.1417 61.1202 33.1459 62.0952C31.7233 63.5171 31.134 63.9436 29.3659 64.7764C28.1059 65.3858 26.663 65.9139 25.7079 66.0967C24.8543 66.2796 23.4927 66.4217 22.7205 66.4217C21.9279 66.4217 20.5866 66.2796 19.7127 66.0967C18.7779 65.9139 17.335 65.4061 16.1157 64.8171C14.5915 64.0858 13.6973 63.4764 12.5796 62.4405C11.7667 61.6686 10.6896 60.4499 10.2222 59.7186C9.73442 58.9874 9.12474 57.8499 8.84023 57.1796C8.55571 56.5092 8.16959 55.1889 7.96636 54.2342C7.72249 52.9749 7.66152 51.9592 7.72249 50.4764C7.80378 49.0342 7.98668 47.978 8.37281 46.8202C8.67765 45.9264 9.24668 44.6061 9.65313 43.8749C10.1002 43.042 11.0757 41.8639 12.2341 40.7061C13.7176 39.2233 14.4086 38.6952 15.8108 38.0249C16.766 37.5577 18.2292 36.9889 19.0624 36.7655C20.0379 36.5217 21.2979 36.3795 22.6189 36.3592ZM17.0302 40.3405C15.9328 40.8889 15.0589 41.5389 13.9615 42.6358C12.8438 43.753 12.2341 44.5858 11.6854 45.703C11.2789 46.5358 10.7912 47.7749 10.6286 48.4452C10.466 49.1155 10.3238 50.3952 10.3238 51.2889C10.3238 52.2639 10.4863 53.5639 10.7302 54.5389C10.9538 55.4327 11.4618 56.7124 11.8276 57.3827C12.2138 58.053 12.925 59.0483 13.3925 59.5967C13.8802 60.1452 14.8354 60.978 15.506 61.4452C16.1766 61.9124 17.1724 62.5014 17.7415 62.7452C18.2902 62.9889 19.3063 63.3342 19.9769 63.4764C20.6476 63.6389 21.8873 63.7811 22.7205 63.7811C23.5537 63.7811 24.834 63.6389 25.5656 63.4561C26.2972 63.2936 27.5166 62.8467 28.3092 62.4608C29.0814 62.0749 30.1788 61.3639 30.7479 60.8764L31.764 59.9827L21.5215 52.1014C21.5011 39.4467 21.4808 38.9999 21.1353 39.0202C20.9524 39.0202 20.2818 39.1624 19.6721 39.3045C19.0624 39.467 17.8634 39.9342 17.0302 40.3405ZM23.9195 50.4764C24.7934 51.2889 26.9069 52.9546 29.1627 54.7014L33.2882 57.8905C33.8369 57.0171 34.2027 56.1842 34.4872 55.453C34.8327 54.4983 34.9952 53.5639 35.0562 51.9999C35.1375 50.4358 35.0765 49.5217 34.8327 48.5467C34.6498 47.8155 34.162 46.5358 33.7556 45.703C33.2069 44.6061 32.5769 43.753 31.4591 42.6358C30.4633 41.6405 29.4472 40.8483 28.5124 40.3811C27.7198 39.9749 26.5005 39.4874 25.7688 39.3249C25.0372 39.142 24.326 38.9999 24.1837 38.9999C24.0008 38.9999 23.9398 40.2795 23.9398 44.728L23.9195 50.4764ZM65.8854 34.8358L65.987 37.3749H43.2258L43.1852 36.1967C43.1649 35.5467 43.2462 34.9577 43.3275 34.8764C43.4291 34.7952 48.53 34.7545 65.8854 34.8358ZM65.8854 29.7577L65.987 32.2967H43.2258L43.1852 31.1186C43.1649 30.4686 43.2462 29.8795 43.3275 29.7983C43.4291 29.717 48.53 29.6764 65.8854 29.7577ZM65.8854 24.6795L65.987 27.2186H43.2258L43.1852 26.0405C43.1649 25.3905 43.2462 24.8014 43.3275 24.7202C43.4291 24.6389 48.53 24.5983 65.8854 24.6795Z" fill="#FF2D46"/>
</svg>
