<svg width="67" height="86" viewBox="0 0 67 86" fill="none" xmlns="http://www.w3.org/2000/svg">
<path fill-rule="evenodd" clip-rule="evenodd" d="M3.48648 0L63.0449 0.0167969L63.978 0.571094C64.5844 0.923828 65.1131 1.39414 65.4864 1.94844C65.8285 2.43555 66.1706 3.19141 66.3105 3.7793C66.5282 4.68633 66.5593 8.70078 66.466 82.0527L65.984 83.1445C65.6885 83.7996 65.2531 84.4379 64.8954 84.757C64.5533 85.0426 63.978 85.4457 62.8894 86L3.48648 85.9832L2.55345 85.4289C1.94698 85.0762 1.41826 84.6059 1.04505 84.0516C0.702938 83.5645 0.360827 82.8086 0.220873 82.2207C0.00316543 81.3137 -0.0279356 77.2992 0.0187159 42.5801C0.0653675 6.56758 0.080918 3.89687 0.329726 3.19141C0.485231 2.77148 0.858443 2.11641 1.185 1.71328C1.51156 1.32695 2.16469 0.789453 2.6312 0.503906L3.48648 0ZM3.25322 3.79609L2.92666 4.2832L2.94221 81.8008L3.84414 82.8926H62.6873L63.5892 81.8008V4.19922L62.6873 3.10742C17.4042 3.05703 4.1085 3.10742 3.92189 3.19141C3.73529 3.25859 3.43983 3.54414 3.25322 3.79609Z" fill="#FF2D46"/>
<path d="M28.2584 67.9435C28.2429 67.4228 28.3362 67.2044 28.6627 66.9021L29.0826 66.5157H57.369L57.7577 66.9357C58.0221 67.2212 58.1465 67.5403 58.1465 67.9435C58.1465 68.3298 58.0221 68.6993 57.4001 69.4552H29.0671L28.6783 69.0353C28.3828 68.7329 28.274 68.4306 28.2584 67.9435Z" fill="#FF2D46"/>
<path d="M13.0967 68.6993C13.19 68.6993 15.2738 67.5571 17.7152 66.1798C20.1566 64.8025 22.3026 63.6603 22.5047 63.6603C22.6914 63.6603 22.9868 63.7443 23.1579 63.8282C23.3289 63.929 23.5777 64.2314 23.7021 64.5001C23.8265 64.7857 23.9043 65.2224 23.8576 65.4743C23.8265 65.7263 23.6555 66.0622 23.5155 66.1966C23.36 66.3478 20.9341 67.7755 18.104 69.3544C14.4807 71.4036 12.8323 72.2435 12.4747 72.2267C12.1637 72.2267 11.806 72.0755 11.5883 71.8571C11.3861 71.6388 10.5775 70.379 9.79998 69.0353C8.7581 67.2548 8.38489 66.4485 8.38489 66.0622C8.38489 65.7095 8.52484 65.3568 8.77365 65.088C9.03801 64.7857 9.31792 64.6681 9.73778 64.6681C10.1576 64.6681 10.422 64.7689 10.6553 65.0376C10.8419 65.256 11.4172 66.163 11.946 67.07C12.4747 67.9603 12.9878 68.6993 13.0967 68.6993Z" fill="#FF2D46"/>
<path d="M28.2584 51.3146C28.2429 50.7939 28.3362 50.5755 28.6627 50.2732L29.0826 49.8868H57.369L57.7577 50.3068C58.0066 50.5923 58.1465 50.9114 58.1465 51.281C58.1465 51.5833 58.0532 51.9696 57.9444 52.1544C57.82 52.3392 57.5245 52.5911 57.2757 52.7087C56.918 52.8767 53.8857 52.9103 29.0671 52.8263L28.6783 52.4064C28.3828 52.104 28.274 51.8017 28.2584 51.3146Z" fill="#FF2D46"/>
<path d="M13.0189 52.0704C13.0811 52.0704 15.1183 50.945 17.5597 49.5677C20.2033 48.0728 22.1782 47.0482 22.4581 47.0482C22.7225 47.0314 23.1112 47.1825 23.36 47.3673C23.5933 47.5689 23.811 47.9216 23.8576 48.2071C23.9043 48.5263 23.8265 48.9126 23.671 49.2318C23.4378 49.6685 22.5203 50.2564 18.1817 52.6751C14.9939 54.4556 12.7857 55.5978 12.5058 55.5978C12.257 55.6146 11.8838 55.4802 11.6971 55.3122C11.495 55.1442 10.6708 53.8845 9.86219 52.4903C8.7892 50.6595 8.38489 49.8364 8.38489 49.4333C8.38489 49.0806 8.52484 48.7446 8.77365 48.4591C9.05356 48.1568 9.31792 48.0392 9.78443 48.0392C10.282 48.0392 10.4842 48.14 10.7641 48.5095C10.9507 48.7614 11.5105 49.6685 12.0082 50.5251C12.4902 51.3818 12.9412 52.0704 13.0189 52.0704Z" fill="#FF2D46"/>
<path d="M28.5383 33.6946C28.6783 33.5267 28.9427 33.3251 29.1137 33.2579C29.3003 33.1739 35.7382 33.1235 57.4001 33.1739L57.7733 33.6443C58.0221 33.9466 58.1465 34.3161 58.1465 34.6857C58.1465 35.0888 58.0221 35.4079 57.3845 36.1134H29.0671L28.6627 35.7439C28.3517 35.4415 28.2584 35.2064 28.274 34.6857C28.274 34.3161 28.3984 33.8794 28.5383 33.6946Z" fill="#FF2D46"/>
<path d="M13.05 35.4583C13.0967 35.4583 15.1183 34.3161 17.5597 32.9388C20.6853 31.1751 22.1471 30.4193 22.5358 30.4193C22.9091 30.4025 23.189 30.52 23.4067 30.7888C23.5933 30.9903 23.7954 31.3263 23.8421 31.5446C23.8887 31.7462 23.8421 32.1661 23.7332 32.4685C23.5466 32.9556 23.0179 33.2915 18.2439 35.9454C15.3515 37.5747 12.7857 38.9017 12.5524 38.9353C12.3036 38.9521 11.9926 38.9017 11.8527 38.8345C11.6971 38.7505 10.8574 37.4739 9.98659 36.0126C8.8203 34.0642 8.40044 33.2075 8.38489 32.8044C8.38489 32.4517 8.52484 32.0821 8.7581 31.7966C9.03801 31.4607 9.28682 31.3263 9.67558 31.3263C10.0021 31.3263 10.3598 31.4607 10.562 31.6622C10.7486 31.847 11.3706 32.7876 11.9304 33.7282C12.5058 34.6857 13.0034 35.4583 13.05 35.4583Z" fill="#FF2D46"/>
<path d="M28.3206 17.5193C28.3984 17.1833 28.6161 16.881 28.8805 16.7298C29.2381 16.5114 31.3374 16.4778 57.2135 16.461L57.68 16.965C58.0066 17.3345 58.1465 17.6368 58.1465 18.0232C58.1465 18.3255 58.0532 18.6782 57.9444 18.8294C57.8511 18.9806 57.6022 19.1821 57.4156 19.2997C57.1513 19.4341 53.4036 19.4845 43.1092 19.4845C31.664 19.4845 29.0826 19.4509 28.8338 19.2661C28.6628 19.1485 28.445 18.8126 28.3517 18.5439C28.2584 18.2415 28.2429 17.8552 28.3206 17.5193Z" fill="#FF2D46"/>
<path d="M16.7822 16.713C18.8815 15.5372 21.0119 14.3446 21.5251 14.0927C22.0849 13.8071 22.5825 13.656 22.7691 13.7064C22.9402 13.7735 23.2512 13.9919 23.4689 14.2271C23.7332 14.4958 23.8576 14.815 23.8576 15.2013C23.8576 15.6044 23.7332 15.9068 23.4689 16.1923C23.2512 16.4107 21.1985 17.6536 18.8815 18.947C16.58 20.2403 14.2319 21.5505 13.6721 21.8528C12.9412 22.2392 12.5524 22.3568 12.2414 22.2896C11.9926 22.2224 11.666 22.004 11.5105 21.8025C11.3395 21.5841 10.5775 20.3579 9.79998 19.0646C8.7892 17.3681 8.40044 16.5618 8.38489 16.1755C8.38489 15.7892 8.52484 15.47 8.83585 15.1173C9.08466 14.8485 9.44232 14.6134 9.61338 14.6134C9.79998 14.6134 10.1265 14.7142 10.3443 14.8318C10.5775 14.9493 11.1684 15.7556 11.7904 16.7802C12.3503 17.7544 12.8479 18.611 12.8945 18.695C12.9412 18.779 14.6828 17.8888 16.7822 16.713Z" fill="#FF2D46"/>
</svg>
