<svg width="87" height="94" viewBox="0 0 87 94" fill="none" xmlns="http://www.w3.org/2000/svg">
<path d="M43.6221 34.9859C43.6037 34.4903 43.7138 34.27 44.1174 33.9763C44.3925 33.756 44.7044 33.5908 44.8144 33.5908C44.9245 33.5908 46.0985 33.8294 47.4009 34.1415C48.7033 34.4535 49.9323 34.7472 50.0974 34.7839C50.2808 34.839 50.5377 35.096 50.6844 35.3897C50.8495 35.7017 50.9963 36.8949 51.088 38.6387C51.2164 41.3186 51.2164 41.4104 50.8312 41.8142C50.611 42.0345 50.2075 42.218 49.914 42.218C49.6388 42.2364 49.2169 42.0896 48.9784 41.906C48.6116 41.6307 48.5199 41.3553 48.4281 40.1989C48.3731 39.4096 48.2447 38.8406 48.1346 38.8773C48.0246 38.914 43.5304 42.3832 38.1373 46.5867C32.7443 50.7902 24.3795 57.3249 19.5735 61.0878C12.4928 66.6129 10.6951 67.9161 10.2549 67.9161C9.94304 67.9161 9.53948 67.7509 9.3377 67.549C9.11757 67.3288 8.97083 66.9433 8.97083 66.5395C8.97083 66.0439 9.09923 65.7869 9.57617 65.4014C9.90635 65.1077 18.2894 58.573 28.195 50.8453C39.3297 42.163 46.1168 36.748 45.9701 36.6746C45.8417 36.6012 45.4198 36.491 45.0162 36.4176C44.6126 36.3442 44.1357 36.1239 43.9523 35.9404C43.7872 35.7568 43.6404 35.3346 43.6221 34.9859Z" fill="#FF2D46"/>
<path fill-rule="evenodd" clip-rule="evenodd" d="M63.0114 0C63.7451 0 64.1854 0.110135 64.6806 0.440539C65.0659 0.679164 65.5611 1.06464 65.7813 1.30326C66.0014 1.54189 66.2949 2.03749 66.7168 3.02871L68.6245 3.1572C69.6518 3.23062 71.1376 3.46924 71.8897 3.67116C72.6418 3.89143 73.9626 4.36868 74.8247 4.73579C76.3472 5.3966 76.439 5.41496 78.6769 5.3966C80.658 5.3966 81.1716 5.32318 82.4374 4.901C83.2445 4.62566 84.1983 4.40539 84.5469 4.40539C84.8954 4.40539 85.4641 4.57059 85.7759 4.77251C86.1061 4.97442 86.4913 5.32318 86.6014 5.5618C86.7848 5.8555 86.8398 7.69108 86.8398 12.8491C86.8398 18.3374 86.7848 19.861 86.583 20.3749C86.4363 20.7237 86.1061 21.2377 85.8493 21.5313C85.5925 21.8067 84.9138 22.2289 84.3634 22.4858C83.8131 22.7245 82.8226 23.0732 82.1622 23.2568C81.3 23.4954 80.3278 23.5872 78.5852 23.5872C76.4023 23.5872 76.0721 23.5321 74.8247 23.0549C74.0726 22.7612 72.7519 22.2839 71.8897 21.9902C70.7891 21.6048 69.8169 21.4029 66.7535 21.2009V40.5663L67.2121 40.6581C67.4689 40.7131 67.9825 41.0986 68.3494 41.5392C68.7346 41.9797 69.1565 42.6589 69.2666 43.0627C69.395 43.4482 69.505 44.1824 69.505 45.6141L70.2755 45.7426C70.7157 45.8161 71.3578 46.073 71.7063 46.3117C72.0548 46.5503 72.5318 47.101 72.7519 47.5599C73.1738 48.3675 73.1738 48.3859 73.1738 68.2835L72.6602 68.6507C72.385 68.8709 71.9998 69.0178 71.798 69.0178C71.5962 69.0178 71.3027 68.9076 71.1376 68.7792C70.9725 68.6507 70.7524 68.3753 70.6424 68.1367C70.4773 67.843 70.4222 65.1264 70.4222 58.3714C70.4222 53.2134 70.3855 48.8815 70.3305 48.7346C70.2571 48.496 69.2849 48.4593 63.0847 48.4593C56.1141 48.4593 55.9307 48.4776 55.7473 48.8264C55.6372 49.065 55.5638 56.5725 55.5638 91.2283H70.4222V82.6011C70.4222 76.3968 70.4773 73.8637 70.6424 73.5517C70.7524 73.3314 70.9725 73.056 71.1376 72.9276C71.3027 72.7991 71.5962 72.6889 71.798 72.6889C71.9998 72.6889 72.385 72.8358 73.1738 73.4232V93.1556L72.3483 94L30.5247 93.9817L30.1028 93.5595C29.846 93.3025 29.6992 92.9354 29.6992 92.5499C29.6992 92.1277 29.8276 91.8524 30.1945 91.5954C30.6531 91.265 30.9833 91.2099 35.2023 91.2283V81.9953C35.2023 74.7999 35.1656 72.7256 34.9822 72.5421C34.7988 72.3769 33.1478 72.3218 27.7181 72.3218C20.8942 72.3218 20.7108 72.3402 20.5273 72.6889C20.4173 72.9276 20.3439 76.4519 20.3439 91.2283H22.6369C23.9026 91.2283 25.0582 91.2834 25.2233 91.3568C25.3884 91.4486 25.6452 91.7606 25.792 92.0543C26.0121 92.5132 26.0305 92.6967 25.8103 93.1373C25.6819 93.431 25.4251 93.743 25.2417 93.8165C25.0766 93.9082 19.922 93.9817 2.64224 93.9817L1.76174 93.431C1.22977 93.0822 0.752835 92.5866 0.496023 92.091C0.110805 91.3935 0.0741181 91.0264 0.019087 87.8325C-0.0176004 85.9051 0.000743257 84.0145 0.0557744 83.6106C0.110805 83.2068 0.385961 82.5276 0.67946 82.1055C0.954616 81.6649 1.50493 81.1326 1.90849 80.9123C2.64224 80.4901 2.67892 80.4901 17.5006 80.4901L17.5924 76.2683C17.6657 72.4687 17.7208 71.9914 18.0509 71.4224C18.2527 71.0736 18.7113 70.5597 19.0599 70.2843C19.4818 69.9356 20.0871 69.6786 20.8025 69.5501C21.5363 69.4216 24.1411 69.3665 35.184 69.4767L35.239 64.9795C35.294 60.8678 35.3307 60.4273 35.6609 59.8582C35.8627 59.5095 36.3213 58.9955 36.6698 58.7202C37.0917 58.3714 37.6971 58.1144 38.4125 57.9859C39.1462 57.8575 41.751 57.8024 52.7939 57.9125L52.849 53.0482C52.904 48.5694 52.9407 48.1289 53.2709 47.5599C53.4726 47.2111 53.9312 46.6971 54.2798 46.4218C54.6466 46.1097 55.2887 45.8344 56.5727 45.6141L56.6644 44.3292C56.7195 43.5766 56.9213 42.7323 57.1414 42.3101C57.3615 41.8512 57.8751 41.3372 59.416 40.291V2.84515L59.8196 2.01914C60.0947 1.46846 60.5533 0.991213 61.1403 0.587385C61.8741 0.110135 62.2226 0 63.0114 0V0ZM62.1492 21.77L62.1676 40.1992H64.0019C64.0019 5.87385 63.9652 3.52431 63.7268 3.1572C63.58 2.93693 63.2865 2.75337 63.1031 2.75337C62.9013 2.75337 62.6078 2.88186 62.4427 3.04706C62.1676 3.30404 62.1492 4.901 62.1492 21.77ZM66.7535 18.4476C69.6701 18.6495 71.0092 18.833 71.6146 18.9982C72.2199 19.1634 73.5773 19.6407 74.6413 20.0629C76.5307 20.8155 76.6041 20.8338 78.7686 20.8155C80.7681 20.8155 81.1166 20.7604 82.4374 20.2648C83.7214 19.7692 83.9232 19.6407 84.0149 19.1634C84.0883 18.8698 84.1433 16.098 84.1617 12.9775L84.18 7.34232C83.538 7.45245 82.6575 7.67272 81.7953 7.89299C80.4929 8.24175 79.8876 8.29682 78.1266 8.22339C76.1271 8.14997 75.907 8.11326 73.9075 7.3056C72.7519 6.84671 71.156 6.33275 70.3672 6.16755C69.5968 6.00234 68.4594 5.87385 67.8541 5.87385H66.7535V18.4476ZM59.5811 43.5583C59.4894 43.6868 59.416 44.164 59.416 44.6413V45.5224H66.7535C66.7535 44.0539 66.6434 43.7602 66.2949 43.4114C65.8546 42.9709 65.7813 42.9526 63.2315 42.9709C61.7823 42.9709 60.4066 43.0627 60.1681 43.1545C59.9296 43.2646 59.6728 43.4298 59.5811 43.5583ZM37.9355 76.3417L37.9539 91.2283H52.8123C52.8123 68.0449 52.7756 61.1799 52.7206 61.033C52.6472 60.7944 51.675 60.7577 45.4748 60.7577C38.6142 60.7577 38.3207 60.776 38.119 61.1064C37.9722 61.3634 37.9355 65.6954 37.9355 76.3417ZM3.00911 83.5556C2.7523 83.9043 2.69727 84.4734 2.71561 87.2818C2.71561 90.2004 2.77064 90.6225 3.0458 90.8979C3.35764 91.1916 3.99967 91.2283 10.4933 91.2283H17.5924C17.5924 83.7024 17.574 83.5189 17.2255 83.3353C17.0054 83.2252 14.2355 83.1517 10.0898 83.1517H3.30261L3.00911 83.5556Z" fill="#FF2D46"/>
</svg>
