<svg width="99" height="99" viewBox="0 0 99 99" fill="none" xmlns="http://www.w3.org/2000/svg">
<path fill-rule="evenodd" clip-rule="evenodd" d="M5.41886 0.023121L80.5072 0L81.6642 0.578026C82.3121 0.90172 83.1914 1.50287 83.6542 1.89593C84.117 2.3121 84.7649 3.23695 85.0889 3.93058C85.6211 5.06351 85.7136 5.52593 85.8293 10.8669H89.3697C91.9845 10.8669 93.2109 10.9594 94.1596 11.2368C95.0389 11.5143 95.7794 11.9536 96.5662 12.6934C97.1678 13.2715 97.8388 14.0576 98.024 14.4506C98.2322 14.8437 98.533 15.6067 98.695 16.1847C98.9496 17.0171 99.019 20.254 98.9958 32.2538C98.9727 40.5312 98.9033 50.612 98.8107 54.6813C98.6719 61.6176 98.6256 62.1493 98.1628 63.0048C97.9083 63.5135 97.1678 64.4152 96.5662 64.9932C95.7794 65.7331 95.0389 66.1724 94.1596 66.4499C93.1878 66.7273 91.9382 66.8198 88.8838 66.8198C85.2046 66.8198 84.9037 66.8429 85.0426 67.2129C85.112 67.4441 85.3203 68.2533 85.5054 69.0163C85.6905 69.7793 85.8988 71.5365 85.9913 72.9469C86.0839 74.5191 86.0145 76.2301 85.8525 77.4555C85.6905 78.5422 85.2971 80.2531 84.9732 81.2704C84.6492 82.2878 83.9319 83.9987 83.3765 85.0854C82.8443 86.1721 81.8725 87.7212 81.2477 88.5536C80.6229 89.3859 79.4428 90.6807 78.6329 91.4437C77.823 92.2067 76.5272 93.2703 75.7636 93.7789C75 94.3107 73.6579 95.0968 72.7554 95.5361C71.853 95.9754 70.4646 96.5535 69.6315 96.8309C68.7985 97.0852 67.4101 97.4552 66.5077 97.6633C65.5127 97.8945 63.8466 98.0332 62.1806 98.0332C59.936 98.0332 58.9873 97.9176 56.8584 97.3627C55.4238 96.9928 53.4106 96.3222 52.3925 95.8598C51.3743 95.3743 49.8702 94.5419 49.0372 93.987C48.2042 93.4321 46.8621 92.3685 46.0522 91.6287C45.2423 90.8888 43.9465 89.4553 43.1829 88.438C42.4424 87.4206 41.3548 85.6403 40.7995 84.5074C40.2441 83.3745 39.5037 81.3861 39.1797 80.1144C38.6243 78.0797 38.5549 77.363 38.5549 74.2185C38.5549 71.2822 38.6475 70.3111 39.064 68.7851C39.3417 67.7678 39.5499 66.9123 39.5499 66.866C39.5499 66.8429 34.7831 66.8198 28.9751 66.8198C19.5572 66.8198 18.2383 66.7736 17.1044 66.4267C16.1557 66.1262 15.5078 65.71 14.559 64.7389C13.5872 63.7909 13.1707 63.1436 12.8698 62.1956C12.5922 61.2939 12.4765 60.1609 12.4765 55.4905H9.30633C7.20062 55.4905 5.71968 55.3749 4.95607 55.1668C4.19246 54.9356 3.35943 54.45 2.54954 53.7102C1.87849 53.109 1.16116 52.2767 0.952901 51.9067C0.767783 51.5368 0.466967 50.7507 0.304989 50.1727C0.0504524 49.3403 -0.0189667 46.1034 0.00417301 34.1035C0.0273127 25.8262 0.0967318 15.861 0.189291 11.9073C0.328129 5.10975 0.374408 4.69357 0.860342 3.74561C1.13802 3.21382 1.76279 2.40459 2.24872 1.94217C2.71152 1.50287 3.63711 0.878599 4.26188 0.578026L5.41886 0.023121ZM4.26188 5.31784C3.96106 5.91899 3.91478 8.9016 3.91478 27.8146C3.91478 49.1784 3.91478 49.6177 4.37758 50.3576C4.63211 50.7507 5.21061 51.2593 5.65026 51.4443C6.22875 51.6986 7.31632 51.7911 9.46831 51.7911H12.4765C12.4765 18.3119 12.4996 16.6471 12.8698 15.4911C13.1707 14.5431 13.5872 13.8957 14.559 12.9478C15.5078 11.9767 16.1557 11.5605 17.1044 11.2599C18.2845 10.89 20.6679 10.8669 50.2636 10.8669H82.127C82.127 7.32937 82.0113 6.17332 81.803 5.73402C81.6411 5.31784 81.2014 4.71669 80.8543 4.393L80.2295 3.81497C6.46016 3.69937 6.11306 3.69937 5.34944 4.16179C4.95607 4.41612 4.447 4.9479 4.26188 5.31784ZM16.6185 16.1847C16.202 16.9708 16.1788 17.8263 16.1788 38.8433C16.1788 59.213 16.202 60.739 16.5722 61.4788C16.8036 61.895 17.359 62.4499 17.7986 62.6811C18.5622 63.0973 19.2564 63.1204 29.9007 63.1204H41.1697C42.8358 60.5309 43.8539 59.1436 44.5018 58.4037C45.1497 57.6639 46.515 56.3691 47.5331 55.5599C48.5513 54.7506 50.4256 53.5714 51.6983 52.9472C53.1098 52.2304 54.9841 51.5368 56.5113 51.1437C57.8766 50.7969 58.9873 50.4501 58.9873 50.3576C58.9873 50.242 57.8072 50.1727 56.3956 50.1727C53.966 50.1958 53.7346 50.1495 53.2718 49.664C52.971 49.3634 52.7396 48.8548 52.7396 48.5079C52.7396 48.138 52.809 47.6987 52.9247 47.4906C53.0172 47.2825 53.3643 46.9588 53.7346 46.797C54.1511 46.5658 55.2849 46.4733 57.3212 46.4733C59.2187 46.4733 60.4682 46.5889 60.8385 46.7739C61.1624 46.9357 61.5558 47.3288 61.6946 47.6293C61.9029 48.0455 61.926 48.4155 61.764 48.9704C61.6252 49.3865 61.2781 49.849 60.9079 50.057C60.2831 50.3807 60.3525 50.3807 62.1111 50.4039C63.1293 50.4039 64.911 50.5657 66.0449 50.7507C67.2019 50.9356 68.8679 51.3287 69.7472 51.6293C70.6497 51.9299 72.0381 52.531 72.8711 52.9472C73.7041 53.3634 75 54.1264 75.7636 54.635C76.5272 55.1437 78.0313 56.4616 79.1188 57.5483C80.2064 58.635 81.6179 60.3459 82.2427 61.3401L83.3997 63.1436C92.4704 63.1204 92.9564 63.0742 93.6506 62.658C94.0439 62.4037 94.553 61.895 94.7381 61.502C95.0389 60.9008 95.0852 57.8951 95.0852 38.8433C95.0852 19.7916 95.0389 16.7859 94.7381 16.1847C94.553 15.8148 94.0439 15.283 93.6506 15.0287C92.8869 14.5663 92.4473 14.5663 55.7477 14.5663C20.8068 14.5663 18.5622 14.5894 17.8217 14.9593C17.4052 15.1905 16.8499 15.7454 16.6185 16.1847ZM55.8634 55.1437C55.2386 55.3518 54.0817 55.8604 53.3181 56.2304C52.5544 56.6234 51.4669 57.2477 50.8884 57.6407C50.3099 58.0338 49.176 58.9818 48.3662 59.7448C47.5563 60.5309 46.4687 61.7794 45.9133 62.5424C45.3811 63.3054 44.5944 64.5771 44.201 65.3863C43.8076 66.1724 43.206 67.7215 42.8589 68.8544C42.3267 70.6348 42.2573 71.2359 42.2573 74.2185C42.2573 77.2011 42.3267 77.8023 42.8589 79.6057C43.206 80.7155 43.8076 82.2646 44.201 83.0739C44.5944 83.86 45.3811 85.1317 45.9133 85.8947C46.4687 86.6577 47.5563 87.9062 48.3662 88.6923C49.176 89.4553 50.3793 90.4264 51.0041 90.8657C51.652 91.305 52.9941 92.0449 54.0122 92.5073C55.0304 92.9697 56.5345 93.5246 57.3675 93.7327C58.2005 93.9408 59.9591 94.172 61.3013 94.2645C63.1061 94.357 64.2863 94.2876 65.8135 93.987C66.9705 93.7789 68.6828 93.2934 69.6315 92.9235C70.5803 92.5766 72.2001 91.7212 73.2182 91.0506C74.2363 90.3801 75.7404 89.1547 76.5735 88.3224C77.4065 87.49 78.5866 85.9871 79.2345 84.9698C79.8593 83.9525 80.6692 82.4034 80.9931 81.5017C81.3402 80.6231 81.7799 79.0739 81.9881 78.1029C82.1964 77.1087 82.3584 75.3746 82.3584 74.2185C82.3584 73.0856 82.2195 71.3746 82.0344 70.4729C81.8493 69.5481 81.3865 67.9527 81.0163 66.9354C80.6229 65.9181 79.7667 64.2534 79.0957 63.236C78.4246 62.2187 77.1288 60.6696 76.2264 59.7679C75.3008 58.8893 73.7273 57.6639 72.7323 57.0396C71.7141 56.4385 70.0249 55.6523 68.9374 55.2593C67.8498 54.8893 66.2994 54.4732 65.4664 54.3576C64.6334 54.2188 63.083 54.1264 61.9954 54.1264C60.9079 54.1495 59.3575 54.2882 58.5245 54.45C57.6915 54.6119 56.5113 54.9356 55.8634 55.1437Z" fill="#FF2D46"/>
<path d="M50.1479 68.5539C50.5181 68.0452 52.1379 66.3574 53.7346 64.8082V64.7851C56.1642 62.4037 56.7427 61.9644 57.3444 61.9644C57.8072 61.9644 58.2699 62.1724 58.6402 62.5424C59.0258 62.9277 59.2187 63.367 59.2187 63.8603C59.1955 64.4845 58.8947 64.947 57.3675 66.473C56.3494 67.4903 55.5163 68.392 55.5163 68.4845C55.5163 68.6001 58.4551 68.6926 68.5903 68.7851L69.9786 69.4556C70.7422 69.8486 71.8298 70.6116 72.4314 71.1896C73.0099 71.7908 73.7504 72.8312 74.0975 73.5249C74.4446 74.2185 74.8148 75.3746 74.9305 76.0682C75.0925 76.9005 75.0694 77.8716 74.9305 78.8427C74.7917 79.6751 74.3983 80.9005 74.0744 81.5941C73.7273 82.2646 72.8942 83.3282 72.2232 83.9525C71.5753 84.5767 70.4183 85.3628 69.6778 85.7097C68.6597 86.1721 67.8961 86.3339 66.2763 86.4264C65.1193 86.4958 63.916 86.4727 63.5458 86.3802C63.1524 86.2877 62.7822 85.964 62.5508 85.4785C62.2268 84.8773 62.2037 84.5999 62.412 84.0449C62.5739 83.675 62.9442 83.2126 63.2681 83.0507C63.5921 82.912 64.6102 82.7733 65.5127 82.7733C66.7854 82.7733 67.5027 82.6346 68.3589 82.2415C68.9836 81.9409 69.7935 81.3398 70.1406 80.9005C70.4877 80.4612 70.9505 79.5826 71.1356 78.9583C71.367 78.2184 71.4364 77.4786 71.3439 76.8774C71.2745 76.3688 71.0199 75.5826 70.7885 75.1433C70.5571 74.704 70.0712 74.0567 69.701 73.7098C69.3539 73.363 68.6597 72.9237 68.1737 72.7388C67.4795 72.4382 66.2069 72.3688 55.4006 72.3688L57.2981 74.2647C58.3162 75.3283 59.2418 76.4381 59.3344 76.7618C59.4269 77.0855 59.3807 77.5942 59.1955 77.9179C59.0336 78.2416 58.7559 78.6115 58.5476 78.7733C58.3394 78.9352 57.8534 79.0508 57.4832 79.0508C56.9047 79.0508 56.2568 78.5421 53.48 75.7676C51.652 73.9642 50.0091 72.207 49.824 71.837C49.6388 71.4902 49.5 70.8197 49.5 70.3342C49.5 69.7561 49.6851 69.2012 50.1479 68.5539Z" fill="#FF2D46"/>
<path fill-rule="evenodd" clip-rule="evenodd" d="M42.9052 46.4732C44.8721 46.4732 46.1216 46.5888 46.4918 46.7738C46.8158 46.9356 47.2092 47.3749 47.3711 47.7448C47.6488 48.3229 47.6488 48.5541 47.3711 49.109C47.2092 49.4789 46.8852 49.872 46.6769 49.9645C46.4456 50.0801 44.7564 50.1726 42.9052 50.1726C39.6425 50.1726 39.5268 50.1494 38.9714 49.5945C38.6475 49.2708 38.3929 48.739 38.3929 48.3691C38.3929 48.0223 38.5086 47.583 38.6706 47.3749C38.8326 47.1668 39.1797 46.8894 39.4342 46.7506C39.7119 46.5888 41.1697 46.4963 42.9052 46.4732ZM25.3884 46.4732H31.9138L32.608 47.1668C33.1634 47.7217 33.2791 47.9992 33.1865 48.6003C33.1171 49.0165 32.8394 49.5483 32.5386 49.7795C32.0989 50.1263 31.5667 50.1957 28.628 50.1726C25.2959 50.1726 25.1802 50.1494 24.6248 49.5945C24.3009 49.2708 24.0463 48.7622 24.0695 48.4154C24.0695 48.0917 24.3703 47.5136 24.7405 47.1437L25.3884 46.4732ZM69.0993 30.5659C72.2 30.5428 73.2645 30.6122 73.9124 30.8665C74.352 31.0746 74.8148 31.4676 74.9537 31.7913C75.1079 32.1767 75.1079 32.6006 74.9537 33.063C74.8148 33.456 74.514 33.8722 74.2595 33.9878C73.9818 34.1266 71.7373 34.219 69.0993 34.2422C64.7953 34.2422 64.3788 34.1959 63.8466 33.8029C63.407 33.456 63.2681 33.1092 63.2681 32.5312C63.2681 32.0919 63.4532 31.5139 63.6846 31.2595C63.8929 31.0052 64.3094 30.7278 64.6102 30.6815C64.8879 30.6353 66.9011 30.5659 69.0993 30.5659ZM85.8293 24.0458L86.4078 24.6238C86.7086 24.9475 86.9863 25.4562 86.9863 25.7799C86.9863 26.1036 86.6855 26.6585 85.6211 27.7451H64.5408L63.8466 27.0515C63.4532 26.6816 63.1524 26.196 63.1524 26.0111C63.1524 25.8261 63.2913 25.3637 63.4995 24.9937C63.6846 24.6238 63.9623 24.277 64.1243 24.2076C64.2863 24.1383 69.2382 24.0689 85.8293 24.0458ZM36.4261 22.6816C43.3448 22.6816 46.353 22.7741 46.9315 22.9591C47.348 23.1209 47.9265 23.5371 48.2042 23.8839C48.6438 24.5082 48.6901 24.8319 48.6901 29.9185C48.6901 34.6352 48.6207 35.352 48.2736 35.9069C48.0422 36.2537 47.6025 36.6467 47.3017 36.7624C46.9315 36.9011 42.6969 36.9936 36.3566 37.0167C26.2909 37.0167 25.9901 36.9936 25.3653 36.5543C25.0182 36.2768 24.6248 35.6757 24.486 35.2132C24.324 34.6583 24.2546 32.4618 24.3009 29.3405C24.3703 25.2481 24.4397 24.2308 24.7405 23.7915C24.9488 23.514 25.4578 23.1441 25.8975 22.9822C26.4991 22.751 29.0908 22.6816 36.4261 22.6816V22.6816ZM27.9338 29.9879L27.9801 33.2942H45.1034L44.9877 26.4735C32.0295 26.381 28.1883 26.4272 28.0958 26.5197C27.9801 26.6122 27.9106 28.1613 27.9338 29.9879Z" fill="#FF2D46"/>
</svg>
