<svg width="23" height="19" viewBox="0 0 23 19" fill="none" xmlns="http://www.w3.org/2000/svg">
<path d="M4.6 13.0625H1.15C0.514984 13.0625 0 13.5943 0 14.25V17.8125C0 18.4682 0.514984 19 1.15 19H4.6C5.23502 19 5.75 18.4682 5.75 17.8125V14.25C5.75 13.5943 5.23502 13.0625 4.6 13.0625ZM3.7375 10.0938H10.6375V11.875H12.3625V10.0938H19.2625V11.875H20.9875V9.73787C20.9875 8.95227 20.3683 8.3125 19.6071 8.3125H12.3625V5.9375H13.8C14.435 5.9375 14.95 5.40572 14.95 4.75V1.1875C14.95 0.531777 14.435 0 13.8 0H9.2C8.56498 0 8.05 0.531777 8.05 1.1875V4.75C8.05 5.40572 8.56498 5.9375 9.2 5.9375H10.6375V8.3125H3.39286C2.6317 8.3125 2.0125 8.95189 2.0125 9.73787V11.875H3.7375V10.0938ZM13.225 13.0625H9.775C9.13998 13.0625 8.625 13.5943 8.625 14.25V17.8125C8.625 18.4682 9.13998 19 9.775 19H13.225C13.86 19 14.375 18.4682 14.375 17.8125V14.25C14.375 13.5943 13.86 13.0625 13.225 13.0625ZM21.85 13.0625H18.4C17.765 13.0625 17.25 13.5943 17.25 14.25V17.8125C17.25 18.4682 17.765 19 18.4 19H21.85C22.485 19 23 18.4682 23 17.8125V14.25C23 13.5943 22.485 13.0625 21.85 13.0625Z" fill="#DA2F3E"/>
</svg>
