<svg width="27" height="19" viewBox="0 0 27 19" fill="none" xmlns="http://www.w3.org/2000/svg">
<path d="M13.5 4.25C13.0032 4.25777 12.51 4.33669 12.0356 4.48438C12.255 4.8703 12.3719 5.30605 12.375 5.75C12.375 6.09472 12.3071 6.43606 12.1752 6.75454C12.0432 7.07302 11.8499 7.3624 11.6061 7.60616C11.3624 7.84991 11.073 8.04327 10.7545 8.17518C10.436 8.3071 10.0947 8.375 9.74997 8.375C9.30603 8.37192 8.87028 8.25507 8.48435 8.03562C8.17986 9.09162 8.21535 10.2167 8.58579 11.2514C8.95622 12.2861 9.64282 13.178 10.5483 13.8008C11.4538 14.4236 12.5324 14.7457 13.6311 14.7215C14.7299 14.6973 15.7931 14.328 16.6704 13.6659C17.5476 13.0038 18.1942 12.0825 18.5187 11.0325C18.8432 9.9825 18.8291 8.857 18.4784 7.81544C18.1277 6.77388 17.4582 5.86906 16.5647 5.22915C15.6712 4.58924 14.599 4.24668 13.5 4.25ZM26.8368 8.81562C24.2948 3.85578 19.2623 0.5 13.5 0.5C7.73763 0.5 2.70372 3.85813 0.163099 8.81609C0.055869 9.02821 0 9.26256 0 9.50023C0 9.73791 0.055869 9.97226 0.163099 10.1844C2.70513 15.1442 7.73763 18.5 13.5 18.5C19.2623 18.5 24.2962 15.1419 26.8368 10.1839C26.9441 9.97179 26.9999 9.73744 26.9999 9.49977C26.9999 9.26209 26.9441 9.02774 26.8368 8.81562ZM13.5 16.25C8.87576 16.25 4.63638 13.6719 2.34701 9.5C4.63638 5.32812 8.87529 2.75 13.5 2.75C18.1247 2.75 22.3636 5.32812 24.6529 9.5C22.364 13.6719 18.1247 16.25 13.5 16.25Z" fill="#DA2F3E"/>
</svg>
