<svg width="130" height="82" viewBox="0 0 130 82" fill="none" xmlns="http://www.w3.org/2000/svg">
<path fill-rule="evenodd" clip-rule="evenodd" d="M24.8946 43.3153C25.5197 42.418 26.0537 41.6419 26.3337 41.2303C28.0318 38.7215 33.0055 33.0018 35.1067 27.853C36.7111 23.9254 36.6531 20.3174 33.2256 18.2292C30.1103 16.3312 26.0509 17.3081 21.8605 20.055C12.8418 25.967 3.01457 39.9115 1.1336 44.8909C0.92855 45.4346 1.20126 46.0403 1.74497 46.2453C2.28615 46.4496 2.89181 46.1769 3.09686 45.6332C4.90309 40.8552 14.3541 27.4865 23.012 21.8106C26.3964 19.5926 29.6174 18.49 32.1337 20.0237C34.6178 21.5361 34.3259 24.2112 33.1628 27.0584C31.1189 32.0697 26.2488 37.611 24.594 40.0529C23.5575 41.5843 19.4394 47.3131 19.2047 47.8891C18.9103 48.6102 19.3602 49.0245 19.518 49.1494C19.6402 49.2463 20.2807 49.6903 20.9741 49.0341C30.8675 39.6837 52.5211 32.183 72.8425 32.8857C92.9854 33.582 111.866 42.3926 116.436 65.8212C116.548 66.3901 117.1 66.7617 117.668 66.6521C118.237 66.5401 118.609 65.9879 118.497 65.419C113.708 40.8711 94.0185 31.516 72.9165 30.7863C55.132 30.1708 36.3777 35.7227 24.8946 43.3153Z" fill="#2E2E2E"/>
<path fill-rule="evenodd" clip-rule="evenodd" d="M117.064 64.4349C115.161 62.8504 113.317 61.2122 111.29 59.7746C105.89 55.9437 99.4678 53.1069 92.8791 52.2486C92.3023 52.1748 91.7766 52.5811 91.701 53.1546C91.6272 53.7315 92.0336 54.2571 92.6071 54.3326C98.8608 55.1435 104.951 57.8531 110.074 61.4881C112.393 63.1347 114.472 65.0499 116.678 66.8383C116.789 66.9262 117.723 67.7325 117.967 67.8485C118.534 68.1219 118.943 67.8733 119.118 67.7339C119.265 67.6193 119.414 67.4468 119.506 67.1814C119.58 66.9632 119.624 66.5159 119.556 65.9053C119.343 63.9488 118.192 59.4565 118.081 58.6991C116.808 50.0175 117.081 41.727 117.151 32.9915C117.153 32.4116 116.687 31.9363 116.108 31.9313C115.528 31.9262 115.056 32.3937 115.051 32.9728C114.98 41.819 114.715 50.2149 116.004 59.0018C116.079 59.5227 116.651 62.3844 117.064 64.4349Z" fill="#2E2E2E"/>
</svg>
