<svg width="23" height="14" viewBox="0 0 23 14" fill="none" xmlns="http://www.w3.org/2000/svg">
<path d="M0 0H23V14H0V0ZM11.5 3.5C12.5167 3.5 13.4917 3.86875 14.2106 4.52513C14.9295 5.1815 15.3333 6.07174 15.3333 7C15.3333 7.92826 14.9295 8.8185 14.2106 9.47487C13.4917 10.1313 12.5167 10.5 11.5 10.5C10.4833 10.5 9.50831 10.1313 8.78942 9.47487C8.07053 8.8185 7.66667 7.92826 7.66667 7C7.66667 6.07174 8.07053 5.1815 8.78942 4.52513C9.50831 3.86875 10.4833 3.5 11.5 3.5ZM5.11111 2.33333C5.11111 2.95217 4.84187 3.54566 4.36261 3.98325C3.88335 4.42083 3.23333 4.66667 2.55556 4.66667V9.33333C3.23333 9.33333 3.88335 9.57917 4.36261 10.0168C4.84187 10.4543 5.11111 11.0478 5.11111 11.6667H17.8889C17.8889 11.0478 18.1581 10.4543 18.6374 10.0168C19.1167 9.57917 19.7667 9.33333 20.4444 9.33333V4.66667C19.7667 4.66667 19.1167 4.42083 18.6374 3.98325C18.1581 3.54566 17.8889 2.95217 17.8889 2.33333H5.11111Z" fill="#DA2F3E"/>
</svg>
