<svg width="32" height="31" viewBox="0 0 32 31" fill="none" xmlns="http://www.w3.org/2000/svg">
<path d="M31.8988 0.733838C31.831 0.481497 31.6664 0.265986 31.4406 0.134012C31.2148 0.00203826 30.946 -0.0357647 30.6924 0.0287963L26.7142 0.997981C26.5267 1.04189 26.3564 1.14 26.2244 1.28006C26.0924 1.42012 26.0048 1.5959 25.9723 1.78544L25.4681 4.89359L0.946646 7.75745C0.92775 7.75745 0.912832 7.77333 0.891946 7.77731C0.871061 7.78128 0.848186 7.77731 0.824317 7.77731C0.772614 7.79559 0.722681 7.81852 0.675136 7.84582C0.619932 7.86535 0.566661 7.88995 0.516009 7.91931C0.448824 7.9674 0.388005 8.02379 0.335003 8.08713C0.303579 8.11212 0.273689 8.13898 0.245494 8.16756C0.241346 8.17548 0.238014 8.1838 0.235548 8.19239C0.185259 8.27478 0.147392 8.36412 0.123165 8.45752C0.109282 8.48989 0.0973265 8.52305 0.0873616 8.55682C0.0651469 8.68881 0.0698829 8.82392 0.101285 8.95403L1.96307 16.217L3.08392 20.5793L4.07846 24.452C4.08642 24.4799 4.10332 24.5027 4.11327 24.5285C4.12959 24.5745 4.14989 24.6191 4.17394 24.6616C4.20734 24.725 4.24806 24.7843 4.29527 24.8383C4.32411 24.8711 4.35494 24.9039 4.38776 24.9376C4.44709 24.9871 4.51181 25.0297 4.5807 25.0647C4.61477 25.0864 4.65033 25.1057 4.68712 25.1223C4.80195 25.1653 4.92352 25.1875 5.04615 25.1879H25.9544C26.0844 25.192 26.214 25.17 26.3353 25.1232C26.4566 25.0764 26.5673 25.0057 26.6608 24.9154C26.7542 24.825 26.8285 24.7168 26.8793 24.5972C26.93 24.4776 26.9562 24.3491 26.9562 24.2192C26.9562 24.0893 26.93 23.9607 26.8793 23.8411C26.8285 23.7215 26.7542 23.6133 26.6608 23.523C26.5673 23.4326 26.4566 23.3619 26.3353 23.3151C26.214 23.2683 26.0844 23.2463 25.9544 23.2505H5.82488L5.3276 21.3131H23.9643C24.0837 21.3139 24.2023 21.2934 24.3144 21.2525C24.3558 21.2327 24.396 21.2105 24.4348 21.186C24.4974 21.1592 24.5571 21.1259 24.6128 21.0867C24.6483 21.0505 24.6816 21.012 24.7122 20.9715C24.7562 20.9263 24.7968 20.8778 24.8336 20.8265C24.8571 20.7724 24.8767 20.7167 24.8922 20.6597C24.916 20.6104 24.9356 20.5593 24.9509 20.5068V20.4869V20.476L27.8311 2.72186L31.1728 1.90957C31.2985 1.88137 31.4174 1.82834 31.5223 1.7536C31.6272 1.67886 31.7161 1.58393 31.7838 1.47438C31.8514 1.36483 31.8965 1.24288 31.9162 1.11571C31.936 0.988532 31.93 0.858696 31.8988 0.733838ZM4.83033 19.3748L2.30519 9.55083L5.38827 9.19037L6.88904 19.3748H4.83033ZM8.89801 19.3748L7.3694 8.95999L10.4714 8.59754L10.9736 19.3748H8.89801ZM15.0473 19.3748H12.9697L12.4545 8.36517L15.5535 8.00371L15.0473 19.3748ZM19.102 19.3748H17.0403L17.5575 7.76936L20.6406 7.40989L19.102 19.3748ZM23.0931 19.3748H21.11L22.6774 7.17057L24.7988 6.92331L23.0931 19.3748ZM9.02929 27.1203C8.6475 27.1297 8.27696 27.2513 7.96405 27.4699C7.65114 27.6885 7.40976 27.9944 7.27012 28.3493C7.13047 28.7042 7.09877 29.0924 7.17898 29.4652C7.2592 29.838 7.44776 30.1789 7.72106 30.4452C7.99437 30.7116 8.34028 30.8915 8.71551 30.9625C9.09073 31.0335 9.47859 30.9925 9.83056 30.8445C10.1825 30.6965 10.4829 30.4481 10.6942 30.1304C10.9055 29.8128 11.0183 29.44 11.0184 29.0587C11.0103 28.5392 10.7964 28.044 10.4237 27.6815C10.0509 27.319 9.5496 27.1187 9.02929 27.1243V27.1203ZM21.9743 27.1203C21.5925 27.1297 21.2219 27.2513 20.909 27.4699C20.5961 27.6885 20.3547 27.9944 20.2151 28.3493C20.0754 28.7042 20.0437 29.0924 20.1239 29.4652C20.2042 29.838 20.3927 30.1789 20.666 30.4452C20.9393 30.7116 21.2852 30.8915 21.6605 30.9625C22.0357 31.0335 22.4236 30.9925 22.7755 30.8445C23.1275 30.6965 23.4279 30.4481 23.6392 30.1304C23.8505 29.8128 23.9632 29.44 23.9633 29.0587C23.9555 28.5391 23.7417 28.0438 23.3689 27.6813C22.9961 27.3187 22.4946 27.1184 21.9743 27.1243V27.1203Z" fill="black"/>
</svg>
