<svg width="141" height="42" viewBox="0 0 141 42" fill="none" xmlns="http://www.w3.org/2000/svg">
<g clip-path="url(#clip0_1_306)">
<path fill-rule="evenodd" clip-rule="evenodd" d="M87.1501 10.1035L87.1179 16.251L86.5825 15.3504C85.0895 12.8371 82.8639 11.1184 79.975 10.2473C79.017 9.95859 78.6484 9.91526 77.0677 9.90615C74.8926 9.89365 74.0902 10.0685 72.244 10.9568C69.4981 12.2781 67.5307 14.4503 66.5719 17.2178C66.3772 17.7805 66.1933 18.1595 66.1636 18.0599C65.7837 16.795 65.135 15.4225 64.4851 14.5085C64.241 14.1653 63.2321 12.9716 62.2432 11.856L60.4451 9.8275H56.6467C54.5574 9.8275 52.8479 9.85174 52.8479 9.8812C52.8479 9.91078 54.3985 11.7222 56.2931 13.9069C60.4806 18.7343 60.5258 18.8099 60.5258 20.9372C60.5258 22.2592 60.4982 22.4293 60.1734 23.0902C59.3965 24.6731 57.9315 25.7872 56.2476 26.0759C54.022 26.4575 51.7073 25.2583 50.6925 23.1981L50.2888 22.3785L50.2265 16.1342L50.1638 9.88993L47.2552 9.85633L44.3463 9.8229L44.391 16.4722C44.4403 23.8228 44.4202 23.6212 45.295 25.5173C46.7148 28.5958 49.2522 30.7602 52.5361 31.6938C53.372 31.9314 53.8397 31.9782 55.4075 31.98C57.5537 31.9825 58.3934 31.8141 60.0414 31.0502C61.4666 30.3897 62.3752 29.7374 63.4749 28.586C64.7041 27.2987 65.3983 26.1007 66.1335 23.9988C66.2008 23.8072 66.2831 23.932 66.5042 24.5605C67.527 27.465 69.516 29.651 72.3402 30.9738C74.1361 31.8149 74.9344 31.9826 77.1304 31.98C78.6894 31.9782 79.1658 31.9311 79.9754 31.6991C81.0692 31.386 82.4113 30.7447 83.4348 30.0464C84.9746 28.996 86.5937 26.9811 87.257 25.2909C87.5576 24.5249 87.8042 24.2797 87.8042 24.7466C87.8042 25.0598 88.8637 26.9892 89.4634 27.7687C91.0897 29.8817 93.7943 31.4938 96.4187 31.9147C96.865 31.9864 97.7499 32.0453 98.3847 32.0458L99.5395 32.0468V29.9474V27.8481L100.639 28.9176C103.874 32.0665 108.407 32.8943 112.767 31.1326C113.21 30.9537 113.595 30.8295 113.622 30.8567C113.717 30.9515 113.399 32.1705 113.131 32.741C112.79 33.4655 111.775 34.5841 111.098 34.9808C109.958 35.6491 109.655 35.701 106.446 35.7799L103.427 35.854L105.936 38.7092L108.445 41.5644L109.361 41.4814C114.092 41.0527 117.995 37.7272 119.155 33.136C119.374 32.2686 119.425 31.5902 119.48 28.7664L119.546 25.4237L120.108 26.4182C120.581 27.2562 122.087 29.1225 124.275 31.5834L124.696 32.0564L128.534 32.0203L132.372 31.9844L128.931 28.0523C126.721 25.5268 125.359 23.865 125.124 23.4067C123.887 20.9916 124.689 17.9356 126.936 16.5071C127.966 15.8521 128.732 15.6582 130.058 15.7162C131.053 15.7597 131.329 15.8237 132.047 16.1771C133.49 16.8876 134.512 18.1567 134.929 19.7557C135.087 20.3644 135.12 21.4799 135.12 26.2685V32.0468H138.054H140.988L140.987 26.5232C140.986 23.4851 140.929 20.5061 140.86 19.9031C140.333 15.3023 137.062 11.4598 132.602 10.1994C130.558 9.6219 127.851 9.77656 125.737 10.5917C123.858 11.3163 121.799 12.9468 120.644 14.6253C120.301 15.1242 119.52 16.6858 119.179 17.5573C119.072 17.8329 119.025 17.7699 118.654 16.8501C117.309 13.5156 114.393 11.0091 110.817 10.1145C109.552 9.79829 106.784 9.82888 105.521 10.173C101.556 11.2535 98.5854 14.2375 97.5271 18.2024C97.3031 19.042 97.2466 19.5891 97.2454 20.9372C97.2437 22.8516 97.4326 23.7936 98.1185 25.292L98.5402 26.2141L97.7361 26.1495C95.8833 26.0008 94.056 24.6052 93.3237 22.7797C93.1314 22.3003 93.1043 21.3496 93.0478 13.1355L92.9851 4.02303L90.0837 3.98957L87.1827 3.95599L87.1501 10.1035ZM79.2285 16.2246C81.7551 17.4244 82.8969 20.1846 81.9252 22.7443C80.5622 26.3352 75.9722 27.3503 73.281 24.6559C71.2552 22.6278 71.2209 19.5657 73.2003 17.4005C73.831 16.7105 74.9315 16.0363 75.7716 15.8254C76.0382 15.7583 76.7199 15.7233 77.2863 15.7476C78.1489 15.7844 78.4649 15.862 79.2285 16.2246ZM109.608 15.8685C111.14 16.2763 112.362 17.3087 113.062 18.7873C113.434 19.5727 113.46 19.7147 113.46 21.0022C113.46 22.3086 113.439 22.4205 113.045 23.2216C111.761 25.8288 108.651 26.9445 106.066 25.7254C103.474 24.503 102.323 21.22 103.583 18.6445C104.673 16.4172 107.235 15.2368 109.608 15.8685Z" fill="black"/>
<mask id="mask0_1_306" style="mask-type:luminance" maskUnits="userSpaceOnUse" x="0" y="0" width="43" height="42">
<path d="M42.4876 0H0.691895V41.7887H42.4876V0Z" fill="white"/>
</mask>
<g mask="url(#mask0_1_306)">
<path d="M21.6733 41.7887C33.2149 41.7887 42.5712 32.434 42.5712 20.8944C42.5712 9.35473 33.2149 0 21.6733 0C10.1318 0 0.775482 9.35473 0.775482 20.8944C0.775482 32.434 10.1318 41.7887 21.6733 41.7887Z" fill="white"/>
<path d="M6.89969 6.09729C10.1107 2.88497 13.9909 0.8966 18.4653 0.170602C20.1292 -0.0993998 24.2993 -0.0011606 25.9006 0.34561C30.4808 1.33749 34.6616 3.79485 37.5731 7.20624C38.4266 8.20624 39.8176 10.1811 39.7287 10.2665C39.6995 10.2945 39.3158 10.4631 38.876 10.6411C37.1141 11.3541 35.32 12.7306 34.1648 14.2552C33.8447 14.6778 33.3216 15.5651 33.0024 16.2272L32.4221 17.4307L32.1302 16.6784C31.698 15.5639 30.5125 13.8764 29.459 12.8761C25.7699 9.37265 20.0515 8.84172 15.8114 11.6089C13.2618 13.2729 11.595 15.6914 10.8769 18.7683C10.7762 19.1994 10.7083 22.3782 10.6571 29.0462L10.5831 38.7001L9.46084 37.9089C8.00895 36.8855 5.69167 34.5638 4.62049 33.0595C3.01952 30.8113 1.75818 27.9104 1.12913 25.0301C0.887653 23.9248 0.705658 23.454 0.705658 20.9528C0.705658 18.4515 0.887653 17.8559 1.12913 16.7506C1.55528 14.7994 2.0817 13.3038 2.96746 11.5283C4.03576 9.38686 5.15091 7.84686 6.89969 6.09729Z" fill="#DA2F3E"/>
<path fill-rule="evenodd" clip-rule="evenodd" d="M20.5407 15.902C19.2105 16.2601 17.9779 17.1653 17.3432 18.2501C17.2434 18.4206 17.1578 18.5619 17.0843 18.7092C16.6263 19.6269 16.6387 20.7793 16.6387 30.6948V41.2661L17.107 41.3518C19.5903 41.8064 22.3739 41.9288 24.3399 41.6691C33.2874 40.4876 40.3246 33.9568 42.2583 25.0398C42.6393 23.2823 42.6706 18.9205 42.3155 17.0408C42.0847 15.8197 42.082 15.814 41.7576 15.8954C39.928 16.3545 38.347 18.052 37.9916 19.939C37.9178 20.3319 37.865 22.9924 37.865 26.3365V32.0615H34.8684H31.8718V28.9813V25.9012L31.1303 27.0262C29.4579 29.5642 26.8164 31.359 23.9605 31.8976C22.8125 32.1142 20.3969 32.0729 19.292 31.8178L18.6365 31.6663V28.4208C18.6365 26.6358 18.6787 25.1966 18.7301 25.2229C20.404 26.0736 21.4391 26.2991 22.674 26.0824C24.3501 25.7883 25.8938 24.6187 26.6031 23.1055C26.9075 22.456 26.9397 22.2501 26.9397 20.9519C26.9397 19.6537 26.9075 19.4477 26.6031 18.7982C25.5448 16.5406 22.8864 15.2705 20.5407 15.902ZM23.272 19.6573C23.0491 19.4274 22.6529 19.1752 22.3916 19.0969C22.1302 19.0187 21.8386 18.9595 21.7435 18.9654C19.6725 19.094 19.1245 21.8082 20.9862 22.7166C21.922 23.1732 22.8334 22.8896 23.486 21.939C23.7296 21.5839 23.7695 21.3948 23.7276 20.7945C23.6851 20.1882 23.6136 20.0097 23.272 19.6573Z" fill="#DA2F3E"/>
<path d="M22.4811 25.5894C25.0549 25.5894 27.1413 23.5033 27.1413 20.93C27.1413 18.3566 25.0549 16.2705 22.4811 16.2705C19.9073 16.2705 17.8209 18.3566 17.8209 20.93C17.8209 23.5033 19.9073 25.5894 22.4811 25.5894Z" fill="#DA2F3E"/>
<path d="M21.7079 22.9992C22.862 22.9992 23.7977 22.0637 23.7977 20.9097C23.7977 19.7558 22.862 18.8203 21.7079 18.8203C20.5537 18.8203 19.6181 19.7558 19.6181 20.9097C19.6181 22.0637 20.5537 22.9992 21.7079 22.9992Z" fill="white"/>
</g>
</g>
<defs>
<clipPath id="clip0_1_306">
<rect width="140.308" height="41.7887" fill="white" transform="translate(0.691895)"/>
</clipPath>
</defs>
</svg>
