<svg width="141" height="42" viewBox="0 0 141 42" fill="none" xmlns="http://www.w3.org/2000/svg">
<g clip-path="url(#clip0_1_433)">
<path fill-rule="evenodd" clip-rule="evenodd" d="M86.4582 10.1036L86.426 16.2511L85.8906 15.3504C84.3976 12.8371 82.172 11.1184 79.2831 10.2474C78.3251 9.95865 77.9565 9.91532 76.3758 9.90621C74.2007 9.89371 73.3983 10.0686 71.5521 10.9569C68.8062 12.2782 66.8388 14.4503 65.8801 17.2179C65.6853 17.7806 65.5014 18.1596 65.4717 18.0599C65.0918 16.7951 64.4431 15.4226 63.7932 14.5086C63.5491 14.1653 62.5402 12.9717 61.5513 11.856L59.7532 9.82756H55.9548C53.8655 9.82756 52.156 9.8518 52.156 9.88126C52.156 9.91084 53.7066 11.7223 55.6012 13.9069C59.7887 18.7344 59.8339 18.8099 59.8339 20.9372C59.8339 22.2592 59.8063 22.4294 59.4816 23.0903C58.7046 24.6732 57.2396 25.7873 55.5557 26.076C53.3301 26.4576 51.0154 25.2584 50.0006 23.1982L49.5969 22.3786L49.5346 16.1342L49.4719 9.88999L46.5633 9.85639L43.6544 9.82296L43.6991 16.4723C43.7484 23.8229 43.7283 23.6213 44.6031 25.5174C46.0229 28.5959 48.5603 30.7602 51.8442 31.6938C52.6801 31.9315 53.1478 31.9782 54.7156 31.9801C56.8618 31.9826 57.7015 31.8142 59.3495 31.0502C60.7747 30.3898 61.6833 29.7374 62.783 28.586C64.0122 27.2988 64.7064 26.1007 65.4416 23.9989C65.5089 23.8072 65.5912 23.9321 65.8123 24.5606C66.8351 27.4651 68.8241 29.651 71.6483 30.9738C73.4442 31.8149 74.2425 31.9827 76.4385 31.9801C77.9975 31.9782 78.4739 31.9311 79.2835 31.6992C80.3773 31.386 81.7194 30.7448 82.7429 30.0465C84.2827 28.9961 85.9019 26.9811 86.5652 25.2909C86.8657 24.525 87.1123 24.2797 87.1123 24.7467C87.1123 25.0599 88.1718 26.9892 88.7715 27.7688C90.3978 29.8817 93.1024 31.4939 95.7268 31.9148C96.1731 31.9865 97.058 32.0454 97.6928 32.0459L98.8477 32.0469V29.9475V27.8482L99.9469 28.9177C103.182 32.0666 107.715 32.8943 112.075 31.1326C112.518 30.9537 112.903 30.8295 112.93 30.8567C113.025 30.9515 112.707 32.1706 112.439 32.741C112.099 33.4655 111.083 34.5841 110.406 34.9808C109.266 35.6492 108.963 35.7011 105.754 35.7799L102.735 35.8541L105.244 38.7093L107.753 41.5645L108.669 41.4814C113.4 41.0528 117.303 37.7273 118.463 33.1361C118.682 32.2687 118.733 31.5903 118.788 28.7665L118.854 25.4238L119.416 26.4183C119.889 27.2562 121.395 29.1225 123.583 31.5835L124.004 32.0564L127.842 32.0204L131.68 31.9844L128.239 28.0524C126.029 25.5269 124.667 23.865 124.432 23.4068C123.195 20.9916 123.997 17.9356 126.244 16.5072C127.274 15.8521 128.04 15.6583 129.366 15.7163C130.361 15.7598 130.637 15.8238 131.355 16.1771C132.798 16.8877 133.82 18.1568 134.237 19.7557C134.395 20.3645 134.428 21.48 134.428 26.2686V32.0469H137.362H140.296L140.295 26.5232C140.294 23.4852 140.237 20.5062 140.168 19.9032C139.641 15.3024 136.371 11.4598 131.91 10.1994C129.866 9.62196 127.159 9.77662 125.045 10.5918C123.166 11.3164 121.107 12.9469 119.952 14.6253C119.609 15.1242 118.828 16.6858 118.487 17.5574C118.38 17.833 118.333 17.77 117.962 16.8501C116.618 13.5157 113.701 11.0092 110.125 10.1146C108.86 9.79835 106.092 9.82894 104.829 10.1731C100.864 11.2536 97.8935 14.2376 96.8352 18.2025C96.6112 19.0421 96.5547 19.5892 96.5535 20.9372C96.5518 22.8517 96.7407 23.7936 97.4266 25.2921L97.8483 26.2142L97.0442 26.1495C95.1914 26.0008 93.3641 24.6053 92.6318 22.7798C92.4395 22.3003 92.4124 21.3496 92.3559 13.1355L92.2933 4.02309L89.3918 3.98963L86.4908 3.95605L86.4582 10.1036ZM78.5366 16.2246C81.0632 17.4245 82.205 20.1846 81.2333 22.7443C79.8703 26.3352 75.2803 27.3504 72.5891 24.656C70.5633 22.6279 70.529 19.5658 72.5084 17.4006C73.1391 16.7105 74.2396 16.0364 75.0797 15.8254C75.3464 15.7584 76.028 15.7234 76.5944 15.7476C77.457 15.7845 77.773 15.8621 78.5366 16.2246ZM108.916 15.8686C110.448 16.2764 111.67 17.3087 112.37 18.7873C112.742 19.5727 112.768 19.7148 112.768 21.0022C112.768 22.3087 112.747 22.4206 112.353 23.2217C111.069 25.8288 107.959 26.9445 105.374 25.7255C102.782 24.5031 101.631 21.2201 102.891 18.6445C103.981 16.4172 106.543 15.2369 108.916 15.8686Z" fill="white"/>
<mask id="mask0_1_433" style="mask-type:luminance" maskUnits="userSpaceOnUse" x="0" y="0" width="42" height="42">
<path d="M41.7957 0H0V41.7887H41.7957V0Z" fill="white"/>
</mask>
<g mask="url(#mask0_1_433)">
<path d="M20.9814 41.7887C32.523 41.7887 41.8792 32.434 41.8792 20.8944C41.8792 9.35473 32.523 0 20.9814 0C9.43984 0 0.0835571 9.35473 0.0835571 20.8944C0.0835571 32.434 9.43984 41.7887 20.9814 41.7887Z" fill="white"/>
<path d="M6.20776 6.09729C9.4188 2.88497 13.299 0.8966 17.7734 0.170602C19.4373 -0.0993998 23.6073 -0.0011606 25.2087 0.34561C29.7888 1.33749 33.9697 3.79485 36.8812 7.20624C37.7347 8.20624 39.1257 10.1811 39.0368 10.2665C39.0076 10.2945 38.6239 10.4631 38.1841 10.6411C36.4222 11.3541 34.6281 12.7306 33.4728 14.2552C33.1527 14.6778 32.6297 15.5651 32.3105 16.2272L31.7302 17.4307L31.4383 16.6784C31.0061 15.5639 29.8206 13.8764 28.7671 12.8761C25.078 9.37265 19.3596 8.84172 15.1194 11.6089C12.5699 13.2729 10.903 15.6914 10.185 18.7683C10.0843 19.1994 10.0164 22.3782 9.96519 29.0462L9.89118 38.7001L8.76892 37.9089C7.31702 36.8855 4.99974 34.5638 3.92857 33.0595C2.3276 30.8113 1.06625 27.9104 0.437209 25.0301C0.195728 23.9248 0.0137329 23.454 0.0137329 20.9528C0.0137329 18.4515 0.195728 17.8559 0.437209 16.7506C0.863358 14.7994 1.38977 13.3038 2.27553 11.5283C3.34384 9.38686 4.45899 7.84686 6.20776 6.09729Z" fill="#DA2F3E"/>
<path fill-rule="evenodd" clip-rule="evenodd" d="M19.8488 15.902C18.5186 16.2601 17.2859 17.1653 16.6513 18.2501C16.5515 18.4206 16.4659 18.5619 16.3924 18.7092C15.9344 19.6269 15.9468 20.7793 15.9468 30.6948V41.2661L16.415 41.3518C18.8984 41.8064 21.682 41.9288 23.648 41.6691C32.5955 40.4876 39.6326 33.9568 41.5663 25.0398C41.9474 23.2823 41.9787 18.9205 41.6235 17.0408C41.3928 15.8197 41.3901 15.814 41.0656 15.8954C39.2361 16.3545 37.6551 18.052 37.2997 19.939C37.2258 20.3319 37.1731 22.9924 37.1731 26.3365V32.0615H34.1765H31.1798V28.9813V25.9012L30.4384 27.0262C28.766 29.5642 26.1244 31.359 23.2686 31.8976C22.1205 32.1142 19.705 32.0729 18.6001 31.8178L17.9446 31.6663V28.4208C17.9446 26.6358 17.9868 25.1966 18.0382 25.2229C19.7121 26.0736 20.7472 26.2991 21.9821 26.0824C23.6582 25.7883 25.2018 24.6187 25.9112 23.1055C26.2156 22.456 26.2478 22.2501 26.2478 20.9519C26.2478 19.6537 26.2156 19.4477 25.9112 18.7982C24.8529 16.5406 22.1945 15.2705 19.8488 15.902ZM22.58 19.6573C22.3571 19.4274 21.961 19.1752 21.6997 19.0969C21.4383 19.0187 21.1467 18.9595 21.0516 18.9654C18.9805 19.094 18.4325 21.8082 20.2943 22.7166C21.23 23.1732 22.1415 22.8896 22.794 21.939C23.0377 21.5839 23.0776 21.3948 23.0357 20.7945C22.9932 20.1882 22.9216 20.0097 22.58 19.6573Z" fill="#DA2F3E"/>
<path d="M21.7892 25.5894C24.363 25.5894 26.4494 23.5033 26.4494 20.93C26.4494 18.3566 24.363 16.2705 21.7892 16.2705C19.2154 16.2705 17.129 18.3566 17.129 20.93C17.129 23.5033 19.2154 25.5894 21.7892 25.5894Z" fill="#DA2F3E"/>
<path d="M21.0159 22.9992C22.1701 22.9992 23.1057 22.0637 23.1057 20.9097C23.1057 19.7558 22.1701 18.8203 21.0159 18.8203C19.8618 18.8203 18.9261 19.7558 18.9261 20.9097C18.9261 22.0637 19.8618 22.9992 21.0159 22.9992Z" fill="white"/>
</g>
</g>
<defs>
<clipPath id="clip0_1_433">
<rect width="140.308" height="41.7887" fill="white"/>
</clipPath>
</defs>
</svg>
