<svg width="306" height="109" viewBox="0 0 306 109" fill="none" xmlns="http://www.w3.org/2000/svg">
<path d="M304.657 24.73C304.522 25.1847 304.149 25.5613 303.65 25.6676C296.089 27.3274 288.369 28.7137 280.706 29.7915C279.968 29.8971 279.28 29.3814 279.177 28.6366C279.073 27.8918 279.587 27.2104 280.331 27.1068C287.929 26.0375 295.574 24.6644 303.067 23.0197C303.799 22.8629 304.517 23.324 304.682 24.0518C304.733 24.2859 304.721 24.5157 304.657 24.73Z" fill="#010035"/>
<path d="M304.581 25.2234C304.535 25.3793 304.463 25.5274 304.36 25.6594C286.131 49.4191 259.499 67.8364 229.364 77.5269C203.989 85.6855 177.022 87.3682 152.028 82.512C144.204 94.1749 131.446 103.111 116.685 106.835C100.05 111.034 80.9612 108.896 62.927 100.815C27.9959 85.1549 2.99213 48.956 0.709846 10.7372C0.664105 9.98831 1.23693 9.34575 1.98365 9.30636C2.7323 9.26046 3.37458 9.83333 3.41383 10.5803C5.63429 47.8192 29.995 83.0915 64.028 98.3502C81.5075 106.181 99.9686 108.266 116.014 104.218C129.745 100.753 141.643 92.5928 149.141 81.9288C145.442 81.1321 141.787 80.186 138.196 79.0963C123.267 74.5695 112.127 68.4482 104.156 60.3712C94.037 50.1283 89.312 36.2233 91.8174 24.0737C94.665 10.2515 107.936 -0.313747 120.78 1.00536C126.707 1.60929 132.841 4.53033 139.014 9.67546C157.456 25.0533 165.164 51.3552 157.342 72.2302C156.332 74.9344 155.065 77.5549 153.579 80.0538C177.836 84.5846 203.932 82.8618 228.533 74.9536C258.143 65.4324 284.312 47.3369 302.212 24.0167C302.665 23.4231 303.518 23.3094 304.11 23.7682C304.571 24.1175 304.742 24.7058 304.586 25.2319L304.581 25.2234ZM150.749 79.4945C152.37 76.8732 153.732 74.1253 154.799 71.2756C155.15 70.3337 155.468 69.3822 155.754 68.421C161.503 49.0994 154.021 25.7208 137.272 11.7519C131.525 6.95945 125.88 4.2475 120.501 3.7007C108.98 2.52062 97.0632 12.0962 94.4671 24.6218C92.1389 35.8908 96.5913 48.8593 106.08 58.4625C113.735 66.2047 124.495 72.1068 138.984 76.4958C142.841 77.6647 146.77 78.664 150.749 79.4945Z" fill="#010035"/>
<path d="M304.989 46.1577C304.846 46.6383 304.442 47.0202 303.914 47.1103C303.178 47.2308 302.478 46.7327 302.351 45.9951C301.245 39.381 301.315 32.6857 302.554 26.0979C302.642 25.6363 302.739 25.1207 302.628 24.8756C302.323 24.191 302.638 23.3939 303.322 23.0885C304.007 22.7832 304.804 23.0981 305.109 23.7827C305.557 24.7928 305.36 25.8369 305.217 26.6004C304.037 32.8733 303.969 39.2513 305.022 45.5455C305.059 45.7544 305.04 45.9609 304.982 46.1557L304.989 46.1577Z" fill="#010035"/>
</svg>
