<svg width="1728" height="1117" viewBox="0 0 1728 1117" fill="none" xmlns="http://www.w3.org/2000/svg">
<g clip-path="url(#clip0_1_1863)">
<rect width="1728" height="1117" fill="white"/>
<g filter="url(#filter0_f_1_1863)">
<path fill-rule="evenodd" clip-rule="evenodd" d="M785.8 275.153C850.812 293.306 870.444 376.248 923.487 417.99C969.207 453.969 1057.38 445.045 1072.93 501.108C1089.32 560.217 998.111 600.816 991.084 661.751C983.699 725.795 1060.68 788.253 1033.1 846.521C1007.13 901.365 930.376 916.047 869.73 918.076C814.682 919.918 774.066 866.444 719.802 857.004C654.543 845.651 570.823 906.062 525.111 858.124C480.274 811.102 526.723 731.429 539.273 667.681C548.141 622.641 580.985 587.09 587.42 541.639C597.786 468.42 543.735 383.603 587.893 324.286C629.32 268.636 718.979 256.496 785.8 275.153Z" fill="#BBE1FF"/>
</g>
<g filter="url(#filter1_f_1_1863)">
<path fill-rule="evenodd" clip-rule="evenodd" d="M1476.83 462.648C1536.9 445.201 1602.31 470.908 1656.34 502.443C1711.76 534.791 1758.79 582.489 1783.56 641.686C1807.94 699.946 1816.38 768.774 1792.19 827.111C1769.49 881.858 1706.67 904.066 1659.74 940.266C1622.75 968.8 1585.78 992.711 1545.92 1017.08C1490.56 1050.93 1437.86 1140.78 1380.08 1111.25C1316.65 1078.83 1366.7 969.572 1331.66 907.559C1307.2 864.279 1236.29 864.378 1215.13 819.394C1192.47 771.217 1188.99 708.457 1216.56 662.909C1243.91 617.723 1311.93 622.524 1353.79 590.315C1401.6 553.528 1418.9 479.473 1476.83 462.648Z" fill="#CAA9FF"/>
</g>
<g filter="url(#filter2_f_1_1863)">
<path fill-rule="evenodd" clip-rule="evenodd" d="M819.16 205.039C906.982 206.663 986.145 257.931 1042.13 325.617C1093.19 387.355 1099.01 468.581 1103.3 548.584C1107.96 635.384 1121.02 728.414 1067.43 796.856C1009.01 871.468 913.553 919.831 819.16 911.494C729.64 903.588 673.277 821.527 611.182 756.562C551.301 693.913 476.888 635.125 472.281 548.584C467.516 459.1 524.121 380.273 587.791 317.215C651.098 254.516 730.074 203.391 819.16 205.039Z" fill="#A6C0EF"/>
</g>
<g filter="url(#filter3_f_1_1863)">
<path fill-rule="evenodd" clip-rule="evenodd" d="M334.461 68.4994C422.089 61.0783 522.45 45.1505 585.369 106.59C648.57 168.305 637.39 269.438 630.418 357.498C624.149 436.677 604.698 515.409 548.555 571.591C492.393 627.793 413.878 651.264 334.461 653.664C252.167 656.151 168.652 639.529 107.026 584.934C41.8453 527.19 -2.96008 444.521 0.152603 357.498C3.18301 272.775 58.5985 201.213 122.734 145.77C181.819 94.6932 256.638 75.0901 334.461 68.4994Z" fill="#A784FF"/>
</g>
<g filter="url(#filter4_f_1_1863)">
<path fill-rule="evenodd" clip-rule="evenodd" d="M1164.17 -46.2407C1219.7 -39.4961 1274.47 -27.067 1320.5 4.72002C1365.59 35.8538 1395.74 82.0475 1420.64 130.853C1446.5 181.511 1471.59 234.826 1466.85 291.501C1461.99 349.788 1438.77 409.426 1394.22 447.318C1351.54 483.607 1290.83 491.397 1234.87 488.782C1188.39 486.61 1155.11 443.478 1109.55 434.014C1057.61 423.226 994.045 464.785 953.681 430.371C914.694 397.132 929.604 332.768 930.717 281.547C931.679 237.255 952.704 198.342 959.672 154.591C969.962 89.9849 934.689 9.37148 981.365 -36.4675C1025.8 -80.1084 1102.34 -53.7497 1164.17 -46.2407Z" fill="#00FFC2" fill-opacity="0.77"/>
</g>
<g filter="url(#filter5_f_1_1863)">
<path fill-rule="evenodd" clip-rule="evenodd" d="M1559.91 559.219C1562.51 593.888 1538.1 625.32 1537.04 660.07C1536.27 685.253 1550.98 707.991 1554.59 732.924C1558.88 762.52 1568.73 792.942 1560.46 821.682C1552.1 850.758 1534.25 879.738 1508.02 894.814C1481.29 910.173 1441.76 886.119 1416.82 904.234C1378.51 932.062 1379.62 1000.95 1336.12 1019.67C1300.81 1034.87 1264.37 994.352 1226.84 985.994C1182.02 976.009 1121.04 1000.69 1091.83 965.255C1060.97 927.833 1105.36 867.258 1090.8 820.993C1078.29 781.236 1024.61 763.208 1015.46 722.547C1006.51 682.789 1009.38 628.666 1042.03 604.282C1085.24 572.017 1153.68 609.513 1201.12 583.891C1227.51 569.641 1221.57 528.276 1233.63 500.818C1254.52 453.283 1255.82 389.649 1299.08 360.934C1334.57 337.374 1385.65 357.718 1425.14 373.69C1463.57 389.237 1496.99 417.294 1521.36 450.84C1544.08 482.129 1557.02 520.654 1559.91 559.219Z" fill="#C9C2FF"/>
</g>
</g>
<defs>
<filter id="filter0_f_1_1863" x="6" y="-233" width="1568.9" height="1651.12" filterUnits="userSpaceOnUse" color-interpolation-filters="sRGB">
<feFlood flood-opacity="0" result="BackgroundImageFix"/>
<feBlend mode="normal" in="SourceGraphic" in2="BackgroundImageFix" result="shape"/>
<feGaussianBlur stdDeviation="250" result="effect1_foregroundBlur_1_1863"/>
</filter>
<filter id="filter1_f_1_1863" x="697" y="-43" width="1609.64" height="1660.12" filterUnits="userSpaceOnUse" color-interpolation-filters="sRGB">
<feFlood flood-opacity="0" result="BackgroundImageFix"/>
<feBlend mode="normal" in="SourceGraphic" in2="BackgroundImageFix" result="shape"/>
<feGaussianBlur stdDeviation="250" result="effect1_foregroundBlur_1_1863"/>
</filter>
<filter id="filter2_f_1_1863" x="-28" y="-295" width="1636.14" height="1707.43" filterUnits="userSpaceOnUse" color-interpolation-filters="sRGB">
<feFlood flood-opacity="0" result="BackgroundImageFix"/>
<feBlend mode="normal" in="SourceGraphic" in2="BackgroundImageFix" result="shape"/>
<feGaussianBlur stdDeviation="250" result="effect1_foregroundBlur_1_1863"/>
</filter>
<filter id="filter3_f_1_1863" x="-500" y="-439" width="1635.92" height="1592.9" filterUnits="userSpaceOnUse" color-interpolation-filters="sRGB">
<feFlood flood-opacity="0" result="BackgroundImageFix"/>
<feBlend mode="normal" in="SourceGraphic" in2="BackgroundImageFix" result="shape"/>
<feGaussianBlur stdDeviation="250" result="effect1_foregroundBlur_1_1863"/>
</filter>
<filter id="filter4_f_1_1863" x="427" y="-561" width="1540.43" height="1550.24" filterUnits="userSpaceOnUse" color-interpolation-filters="sRGB">
<feFlood flood-opacity="0" result="BackgroundImageFix"/>
<feBlend mode="normal" in="SourceGraphic" in2="BackgroundImageFix" result="shape"/>
<feGaussianBlur stdDeviation="250" result="effect1_foregroundBlur_1_1863"/>
</filter>
<filter id="filter5_f_1_1863" x="511.078" y="-149.783" width="1552.59" height="1672.83" filterUnits="userSpaceOnUse" color-interpolation-filters="sRGB">
<feFlood flood-opacity="0" result="BackgroundImageFix"/>
<feBlend mode="normal" in="SourceGraphic" in2="BackgroundImageFix" result="shape"/>
<feGaussianBlur stdDeviation="250" result="effect1_foregroundBlur_1_1863"/>
</filter>
<clipPath id="clip0_1_1863">
<rect width="1728" height="1117" fill="white"/>
</clipPath>
</defs>
</svg>
