<svg width="1728" height="1117" viewBox="0 0 1728 1117" fill="none" xmlns="http://www.w3.org/2000/svg">
<g clip-path="url(#clip0_1_1870)">
<rect width="1728" height="1117" fill="white"/>
<g filter="url(#filter0_f_1_1870)">
<path fill-rule="evenodd" clip-rule="evenodd" d="M345.8 490.153C410.812 508.306 430.444 591.248 483.487 632.99C529.207 668.969 617.382 660.045 632.929 716.108C649.32 775.217 558.111 815.816 551.084 876.751C543.699 940.795 620.684 1003.25 593.098 1061.52C567.133 1116.36 490.376 1131.05 429.73 1133.08C374.682 1134.92 334.066 1081.44 279.802 1072C214.543 1060.65 130.823 1121.06 85.1112 1073.12C40.274 1026.1 86.7229 946.429 99.2735 882.681C108.141 837.641 140.985 802.09 147.42 756.639C157.786 683.42 103.735 598.603 147.893 539.286C189.32 483.636 278.979 471.496 345.8 490.153Z" fill="#FFD3D3"/>
</g>
<g filter="url(#filter1_f_1_1870)">
<path fill-rule="evenodd" clip-rule="evenodd" d="M1397.83 563.648C1457.9 546.201 1523.31 571.908 1577.34 603.443C1632.76 635.791 1679.79 683.489 1704.56 742.686C1728.94 800.946 1737.38 869.774 1713.19 928.111C1690.49 982.858 1627.67 1005.07 1580.74 1041.27C1543.75 1069.8 1506.78 1093.71 1466.92 1118.08C1411.56 1151.93 1358.86 1241.78 1301.08 1212.25C1237.65 1179.83 1287.7 1070.57 1252.66 1008.56C1228.2 965.279 1157.29 965.378 1136.13 920.394C1113.47 872.217 1109.99 809.457 1137.56 763.909C1164.91 718.723 1232.93 723.524 1274.79 691.315C1322.6 654.528 1339.9 580.473 1397.83 563.648Z" fill="#C1505E"/>
</g>
<g filter="url(#filter2_f_1_1870)">
<path fill-rule="evenodd" clip-rule="evenodd" d="M381.375 -25.9655C477.6 -24.5169 564.337 21.2124 625.676 81.586C681.624 136.654 687.995 209.105 692.703 280.465C697.81 357.888 712.116 440.867 653.402 501.916C589.395 568.467 484.8 611.605 381.375 604.169C283.291 597.117 221.535 523.921 153.499 465.974C87.8881 410.094 6.35591 357.657 1.30751 280.465C-3.91256 200.649 58.1081 130.337 127.869 74.092C197.234 18.1668 283.766 -27.4349 381.375 -25.9655Z" fill="#FF8CF4"/>
</g>
<g filter="url(#filter3_f_1_1870)">
<path fill-rule="evenodd" clip-rule="evenodd" d="M1381.32 533.992C1497.21 524.104 1629.94 502.882 1713.15 584.746C1796.73 666.977 1781.95 801.729 1772.73 919.063C1764.44 1024.56 1738.71 1129.47 1664.46 1204.33C1590.19 1279.21 1486.35 1310.49 1381.32 1313.68C1272.49 1317 1162.04 1294.85 1080.54 1222.11C994.34 1145.17 935.085 1035.02 939.202 919.063C943.21 806.175 1016.5 710.824 1101.31 636.95C1179.45 568.894 1278.4 542.774 1381.32 533.992Z" fill="#92C4FF"/>
</g>
<g filter="url(#filter4_f_1_1870)">
<path fill-rule="evenodd" clip-rule="evenodd" d="M1355.17 -11.2407C1410.7 -4.49611 1465.47 7.93302 1511.5 39.72C1556.59 70.8538 1586.74 117.047 1611.64 165.853C1637.5 216.511 1662.59 269.826 1657.85 326.501C1652.99 384.788 1629.77 444.426 1585.22 482.318C1542.54 518.607 1481.83 526.397 1425.87 523.782C1379.39 521.61 1346.11 478.478 1300.55 469.014C1248.61 458.226 1185.05 499.785 1144.68 465.371C1105.69 432.132 1120.6 367.768 1121.72 316.547C1122.68 272.255 1143.7 233.342 1150.67 189.591C1160.96 124.985 1125.69 44.3715 1172.36 -1.46749C1216.8 -45.1084 1293.34 -18.7497 1355.17 -11.2407Z" fill="#5158FF"/>
</g>
<g filter="url(#filter5_f_1_1870)">
<path fill-rule="evenodd" clip-rule="evenodd" d="M893.548 30.0784C923.526 47.6866 935.464 85.6475 963.423 106.312C983.683 121.287 1010.75 122.146 1033.3 133.375C1060.07 146.704 1090.69 155.933 1109.61 179.096C1128.74 202.531 1142.4 233.708 1139.85 263.857C1137.26 294.57 1094.97 313.369 1095.66 344.185C1096.71 391.524 1153.97 429.844 1144.59 476.256C1136.97 513.938 1082.91 520.819 1054.67 546.903C1020.94 578.064 1006.5 642.242 960.731 646.077C912.398 650.127 887.886 579.142 841.566 564.76C801.762 552.401 756.369 586.263 717.735 570.628C679.959 555.34 637.106 522.155 635.658 481.429C633.742 427.54 703.539 392.639 709.5 339.046C712.815 309.239 675.429 290.567 659.729 265.013C632.549 220.775 580.984 183.466 582.015 131.555C582.861 88.9659 628.674 58.5631 664.293 35.1995C698.963 12.4584 741.053 0.972093 782.505 0.0461341C821.169 -0.817536 860.201 10.4916 893.548 30.0784Z" fill="#79AEFF"/>
</g>
</g>
<defs>
<filter id="filter0_f_1_1870" x="-434" y="-18" width="1568.9" height="1651.12" filterUnits="userSpaceOnUse" color-interpolation-filters="sRGB">
<feFlood flood-opacity="0" result="BackgroundImageFix"/>
<feBlend mode="normal" in="SourceGraphic" in2="BackgroundImageFix" result="shape"/>
<feGaussianBlur stdDeviation="250" result="effect1_foregroundBlur_1_1870"/>
</filter>
<filter id="filter1_f_1_1870" x="618" y="58" width="1609.64" height="1660.12" filterUnits="userSpaceOnUse" color-interpolation-filters="sRGB">
<feFlood flood-opacity="0" result="BackgroundImageFix"/>
<feBlend mode="normal" in="SourceGraphic" in2="BackgroundImageFix" result="shape"/>
<feGaussianBlur stdDeviation="250" result="effect1_foregroundBlur_1_1870"/>
</filter>
<filter id="filter2_f_1_1870" x="-499" y="-526" width="1697" height="1631" filterUnits="userSpaceOnUse" color-interpolation-filters="sRGB">
<feFlood flood-opacity="0" result="BackgroundImageFix"/>
<feBlend mode="normal" in="SourceGraphic" in2="BackgroundImageFix" result="shape"/>
<feGaussianBlur stdDeviation="250" result="effect1_foregroundBlur_1_1870"/>
</filter>
<filter id="filter3_f_1_1870" x="439" y="24" width="1841" height="1790" filterUnits="userSpaceOnUse" color-interpolation-filters="sRGB">
<feFlood flood-opacity="0" result="BackgroundImageFix"/>
<feBlend mode="normal" in="SourceGraphic" in2="BackgroundImageFix" result="shape"/>
<feGaussianBlur stdDeviation="250" result="effect1_foregroundBlur_1_1870"/>
</filter>
<filter id="filter4_f_1_1870" x="618" y="-526" width="1540.43" height="1550.24" filterUnits="userSpaceOnUse" color-interpolation-filters="sRGB">
<feFlood flood-opacity="0" result="BackgroundImageFix"/>
<feBlend mode="normal" in="SourceGraphic" in2="BackgroundImageFix" result="shape"/>
<feGaussianBlur stdDeviation="250" result="effect1_foregroundBlur_1_1870"/>
</filter>
<filter id="filter5_f_1_1870" x="82" y="-500" width="1563.63" height="1646.24" filterUnits="userSpaceOnUse" color-interpolation-filters="sRGB">
<feFlood flood-opacity="0" result="BackgroundImageFix"/>
<feBlend mode="normal" in="SourceGraphic" in2="BackgroundImageFix" result="shape"/>
<feGaussianBlur stdDeviation="250" result="effect1_foregroundBlur_1_1870"/>
</filter>
<clipPath id="clip0_1_1870">
<rect width="1728" height="1117" fill="white"/>
</clipPath>
</defs>
</svg>
