<svg width="1728" height="1117" viewBox="0 0 1728 1117" fill="none" xmlns="http://www.w3.org/2000/svg">
<g filter="url(#blur)">
  <path fill-rule="evenodd" clip-rule="evenodd" d="M901 304c65 18 84 101 137 143 46 36 134 27 150 83 16 59-75 100-82 161-7 64 70 126 42 185-26 54-103 69-163 71-55 2-96-52-150-61-65-11-149 49-195 1-45-47 2-127 14-190 9-45 42-81 48-126 11-74-43-158 1-218 41-55 131-68 198-49Z" fill="#669FFF">
    <animate 
      attributeName="d"
      values="
      M901 304c65 18 84 101 137 143 46 36 134 27 150 83 16 59-75 100-82 161-7 64 70 126 42 185-26 54-103 69-163 71-55 2-96-52-150-61-65-11-149 49-195 1-45-47 2-127 14-190 9-45 42-81 48-126 11-74-43-158 1-218 41-55 131-68 198-49Z;

      M786 275c65 18 84 101 137 143 46 36 134 27 150 83 16 59-75 100-82 161-7 64 70 126 42 185-26 54-103 69-163 71-55 2-96-52-150-61-65-11-149 49-195 1-45-47 2-127 14-190 9-45 42-81 48-126 11-74-43-158 1-218 41-55 131-68 198-49Z;

      M346 490c65 18 84 101 137 143 46 36 134 27 150 83 16 59-75 100-82 161-7 64 70 126 42 185-26 54-103 69-163 71-55 2-96-52-150-61-65-11-149 49-195 1-45-47 2-127 14-190 9-45 42-81 48-126 11-74-43-158 1-218 41-55 131-68 198-49Z;

      M901 304c65 18 84 101 137 143 46 36 134 27 150 83 16 59-75 100-82 161-7 64 70 126 42 185-26 54-103 69-163 71-55 2-96-52-150-61-65-11-149 49-195 1-45-47 2-127 14-190 9-45 42-81 48-126 11-74-43-158 1-218 41-55 131-68 198-49Z
      "
      dur="6s"
      repeatCount="indefinite"
    />
    <animate 
      attributeName="fill"
      values="#669FFF; #BBE1FF; #FFD3D3; #669FFF"
      dur="6s" 
      repeatCount="indefinite"
    />
  </path>
  <path fill-rule="evenodd" clip-rule="evenodd" d="M1165-23c60-18 125 8 179 39 56 33 103 80 128 140 24 58 32 127 8 185-23 55-85 77-132 113-37 29-74 53-114 77-55 34-108 124-166 94-63-32-13-141-48-203-25-44-96-44-117-89-23-48-26-111 2-156 27-45 95-40 137-73 48-36 65-111 123-127Z" fill="#95C6FF">
    <animate 
      attributeName="d"
      values="
      M1165-23c60-18 125 8 179 39 56 33 103 80 128 140 24 58 32 127 8 185-23 55-85 77-132 113-37 29-74 53-114 77-55 34-108 124-166 94-63-32-13-141-48-203-25-44-96-44-117-89-23-48-26-111 2-156 27-45 95-40 137-73 48-36 65-111 123-127Z;

      M1477 463c60-18 125 8 179 39 56 33 103 80 128 140 24 58 32 127 8 185-23 55-85 77-132 113-37 29-74 53-114 77-55 34-108 124-166 94-63-32-13-141-48-203-25-44-96-44-117-89-23-48-26-111 2-156 27-45 95-40 137-73 48-36 65-111 123-127Z;

      M1398 564c60-18 125 8 179 39 56 33 103 80 128 140 24 58 32 127 8 185-23 55-85 77-132 113-37 29-74 53-114 77-55 34-108 124-166 94-63-32-13-141-48-203-25-44-96-44-117-89-23-48-26-111 2-156 27-45 95-40 137-73 48-36 65-111 123-127Z;

      M1165-23c60-18 125 8 179 39 56 33 103 80 128 140 24 58 32 127 8 185-23 55-85 77-132 113-37 29-74 53-114 77-55 34-108 124-166 94-63-32-13-141-48-203-25-44-96-44-117-89-23-48-26-111 2-156 27-45 95-40 137-73 48-36 65-111 123-127Z
      "
      dur="6s"
      repeatCount="indefinite"
    />
    <animate 
      attributeName="fill"
      values="#95C6FF; #CAA9FF; #C1505E; #95C6FF"
      dur="6s" 
      repeatCount="indefinite"
    />
  </path>
  <path fill-rule="evenodd" clip-rule="evenodd" d="M312 381c88 2 167 53 223 121 51 61 57 143 61 223 5 86 18 179-36 248a293 293 0 0 1-248 114c-89-7-146-89-208-154C44 870-30 811-35 725c-4-90 52-169 116-232 63-62 142-114 231-112Z" fill="#8247FF">
    <animate 
      attributeName="d"
      values="
      M312 381c88 2 167 53 223 121 51 61 57 143 61 223 5 86 18 179-36 248a293 293 0 0 1-248 114c-89-7-146-89-208-154C44 870-30 811-35 725c-4-90 52-169 116-232 63-62 142-114 231-112Z;

      M819 205c88 2 167 53 223 121 51 61 57 143 61 223 5 86 18 179-36 248a293 293 0 0 1-248 114c-89-7-146-89-208-154-60-63-134-122-139-208-4-90 52-169 116-232 63-62 142-114 231-112Z;

      M381-26c97 1 183 47 245 108 56 55 62 127 67 198 5 78 19 161-40 222a354 354 0 0 1-272 102c-98-7-159-80-228-138C88 410 6 358 1 280c-5-79 57-150 127-206C197 18 284-27 381-26Z;

      M312 381c88 2 167 53 223 121 51 61 57 143 61 223 5 86 18 179-36 248a293 293 0 0 1-248 114c-89-7-146-89-208-154C44 870-30 811-35 725c-4-90 52-169 116-232 63-62 142-114 231-112Z
      "
      dur="6s"
      repeatCount="indefinite"
    />
    <animate 
      attributeName="fill"
      values="#8247FF; #A6C0EF; #FF8CF4; #8247FF"
      dur="6s" 
      repeatCount="indefinite"
    />
  </path>
  <path fill-rule="evenodd" clip-rule="evenodd" d="M732 7c88-7 188-23 251 39 64 61 52 162 45 250-6 80-25 158-81 215-57 56-135 79-215 82-82 2-165-14-227-69a297 297 0 0 1-107-228c3-84 59-156 123-211 59-51 134-71 211-78Z" fill="#8DD6FF">
    <animate 
      attributeName="d"
      values="
      M732 7c88-7 188-23 251 39 64 61 52 162 45 250-6 80-25 158-81 215-57 56-135 79-215 82-82 2-165-14-227-69a297 297 0 0 1-107-228c3-84 59-156 123-211 59-51 134-71 211-78Z;

      M334 68c88-7 188-23 251 39 64 61 52 162 45 250-6 80-25 158-81 215-57 56-135 79-215 82-82 2-165-14-227-69A297 297 0 0 1 0 357c3-84 59-156 123-211 59-51 134-71 211-78Z;

      M880 531c88-7 188-23 251 39 64 61 52 162 45 250-6 80-25 158-81 215-57 56-135 79-215 82-82 2-165-14-227-69a297 297 0 0 1-107-228c3-84 59-156 123-211 59-51 134-71 211-78Z;

      M732 7c88-7 188-23 251 39 64 61 52 162 45 250-6 80-25 158-81 215-57 56-135 79-215 82-82 2-165-14-227-69a297 297 0 0 1-107-228c3-84 59-156 123-211 59-51 134-71 211-78Z
      "
      dur="6s"
      repeatCount="indefinite"
    />
    <animate 
      attributeName="fill"
      values="#8DD6FF; #A784FF; #92C4FF; #8DD6FF"
      dur="6s" 
      repeatCount="indefinite"
    />
  </path>
  <path fill-rule="evenodd" clip-rule="evenodd" d="M452-14c56 7 110 19 157 51 45 31 75 77 100 126 25 51 51 104 46 161-5 58-28 117-73 155-42 37-103 44-159 42-47-2-80-46-125-55-52-11-116 31-156-4-39-33-24-97-23-148 1-45 22-84 29-127 10-65-25-146 21-191 45-44 121-18 183-10Z" fill="#FF79F3">
    <animate 
      attributeName="d"
      values="
      M452-14c56 7 110 19 157 51 45 31 75 77 100 126 25 51 51 104 46 161-5 58-28 117-73 155-42 37-103 44-159 42-47-2-80-46-125-55-52-11-116 31-156-4-39-33-24-97-23-148 1-45 22-84 29-127 10-65-25-146 21-191 45-44 121-18 183-10Z;

      M1164-46c56 7 110 19 157 51 45 31 75 77 100 126 26 51 51 104 46 161-5 58-28 117-73 155-42 37-103 44-159 42-47-2-80-46-125-55-52-11-116 31-156-4-39-33-24-97-23-148 1-45 22-84 29-127 10-65-25-146 21-191 45-44 121-18 183-10Z;

      M1355-11c56 7 110 19 157 51 45 31 75 77 100 126 26 51 51 104 46 161-5 58-28 117-73 155-42 37-103 44-159 42-47-2-80-46-125-55-52-11-116 31-156-4-39-33-24-97-23-148 1-45 22-84 29-127 10-65-25-146 21-191 45-44 121-18 183-10Z;

      M452-14c56 7 110 19 157 51 45 31 75 77 100 126 25 51 51 104 46 161-5 58-28 117-73 155-42 37-103 44-159 42-47-2-80-46-125-55-52-11-116 31-156-4-39-33-24-97-23-148 1-45 22-84 29-127 10-65-25-146 21-191 45-44 121-18 183-10Z
      "
      dur="6s"
      repeatCount="indefinite"
    />
    <animate 
      attributeName="fill"
      values="#FF79F3; #00FFC2; #5158FF; #FF79F3"
      dur="6s" 
      repeatCount="indefinite"
    />
  </path>
  <path fill-rule="evenodd" clip-rule="evenodd" d="M1735 162c30 18 41 56 69 76 21 15 48 16 70 27 27 14 58 23 77 46 19 24 32 55 30 85-3 31-45 49-44 80 1 48 58 86 49 132-8 38-62 45-90 71-34 31-48 95-94 99-49 4-73-67-119-81-40-13-86 21-124 6-38-16-81-49-82-90-2-53 68-88 74-142 3-30-35-48-50-74-27-44-79-82-78-133 1-43 47-73 82-97 35-23 77-34 119-35 38-1 77 10 111 30Z" fill="#A3A2FF">
    <animate 
      attributeName="d"
      values="
      M1735 162c30 18 41 56 69 76 21 15 48 16 70 27 27 14 58 23 77 46 19 24 32 55 30 85-3 31-45 49-44 80 1 48 58 86 49 132-8 38-62 45-90 71-34 31-48 95-94 99-49 4-73-67-119-81-40-13-86 21-124 6-38-16-81-49-82-90-2-53 68-88 74-142 3-30-35-48-50-74-27-44-79-82-78-133 1-43 47-73 82-97 35-23 77-34 119-35 38-1 77 10 111 30Z;

      M1560 559c3 35-22 66-23 101-1 25 14 48 18 73 4 30 14 60 5 89-8 29-26 58-52 73-27 15-66-9-91 9-38 28-37 97-81 116-35 15-72-26-109-34-45-10-106 15-135-21-31-37 13-98-1-144-13-40-66-58-76-98-8-40-6-94 27-119 43-32 112 6 159-20 27-14 21-56 33-83 21-48 22-111 65-140 36-24 87-3 126 13 39 15 72 43 96 77 23 31 36 70 39 108Z;

      M894 30c30 18 41 56 69 76 21 15 48 16 70 27 27 14 58 23 77 46 19 24 32 55 30 85-3 31-45 49-44 80 1 48 58 86 49 132-8 38-62 45-90 71-34 31-48 95-94 99-49 4-73-67-119-81-40-13-86 21-124 6-38-16-81-49-82-90-2-53 68-88 74-142 3-30-35-48-50-74-27-44-79-82-78-133 1-43 47-73 82-97 35-23 77-34 119-35 38-1 77 10 111 30Z;

      M1735 162c30 18 41 56 69 76 21 15 48 16 70 27 27 14 58 23 77 46 19 24 32 55 30 85-3 31-45 49-44 80 1 48 58 86 49 132-8 38-62 45-90 71-34 31-48 95-94 99-49 4-73-67-119-81-40-13-86 21-124 6-38-16-81-49-82-90-2-53 68-88 74-142 3-30-35-48-50-74-27-44-79-82-78-133 1-43 47-73 82-97 35-23 77-34 119-35 38-1 77 10 111 30Z
      "
      dur="6s"
      repeatCount="indefinite"
    />
    <animate 
      attributeName="fill"
      values="#A3A2FF; #C9C2FF; #79AEFF; #A3A2FF"
      dur="6s" 
      repeatCount="indefinite"
    />
  </path>
</g>
<defs>
  <filter id="blur" filterUnits="userSpaceOnUse" color-interpolation-filters="sRGB">
    <feGaussianBlur stdDeviation="250"/>
  </filter>
</defs>
</svg>
