<svg xmlns="http://www.w3.org/2000/svg" width="1728" height="1117" fill="none">
  <g clip-path="url(#a)">
    <path fill="#fff" d="M0 0h1728v1117H0z"/>
    <g filter="url(#b)">
      <path fill="#669FFF" fill-rule="evenodd" d="M901 304c65 18 84 101 137 143 46 36 134 27 150 83 16 59-75 100-82 161-7 64 70 126 42 185-26 54-103 69-163 71-55 2-96-52-150-61-65-11-149 49-195 1-45-47 2-127 14-190 9-45 42-81 48-126 11-74-43-158 1-218 41-55 131-68 198-49Z" clip-rule="evenodd"/>
    </g>
    <g filter="url(#c)">
      <path fill="#95C6FF" fill-rule="evenodd" d="M1165-23c60-18 125 8 179 39 56 33 103 80 128 140 24 58 32 127 8 185-23 55-85 77-132 113-37 29-74 53-114 77-55 34-108 124-166 94-63-32-13-141-48-203-25-44-96-44-117-89-23-48-26-111 2-156 27-45 95-40 137-73 48-36 65-111 123-127Z" clip-rule="evenodd"/>
    </g>
    <g filter="url(#d)">
      <path fill="#8247FF" fill-rule="evenodd" d="M312 381c88 2 167 53 223 121 51 61 57 143 61 223 5 86 18 179-36 248a293 293 0 0 1-248 114c-89-7-146-89-208-154C44 870-30 811-35 725c-4-90 52-169 116-232 63-62 142-114 231-112Z" clip-rule="evenodd"/>
    </g>
    <g filter="url(#e)">
      <path fill="#8DD6FF" fill-rule="evenodd" d="M732 7c88-7 188-23 251 39 64 61 52 162 45 250-6 80-25 158-81 215-57 56-135 79-215 82-82 2-165-14-227-69a297 297 0 0 1-107-228c3-84 59-156 123-211 59-51 134-71 211-78Z" clip-rule="evenodd"/>
    </g>
    <g filter="url(#f)">
      <path fill="#FF79F3" fill-rule="evenodd" d="M452-14c56 7 110 19 157 51 45 31 75 77 100 126 25 51 51 104 46 161-5 58-28 117-73 155-42 37-103 44-159 42-47-2-80-46-125-55-52-11-116 31-156-4-39-33-24-97-23-148 1-45 22-84 29-127 10-65-25-146 21-191 45-44 121-18 183-10Z" clip-rule="evenodd"/>
    </g>
    <g filter="url(#g)">
      <path fill="#A3A2FF" fill-rule="evenodd" d="M1735 162c30 18 41 56 69 76 21 15 48 16 70 27 27 14 58 23 77 46 19 24 32 55 30 85-3 31-45 49-44 80 1 48 58 86 49 132-8 38-62 45-90 71-34 31-48 95-94 99-49 4-73-67-119-81-40-13-86 21-124 6-38-16-81-49-82-90-2-53 68-88 74-142 3-30-35-48-50-74-27-44-79-82-78-133 1-43 47-73 82-97 35-23 77-34 119-35 38-1 77 10 111 30Z" clip-rule="evenodd"/>
    </g>
  </g>
  <defs>
    <filter id="b" width="1568.9" height="1651.1" x="121" y="-204" color-interpolation-filters="sRGB" filterUnits="userSpaceOnUse">
      <feFlood flood-opacity="0" result="BackgroundImageFix"/>
      <feBlend in="SourceGraphic" in2="BackgroundImageFix" result="shape"/>
      <feGaussianBlur result="effect1_foregroundBlur_1_1856" stdDeviation="250"/>
    </filter>
    <filter id="c" width="1609.6" height="1660.1" x="385" y="-529" color-interpolation-filters="sRGB" filterUnits="userSpaceOnUse">
      <feFlood flood-opacity="0" result="BackgroundImageFix"/>
      <feBlend in="SourceGraphic" in2="BackgroundImageFix" result="shape"/>
      <feGaussianBlur result="effect1_foregroundBlur_1_1856" stdDeviation="250"/>
    </filter>
    <filter id="d" width="1636.1" height="1707.4" x="-535" y="-119" color-interpolation-filters="sRGB" filterUnits="userSpaceOnUse">
      <feFlood flood-opacity="0" result="BackgroundImageFix"/>
      <feBlend in="SourceGraphic" in2="BackgroundImageFix" result="shape"/>
      <feGaussianBlur result="effect1_foregroundBlur_1_1856" stdDeviation="250"/>
    </filter>
    <filter id="e" width="1635.9" height="1592.9" x="-102" y="-500" color-interpolation-filters="sRGB" filterUnits="userSpaceOnUse">
      <feFlood flood-opacity="0" result="BackgroundImageFix"/>
      <feBlend in="SourceGraphic" in2="BackgroundImageFix" result="shape"/>
      <feGaussianBlur result="effect1_foregroundBlur_1_1856" stdDeviation="250"/>
    </filter>
    <filter id="f" width="1540.4" height="1550.2" x="-285" y="-529" color-interpolation-filters="sRGB" filterUnits="userSpaceOnUse">
      <feFlood flood-opacity="0" result="BackgroundImageFix"/>
      <feBlend in="SourceGraphic" in2="BackgroundImageFix" result="shape"/>
      <feGaussianBlur result="effect1_foregroundBlur_1_1856" stdDeviation="250"/>
    </filter>
    <filter id="g" width="1563.6" height="1646.2" x="923" y="-368" color-interpolation-filters="sRGB" filterUnits="userSpaceOnUse">
      <feFlood flood-opacity="0" result="BackgroundImageFix"/>
      <feBlend in="SourceGraphic" in2="BackgroundImageFix" result="shape"/>
      <feGaussianBlur result="effect1_foregroundBlur_1_1856" stdDeviation="250"/>
    </filter>
    <clipPath id="a">
      <path fill="#fff" d="M0 0h1728v1117H0z"/>
    </clipPath>
  </defs>
</svg>