<svg width="17" height="17" viewBox="0 0 17 17" fill="none" xmlns="http://www.w3.org/2000/svg">
<path d="M16.375 12.3675V15.4615C16.3751 15.683 16.2912 15.8964 16.1401 16.0584C15.9891 16.2205 15.7822 16.3192 15.5612 16.3348C15.1789 16.361 14.8665 16.375 14.625 16.375C6.89262 16.375 0.625 10.1074 0.625 2.375C0.625 2.1335 0.638125 1.82113 0.66525 1.43875C0.680757 1.21776 0.779509 1.01088 0.941578 0.859858C1.10365 0.708831 1.31697 0.6249 1.5385 0.625H4.6325C4.74103 0.62489 4.84573 0.665127 4.92626 0.737893C5.00679 0.810659 5.0574 0.91076 5.06825 1.01875C5.08838 1.22 5.10675 1.38013 5.12425 1.50175C5.29814 2.71531 5.6545 3.8956 6.18125 5.00263C6.26438 5.17763 6.21012 5.38675 6.05263 5.49875L4.16438 6.848C5.3189 9.53815 7.46273 11.682 10.1529 12.8365L11.5004 10.9517C11.5555 10.8747 11.6358 10.8195 11.7274 10.7957C11.8191 10.7719 11.9161 10.781 12.0018 10.8214C13.1086 11.3472 14.2886 11.7027 15.5018 11.8757C15.6234 11.8932 15.7835 11.9116 15.983 11.9318C16.0908 11.9428 16.1907 11.9935 16.2633 12.074C16.3359 12.1545 16.3751 12.2591 16.375 12.3675Z" fill="white"/>
</svg>
