<svg width="20" height="22" viewBox="0 0 20 22" fill="none" xmlns="http://www.w3.org/2000/svg">
<path fill-rule="evenodd" clip-rule="evenodd" d="M2.0294 7.87739C2.37304 3.70845 5.85683 0.5 10.0399 0.5H10.4719C14.6549 0.5 18.1387 3.70845 18.4824 7.87739C18.6674 10.122 17.974 12.3508 16.5484 14.0943L11.7553 19.9561C10.9804 20.9039 9.53142 20.9039 8.75645 19.9561L3.96338 14.0943C2.53773 12.3508 1.84438 10.122 2.0294 7.87739ZM10.2559 4.25C7.63251 4.25 5.50586 6.37665 5.50586 9C5.50586 11.6234 7.63251 13.75 10.2559 13.75C12.8792 13.75 15.0059 11.6234 15.0059 9C15.0059 6.37665 12.8792 4.25 10.2559 4.25Z" fill="#DA2F3E"/>
</svg>
