<svg width="20" height="20" viewBox="0 0 20 20" fill="none" xmlns="http://www.w3.org/2000/svg">
<path d="M8.70703 1.96043C8.2653 1.51163 7.73909 1.15471 7.15874 0.91026C6.5784 0.665812 5.9554 0.538672 5.32568 0.53617C4.69596 0.533669 4.07197 0.655856 3.48971 0.895686C2.90744 1.13552 2.37841 1.48824 1.93312 1.93353C1.48784 2.37881 1.13511 2.90784 0.895283 3.49011C0.655453 4.07238 0.533266 4.69636 0.535767 5.32608C0.538267 5.9558 0.665407 6.5788 0.909855 7.15915C1.1543 7.73949 1.51122 8.2657 1.96003 8.70743L4.99003 11.7374L6.40503 10.3244L3.37503 7.29343C2.8552 6.77387 2.56306 6.0691 2.56288 5.33414C2.56269 4.59918 2.85447 3.89426 3.37403 3.37443C3.89359 2.85461 4.59837 2.56247 5.33332 2.56228C6.06828 2.56209 6.77321 2.85387 7.29303 3.37343L10.324 6.40443L11.738 4.99043L8.70803 1.96043H8.70703ZM6.58703 8.00043L12.002 13.4144L13.416 12.0004L8.00203 6.58643L6.58703 8.00043ZM13.597 9.67643L16.627 12.7074C17.1469 13.2273 17.4389 13.9323 17.4389 14.6674C17.4389 15.4026 17.1469 16.1076 16.627 16.6274C16.1072 17.1473 15.4022 17.4393 14.667 17.4393C13.9319 17.4393 13.2269 17.1473 12.707 16.6274L9.67703 13.5964L8.26303 15.0104L11.293 18.0404C12.1877 18.9353 13.4013 19.438 14.6667 19.4381C15.9321 19.4382 17.1457 18.9356 18.0405 18.0409C18.9354 17.1462 19.4381 15.9327 19.4382 14.6673C19.4383 13.4019 18.9357 12.1883 18.041 11.2934L15.011 8.26343L13.596 9.67643H13.597Z" fill="#DA2F3E"/>
</svg>
