<svg width="37" height="36" viewBox="0 0 37 36" fill="none" xmlns="http://www.w3.org/2000/svg">
<path fill-rule="evenodd" clip-rule="evenodd" d="M8.55797 34.028C8.69069 33.0262 9.71271 31.3494 8.87078 30.7818C5.32506 28.392 1.30002 25.237 1.48987 20.5119C1.5665 18.5967 2.12872 16.2276 3.49629 14.8002C4.42182 13.8346 6.1447 13.6539 7.03993 14.8154C7.98601 16.0438 7.19842 18.0194 7.10645 19.3926C7.03818 20.4175 7.33914 21.3075 8.48343 21.4529C8.83037 21.4972 9.18673 21.4849 9.53367 21.4445C10.0126 21.3889 10.4703 21.2515 10.8835 21.0021C12.2587 20.1713 13.001 17.9407 13.0414 16.4259C13.0669 15.4624 12.7182 14.4727 11.7195 14.1732C10.1676 13.7082 8.61823 15.6225 7.14581 14.7519C6.90232 14.6079 6.68008 14.424 6.51253 14.1956C5.36825 12.6363 6.70727 10.9912 7.99158 10.0717C9.224 9.18903 10.8284 8.39383 12.3747 8.34339C15.8285 8.23147 17.8798 11.7056 18.3386 14.6924C18.5873 11.7865 17.5963 8.87296 17.3838 5.99018C17.2904 4.72031 17.156 3.26813 17.7886 2.10016C18.3403 1.08212 19.4553 0.81536 20.4164 1.53459C21.4081 2.27661 22.024 3.53847 22.4503 4.66118C23.7211 8.00652 23.8848 11.646 23.1076 15.0974C24.1014 12.7414 25.0646 10.366 26.0337 7.99963C26.483 6.90352 26.8425 5.58949 27.5963 4.94523C28.6406 4.0519 29.9849 4.36381 30.6826 5.53661C31.289 6.55603 31.3273 7.75864 31.2019 8.90795C30.9504 11.2163 29.9406 13.4198 28.8559 15.4462C27.6503 17.6989 26.3684 19.9572 24.6205 21.8343C26.1033 20.6391 27.5148 19.4227 28.8785 18.0931C30.1702 16.8336 31.7008 14.4296 33.5786 13.9539C34.9605 13.604 35.6032 14.7602 35.6335 16.0415C35.6722 17.6668 34.5697 19.2048 33.5574 20.3879C31.5067 22.7853 29.0747 24.8555 26.4402 26.5973C25.5523 27.1845 24.6393 27.7345 23.7047 28.2457C23.2947 28.4699 22.5677 28.6797 22.2518 29.0141C21.8895 29.3975 21.7491 30.1285 21.5924 30.6097C21.1866 31.8537 20.7811 33.1367 20.5495 34.4262" fill="white"/>
<path d="M8.55797 34.028C8.69069 33.0262 9.71271 31.3494 8.87078 30.7818C5.32506 28.392 1.30002 25.237 1.48987 20.5119C1.5665 18.5967 2.12872 16.2276 3.49629 14.8002C4.42182 13.8346 6.1447 13.6539 7.03993 14.8154C7.98601 16.0438 7.19842 18.0194 7.10646 19.3926C7.03818 20.4175 7.33914 21.3075 8.48343 21.453C8.83037 21.4972 9.18673 21.4849 9.53367 21.4445C10.0126 21.3889 10.4703 21.2515 10.8835 21.0021C12.2587 20.1713 13.001 17.9407 13.0414 16.4259C13.0669 15.4624 12.7182 14.4727 11.7195 14.1732C10.1676 13.7082 8.61823 15.6225 7.14581 14.7519C6.90232 14.6079 6.68008 14.424 6.51253 14.1956C5.36825 12.6363 6.70727 10.9912 7.99158 10.0717C9.224 9.18903 10.8284 8.39383 12.3747 8.34339C15.8285 8.23147 17.8798 11.7056 18.3386 14.6924C18.5873 11.7865 17.5963 8.87296 17.3838 5.99018C17.2904 4.72031 17.156 3.26813 17.7886 2.10016C18.3403 1.08212 19.4553 0.815359 20.4164 1.53459C21.4081 2.27661 22.024 3.53847 22.4503 4.66118C23.7211 8.00652 23.8848 11.646 23.1076 15.0974C24.1014 12.7414 25.0646 10.366 26.0337 7.99963C26.483 6.90352 26.8425 5.58949 27.5963 4.94523C28.6406 4.0519 29.9849 4.36381 30.6826 5.53661C31.289 6.55603 31.3273 7.75864 31.2019 8.90795C30.9504 11.2163 29.9406 13.4198 28.8559 15.4462C27.6503 17.6989 26.3684 19.9572 24.6205 21.8343C26.1033 20.6391 27.5148 19.4227 28.8785 18.0931C30.1702 16.8336 31.7008 14.4296 33.5786 13.9539C34.9605 13.604 35.6032 14.7602 35.6335 16.0415C35.6722 17.6668 34.5697 19.2048 33.5574 20.3879C31.5067 22.7853 29.0747 24.8555 26.4402 26.5973C25.5523 27.1845 24.6393 27.7345 23.7047 28.2457C23.2947 28.4699 22.5677 28.6797 22.2518 29.0141C21.8895 29.3975 21.7491 30.1285 21.5924 30.6097C21.1866 31.8537 20.7811 33.1367 20.5495 34.4262" stroke="black" stroke-width="2.13444" stroke-miterlimit="1.5" stroke-linecap="round" stroke-linejoin="round"/>
</svg>
