<svg width="390" height="146" viewBox="0 0 390 146" fill="none" xmlns="http://www.w3.org/2000/svg">
<path d="M131.351 104.919C131.351 129.286 114.201 146 70.4173 146C19.168 146 0 125.057 0 89.211H32.4848C32.4848 110.759 43.1785 117.606 71.4261 117.606C92.2083 117.606 99.0684 112.974 99.0684 105.321C99.0684 95.051 81.7163 90.4193 60.9341 83.371C30.8706 73.3021 6.4566 65.2469 6.4566 37.4565C6.4566 13.291 25.6246 0 62.3465 0C105.929 0 125.5 22.1517 125.5 50.3448H93.2171C93.2171 33.0262 79.9004 28.3945 62.3465 28.3945C47.8192 28.3945 38.9414 31.6166 38.9414 38.6648C38.9414 45.109 42.1697 47.5255 64.9695 55.1779C91.1994 64.0386 131.351 75.3159 131.351 104.919Z" fill="#212121"/>
<path d="M243.166 143.986H141.475V2.01379H243.166V30.4083H173.959V58.8028H233.078V86.9959H173.959V115.592H243.166V143.986Z" fill="#212121"/>
<path d="M244.928 72.8993C244.928 31.6166 272.369 0 317.565 0C362.559 0 390 31.6166 390 72.8993C390 114.383 362.559 146 317.565 146C272.369 146 244.928 114.383 244.928 72.8993ZM277.413 72.8993C277.413 100.287 290.73 117.606 317.565 117.606C344.4 117.606 357.717 100.287 357.717 72.8993C357.717 45.7131 344.4 28.3945 317.565 28.3945C290.73 28.3945 277.413 45.7131 277.413 72.8993Z" fill="#212121"/>
</svg>
