<svg width="351" height="304" viewBox="0 0 351 304" fill="none" xmlns="http://www.w3.org/2000/svg">
<path d="M108.15 116.645L120.889 104.08L118.229 98.9137C118.229 98.913 118.23 98.9124 118.23 98.9124C118.467 98.3974 118.685 97.8793 118.89 97.353C118.89 97.3524 118.89 97.3524 118.891 97.3517L124.446 95.6566L124.57 77.7638L119.035 75.9911C118.838 75.4622 118.63 74.9378 118.399 74.4196L121.13 69.2914L108.567 56.5514L103.402 59.2109C103.402 59.2109 103.401 59.2109 103.401 59.2102C102.886 58.9729 102.366 58.7571 101.839 58.552L100.144 52.9933L82.2529 52.8696L80.4804 58.405C79.9497 58.5993 79.4291 58.8108 78.9117 59.0405C78.911 59.0405 78.9104 59.0411 78.9098 59.0411L73.7814 56.3104L61.0436 68.8761L63.704 74.0435C63.4673 74.5572 63.249 75.0791 63.0446 75.6042L57.4859 77.2999L57.3622 95.1927L62.8956 96.9655C63.0931 97.4943 63.302 98.0188 63.5317 98.5369C63.5317 98.5375 63.5323 98.5375 63.5323 98.5382L60.8025 103.665L73.3656 116.405L78.5299 113.746C79.0448 113.983 79.5654 114.199 80.0917 114.404C80.0923 114.404 80.0923 114.404 80.0929 114.404L81.7885 119.963L99.6793 120.087L101.452 114.551C101.979 114.354 102.503 114.143 103.02 113.914L108.15 116.645ZM100.317 95.9576C95.0772 101.126 86.6474 101.068 81.4837 95.8308C76.32 90.594 76.3781 82.1638 81.6181 76.9958C86.8537 71.8315 95.2836 71.8896 100.448 77.1264C105.611 82.362 105.553 90.7928 100.317 95.9576Z" fill="#FFBCE4"/>
<path d="M59.7708 149.927L68.1357 141.676L66.389 138.283C66.389 138.282 66.3897 138.282 66.3897 138.282C66.5455 137.944 66.6888 137.603 66.8238 137.258V137.258L70.4717 136.144L70.5532 124.395L66.9191 123.231C66.7897 122.884 66.6528 122.539 66.5013 122.199L68.2947 118.832L60.0441 110.465L56.6523 112.211C56.3141 112.055 55.9714 111.914 55.6263 111.779L54.5131 108.129L42.7647 108.047L41.6005 111.682C41.2515 111.81 40.9102 111.949 40.5707 112.1C40.57 112.1 40.57 112.1 40.5694 112.1L37.2016 110.307L28.8368 118.558L30.5834 121.951C30.4276 122.289 30.285 122.631 30.1506 122.976L26.5007 124.09L26.4193 135.84L30.0527 137.003C30.1827 137.35 30.3197 137.694 30.4705 138.035L28.6777 141.403L36.9278 149.768L40.3189 148.022C40.6571 148.178 40.9991 148.32 41.3443 148.454L42.4581 152.105L54.2065 152.186L55.3707 148.55C55.7171 148.421 56.061 148.283 56.4005 148.132L59.7708 149.927ZM54.6267 136.341C51.1864 139.735 45.6504 139.697 42.2593 136.258C38.8682 132.819 38.9067 127.283 42.3476 123.889C45.7861 120.498 51.3214 120.536 54.7125 123.975C58.1037 127.414 58.0652 132.95 54.6267 136.341Z" fill="#FFC1C7"/>
<path d="M307.773 209.831H122.288C120.174 209.831 118.445 208.101 118.445 205.987V66.714C118.445 64.5998 120.175 62.8706 122.288 62.8706H307.772C309.886 62.8706 311.615 64.6004 311.615 66.714V205.987C311.615 208.101 309.886 209.831 307.773 209.831Z" fill="#FFB3C5"/>
<path d="M307.773 210.462H122.288C119.821 210.462 117.814 208.454 117.814 205.987V66.7142C117.814 64.2466 119.821 62.2397 122.288 62.2397H307.773C310.239 62.2397 312.247 64.2473 312.247 66.7142V205.987C312.247 208.454 310.239 210.462 307.773 210.462ZM122.288 63.5019C120.517 63.5019 119.076 64.9434 119.076 66.7142V205.987C119.076 207.759 120.517 209.2 122.288 209.2H307.773C309.544 209.2 310.985 207.759 310.985 205.987V66.7142C310.985 64.9427 309.544 63.5019 307.773 63.5019H122.288Z" fill="#FFB3C5"/>
<path d="M118.445 72.8086V205.987C118.445 208.101 120.175 209.83 122.288 209.83H307.772C309.886 209.83 311.615 208.1 311.615 205.987V72.8086H118.445Z" fill="white"/>
<path d="M310.906 77.9199H119.154V204.72H310.906V77.9199Z" fill="white"/>
<path d="M304.122 193.118H125.938C125.903 193.118 125.875 193.089 125.875 193.054V86.1419C125.875 86.1065 125.903 86.0781 125.938 86.0781H304.122C304.157 86.0781 304.186 86.1065 304.186 86.1419V193.054C304.186 193.089 304.157 193.118 304.122 193.118ZM126.002 192.99H304.058V86.2056H126.002V192.99Z" fill="#E6E6E6"/>
<path d="M126.877 70.1679C125.609 70.1679 124.577 69.1361 124.577 67.8676C124.577 66.5997 125.609 65.5679 126.877 65.5679C128.145 65.5679 129.177 66.5997 129.177 67.8676C129.177 69.1367 128.145 70.1679 126.877 70.1679ZM126.877 66.0791C125.891 66.0791 125.089 66.8818 125.089 67.8682C125.089 68.8546 125.891 69.6574 126.877 69.6574C127.864 69.6574 128.666 68.8546 128.666 67.8682C128.666 66.8818 127.863 66.0791 126.877 66.0791Z" fill="white"/>
<path d="M134.12 70.1679C132.853 70.1679 131.821 69.1361 131.821 67.8676C131.821 66.5997 132.853 65.5679 134.12 65.5679C135.388 65.5679 136.42 66.5997 136.42 67.8676C136.42 69.1367 135.388 70.1679 134.12 70.1679ZM134.12 66.0791C133.134 66.0791 132.331 66.8818 132.331 67.8682C132.331 68.8546 133.133 69.6574 134.12 69.6574C135.107 69.6574 135.909 68.8546 135.909 67.8682C135.909 66.8818 135.107 66.0791 134.12 66.0791Z" fill="white"/>
<path d="M141.363 70.1679C140.096 70.1679 139.064 69.1361 139.064 67.8676C139.064 66.5997 140.096 65.5679 141.363 65.5679C142.632 65.5679 143.663 66.5997 143.663 67.8676C143.663 69.1367 142.631 70.1679 141.363 70.1679ZM141.363 66.0791C140.377 66.0791 139.574 66.8818 139.574 67.8682C139.574 68.8546 140.376 69.6574 141.363 69.6574C142.35 69.6574 143.152 68.8546 143.152 67.8682C143.152 66.8818 142.35 66.0791 141.363 66.0791Z" fill="white"/>
<path d="M311.616 72.5532H118.445V73.0644H311.616V72.5532Z" fill="#FFB3C5"/>
<path d="M206.044 180.59H294.411V90.5142L206.044 90.5142V180.59Z" fill="white"/>
<path d="M130.31 119.816L188.654 119.816V90.514H130.31V119.816Z" fill="white"/>
<path d="M130.31 204.72H188.654V130.777H130.31V204.72Z" fill="white"/>
<path d="M282.94 87.2993H56.5483C53.2114 87.2993 50.4772 90.0269 50.4772 93.3641V244.484C50.4772 247.821 53.2114 250.549 56.5483 250.549H282.94C286.27 250.549 289.004 247.821 289.004 244.484V93.3641C289.004 90.0275 286.27 87.2993 282.94 87.2993Z" fill="#FF4773"/>
<path opacity="0.3" d="M282.94 87.2993H56.5483C53.2114 87.2993 50.4772 90.0269 50.4772 93.3641V244.484C50.4772 247.821 53.2114 250.549 56.5483 250.549H282.94C286.27 250.549 289.004 247.821 289.004 244.484V93.3641C289.004 90.0275 286.27 87.2993 282.94 87.2993Z" fill="white" fill-opacity="0.44"/>
<path d="M95.5601 97.4225H63.511C62.2931 97.4225 61.3024 96.4317 61.3024 95.2137C61.3024 93.9957 62.2931 93.0049 63.511 93.0049H95.5601C96.7779 93.0049 97.7686 93.9957 97.7686 95.2137C97.7686 96.4311 96.7779 97.4225 95.5601 97.4225ZM63.511 93.636C62.6414 93.636 61.9334 94.3441 61.9334 95.2137C61.9334 96.0834 62.6414 96.7915 63.511 96.7915H95.5601C96.4302 96.7915 97.1376 96.0834 97.1376 95.2137C97.1376 94.3441 96.4302 93.636 95.5601 93.636H63.511Z" fill="white" fill-opacity="0.44"/>
<path d="M105.957 97.4225H103.818C102.6 97.4225 101.61 96.4317 101.61 95.2137C101.61 93.9957 102.6 93.0049 103.818 93.0049H105.957C107.175 93.0049 108.165 93.9957 108.165 95.2137C108.165 96.4311 107.175 97.4225 105.957 97.4225ZM103.818 93.636C102.948 93.636 102.241 94.3441 102.241 95.2137C102.241 96.0834 102.948 96.7915 103.818 96.7915H105.957C106.826 96.7915 107.534 96.0834 107.534 95.2137C107.534 94.3441 106.826 93.636 105.957 93.636H103.818Z" fill="white" fill-opacity="0.44"/>
<path d="M114.9 97.4225H112.762C111.544 97.4225 110.553 96.4317 110.553 95.2137C110.553 93.9957 111.544 93.0049 112.762 93.0049H114.9C116.118 93.0049 117.109 93.9957 117.109 95.2137C117.109 96.4311 116.118 97.4225 114.9 97.4225ZM112.762 93.636C111.892 93.636 111.184 94.3441 111.184 95.2137C111.184 96.0834 111.892 96.7915 112.762 96.7915H114.9C115.77 96.7915 116.478 96.0834 116.478 95.2137C116.478 94.3441 115.77 93.636 114.9 93.636H112.762Z" fill="white" fill-opacity="0.44"/>
<path d="M50.4772 102.988V244.484C50.4772 247.822 53.2114 250.549 56.5483 250.549H282.94C286.27 250.549 289.004 247.822 289.004 244.484V102.988H50.4772Z" fill="#FF4773"/>
<path opacity="0.6" d="M50.4772 102.988V244.484C50.4772 247.822 53.2114 250.549 56.5483 250.549H282.94C286.27 250.549 289.004 247.822 289.004 244.484V102.988H50.4772Z" fill="white" fill-opacity="0.44"/>
<path d="M51.5985 102.988V239.04C51.5985 240.941 53.1401 242.483 55.042 242.483H284.44C286.341 242.483 287.883 240.941 287.883 239.04V102.988H51.5985Z" fill="white" fill-opacity="0.65"/>
<path d="M62.4944 110.997V136.262H224.613V110.997H62.4944Z" fill="#FF4773"/>
<path opacity="0.9" d="M62.4944 110.997V136.262H224.613V110.997H62.4944Z" fill="white"/>
<path d="M223.982 143.56V210.583H63.1254V143.56H223.982ZM224.613 142.929H62.4944V211.214H224.613V142.929Z" fill="#FFE9EE"/>
<path opacity="0.9" d="M223.982 143.56V210.583H63.1254V143.56H223.982ZM224.613 142.929H62.4944V211.214H224.613V142.929Z" fill="white" fill-opacity="0.44"/>
<path d="M268.274 283.03H263.513L262.247 272.005H267.007L268.274 283.03Z" fill="#FFB992"/>
<path d="M297.147 283.03H292.386L288.678 272.005H293.438L297.147 283.03Z" fill="#FFB992"/>
<path d="M291.752 282.479H297.555C297.75 282.479 297.919 282.614 297.96 282.804L298.901 287.036C298.998 287.475 298.653 287.891 298.203 287.883C296.336 287.851 294.974 287.742 292.621 287.742C291.174 287.742 288.193 287.892 286.195 287.892C284.241 287.892 283.936 285.916 284.754 285.737C288.422 284.934 289.803 283.828 290.977 282.772C291.191 282.581 291.466 282.479 291.752 282.479Z" fill="#263238"/>
<path d="M263.547 282.479H268.746C268.94 282.479 269.109 282.614 269.151 282.804L270.091 287.036C270.189 287.475 269.856 287.891 269.406 287.883C267.531 287.852 264.821 287.741 262.464 287.741C259.708 287.741 257.327 287.891 254.095 287.891C252.141 287.891 251.598 285.915 252.417 285.736C256.141 284.921 259.181 284.834 262.399 282.849C262.75 282.634 263.136 282.479 263.547 282.479Z" fill="#263238"/>
<path d="M271.005 164.896C270.532 168.584 270.013 172.288 269.463 175.972L267.813 187.181C267.563 188.573 266.983 189.906 266.216 190.989C265.45 192.078 264.542 192.943 263.613 193.658C261.738 195.071 259.766 195.92 257.822 196.587C255.87 197.235 253.919 197.666 251.97 197.963C250.995 198.11 250.019 198.212 249.044 198.295C248.06 198.379 247.116 198.429 246.079 198.428L245.756 194.868C247.452 194.477 249.252 194.022 250.936 193.463C252.636 192.92 254.292 192.3 255.821 191.565C257.346 190.839 258.755 189.971 259.788 189.011C260.299 188.533 260.705 188.034 260.968 187.556C261.226 187.072 261.361 186.631 261.403 186.172L261.586 183.517C261.65 182.571 261.738 181.631 261.82 180.69C261.987 178.809 262.172 176.933 262.381 175.061C262.791 171.316 263.278 167.596 263.862 163.868L271.005 164.896Z" fill="#FFB992"/>
<path d="M272.573 162.507C274.177 166.767 270.335 181.044 270.335 181.044L259.759 175.755C259.759 175.755 260.258 168.636 262.676 163.165C265.12 157.635 270.813 157.833 272.573 162.507Z" fill="#FF4773"/>
<path opacity="0.3" d="M272.573 162.507C274.177 166.767 270.335 181.044 270.335 181.044L259.759 175.755C259.759 175.755 260.258 168.636 262.676 163.165C265.12 157.635 270.813 157.833 272.573 162.507Z" fill="black"/>
<path d="M248.287 194.413L243.093 194.758L245.519 200.334C245.519 200.334 248.852 200.332 249.796 196.996L248.287 194.413Z" fill="#FFB992"/>
<path d="M238.406 196.948L241.285 200.852L245.519 200.334L243.093 194.758L238.406 196.948Z" fill="#FFB992"/>
<path d="M262.248 272.008L262.983 278.408L267.712 278.123L267.01 272.008H262.248Z" fill="#EA7063"/>
<path d="M293.44 272.008H288.678L291.165 279.393L295.593 278.399L293.44 272.008Z" fill="#EA7063"/>
<path d="M266.921 159.25C266.921 159.25 261.302 173.627 266.639 200.401C274.311 200.401 288.367 200.401 292.101 200.401C292.276 196.492 289.82 177.423 293.59 159.004C293.59 159.004 289.226 158.128 285.066 157.927C281.812 157.77 277.102 157.667 274.242 157.928C270.472 158.272 266.921 159.25 266.921 159.25Z" fill="#FF4773"/>
<path opacity="0.3" d="M266.921 159.25C266.921 159.25 261.302 173.627 266.639 200.401C274.311 200.401 288.367 200.401 292.101 200.401C292.276 196.492 289.82 177.423 293.59 159.004C293.59 159.004 289.226 158.128 285.066 157.927C281.812 157.77 277.102 157.667 274.242 157.928C270.472 158.272 266.921 159.25 266.921 159.25Z" fill="black"/>
<path d="M276.221 172.701C275.883 175.899 274.125 178.334 272.296 178.141C270.467 177.947 269.259 175.197 269.598 172C269.936 168.802 271.694 166.366 273.523 166.56C275.352 166.754 276.56 169.504 276.221 172.701Z" fill="#FF4773"/>
<path opacity="0.1" d="M276.221 172.701C275.883 175.899 274.125 178.334 272.296 178.141C270.467 177.947 269.259 175.197 269.598 172C269.936 168.802 271.694 166.366 273.523 166.56C275.352 166.754 276.56 169.504 276.221 172.701Z" fill="white"/>
<path d="M288.401 167.806C289.231 163.604 290.852 164.33 292.387 166.401C291.655 172.328 291.452 178.104 291.479 183.195C290.433 181.41 287.009 174.85 288.401 167.806Z" fill="#FF4773"/>
<path opacity="0.4" d="M288.401 167.806C289.231 163.604 290.852 164.33 292.387 166.401C291.655 172.328 291.452 178.104 291.479 183.195C290.433 181.41 287.009 174.85 288.401 167.806Z" fill="black"/>
<path d="M283.994 145.738C283.312 149.221 282.63 155.603 285.067 157.927C285.067 157.927 284.114 161.46 277.643 161.46C270.528 161.46 274.243 157.927 274.243 157.927C278.126 157 278.026 154.118 277.349 151.412L283.994 145.738Z" fill="#FFB992"/>
<path d="M281.285 148.054L277.353 151.409C277.515 152.05 277.641 152.699 277.687 153.331C279.17 153.116 281.208 151.487 281.366 149.934C281.444 149.159 281.412 148.415 281.285 148.054Z" fill="#EA7063"/>
<path d="M274.081 132.701C271.462 134.735 271.481 142.875 275.451 143.044C279.421 143.214 279.042 128.849 274.081 132.701Z" fill="#263238"/>
<path d="M285.003 141.624C283.622 146.142 283.042 148.857 280.162 150.655C275.828 153.36 270.672 149.902 270.676 145.061C270.68 140.704 272.939 134.047 277.865 133.299C282.719 132.562 286.385 137.105 285.003 141.624Z" fill="#FFB992"/>
<path d="M283.606 146.041C280.945 146.456 279.497 132.777 285.832 135.809C294.835 140.117 287.906 145.368 283.606 146.041Z" fill="#263238"/>
<path d="M283.854 137.064C280.584 136.782 275.845 136.922 274.817 132.875C273.382 127.23 280.125 126.402 281.793 130.718C285.807 129.397 296.858 136.286 289.496 139.784L283.854 137.064Z" fill="#263238"/>
<path d="M285.862 147.175C284.958 148.073 283.724 148.471 282.677 148.451C281.103 148.42 280.767 146.903 281.582 145.654C282.316 144.528 284.019 143.189 285.417 143.824C286.795 144.45 286.895 146.148 285.862 147.175Z" fill="#FFB992"/>
<path d="M266.639 200.4C266.639 200.4 248.075 226.129 248.593 240.648C249.131 255.749 261.114 276.59 261.114 276.59L268.857 274.813C268.857 274.813 261.156 256.632 261.514 241.801C261.905 225.632 283.376 212.874 283.376 200.4C275.503 200.4 266.639 200.4 266.639 200.4Z" fill="#263238"/>
<path d="M275.671 200.401C275.671 200.401 266.212 226.917 269.177 240.548C272.425 255.475 288.713 277.53 288.713 277.53L296.51 275.384C296.51 275.384 285.961 256.407 284.107 241.628C282.096 225.588 292.101 212.329 292.101 200.4C282.35 200.401 275.671 200.401 275.671 200.401Z" fill="#263238"/>
<path d="M287.553 278.608L298.76 276.528L298.2 273.512L285.637 275.64L287.553 278.608Z" fill="#FF4773"/>
<path opacity="0.4" d="M287.553 278.608L298.76 276.528L298.2 273.512L285.637 275.64L287.553 278.608Z" fill="white"/>
<path d="M259.498 277.265L270.841 276.145L270.536 273.056L257.841 274.145L259.498 277.265Z" fill="#FF4773"/>
<path opacity="0.4" d="M259.498 277.265L270.841 276.145L270.536 273.056L257.841 274.145L259.498 277.265Z" fill="white"/>
<path d="M277.74 141.236C277.651 141.61 277.38 141.865 277.136 141.806C276.892 141.747 276.767 141.397 276.857 141.024C276.946 140.65 277.217 140.396 277.461 140.454C277.705 140.512 277.83 140.863 277.74 141.236Z" fill="#263238"/>
<path d="M273.52 140.223C273.43 140.597 273.16 140.852 272.916 140.793C272.673 140.734 272.547 140.384 272.637 140.011C272.726 139.637 272.997 139.382 273.24 139.441C273.485 139.5 273.61 139.849 273.52 140.223Z" fill="#263238"/>
<path d="M274.817 140.731C274.817 140.731 273.452 142.682 272.267 143.497C272.78 144.272 273.971 144.26 273.971 144.26L274.817 140.731Z" fill="#FF5652"/>
<path d="M275.656 145.654C275.395 145.654 275.113 145.624 274.81 145.551C274.75 145.537 274.713 145.476 274.727 145.416C274.742 145.355 274.799 145.316 274.863 145.332C276.502 145.726 277.542 144.765 277.552 144.755C277.598 144.713 277.669 144.714 277.712 144.759C277.754 144.805 277.752 144.876 277.708 144.919C277.67 144.954 276.914 145.654 275.656 145.654Z" fill="#263238"/>
<path d="M279.391 140.187C279.304 140.187 279.221 140.136 279.185 140.052C278.782 139.13 277.964 138.984 277.956 138.982C277.833 138.962 277.75 138.846 277.771 138.723C277.791 138.6 277.909 138.518 278.03 138.538C278.074 138.545 279.098 138.728 279.597 139.871C279.647 139.985 279.596 140.118 279.481 140.168C279.452 140.18 279.421 140.187 279.391 140.187Z" fill="#263238"/>
<path d="M272.073 138.336C272.023 138.336 271.972 138.319 271.93 138.285C271.834 138.206 271.819 138.064 271.898 137.967C272.691 137.003 273.729 137.106 273.77 137.111C273.894 137.124 273.984 137.236 273.97 137.359C273.956 137.483 273.842 137.57 273.722 137.559C273.682 137.556 272.876 137.487 272.247 138.254C272.202 138.309 272.138 138.336 272.073 138.336Z" fill="#263238"/>
<path d="M210.027 229.598L192.943 231.634L193.018 232.26L210.102 230.224L210.027 229.598Z" fill="#FF4773"/>
<path d="M223.143 228.032L216.109 228.877L216.185 229.503L223.218 228.658L223.143 228.032Z" fill="#FF4773"/>
<path d="M320.605 187.671L169.106 205.737L172.298 232.512L323.798 214.446L320.605 187.671Z" fill="#FF4773"/>
<path d="M298.232 197.679L228.636 205.978L230.102 218.278L299.699 209.979L298.232 197.679Z" fill="#FFD9E2"/>
<path opacity="0.2" d="M298.232 197.679L228.636 205.978L230.102 218.278L299.699 209.979L298.232 197.679Z" fill="white"/>
<path d="M194.855 216.237C195.369 220.544 192.294 224.452 187.988 224.965C183.682 225.479 179.774 222.403 179.261 218.096C178.747 213.789 181.822 209.881 186.129 209.368C190.434 208.854 194.342 211.93 194.855 216.237Z" fill="#FFD9E2"/>
<path opacity="0.2" d="M194.855 216.237C195.369 220.544 192.294 224.452 187.988 224.965C183.682 225.479 179.774 222.403 179.261 218.096C178.747 213.789 181.822 209.881 186.129 209.368C190.434 208.854 194.342 211.93 194.855 216.237Z" fill="white"/>
<path d="M215.493 219.299C218.136 215.86 217.491 210.929 214.052 208.286C210.613 205.643 205.683 206.288 203.041 209.727C200.398 213.166 201.043 218.097 204.481 220.74C207.92 223.383 212.85 222.738 215.493 219.299Z" fill="#FFD9E2"/>
<path opacity="0.2" d="M215.493 219.299C218.136 215.86 217.491 210.929 214.052 208.286C210.613 205.643 205.683 206.288 203.041 209.727C200.398 213.166 201.043 218.097 204.481 220.74C207.92 223.383 212.85 222.738 215.493 219.299Z" fill="white"/>
<path d="M295.406 162.708C295.818 163.591 296.159 164.375 296.491 165.216C296.824 166.043 297.142 166.874 297.451 167.709C298.054 169.385 298.603 171.084 299.078 172.815C299.568 174.54 299.959 176.311 300.282 178.111L300.507 179.469L300.674 180.852C300.735 181.309 300.762 181.785 300.795 182.254L300.844 182.959L300.856 183.135L300.867 183.428C300.875 183.653 300.863 183.849 300.85 184.051C300.706 185.611 300.245 186.643 299.789 187.606C299.321 188.555 298.807 189.38 298.277 190.169C297.209 191.734 296.051 193.12 294.86 194.451C292.463 197.103 289.915 199.463 287.163 201.693L284.65 199.151C286.712 196.523 288.764 193.803 290.627 191.101C291.555 189.748 292.428 188.373 293.155 187.025C293.516 186.354 293.84 185.684 294.065 185.069C294.291 184.471 294.416 183.863 294.38 183.708C294.374 183.697 294.375 183.679 294.367 183.691C294.363 183.678 294.37 183.728 294.36 183.663L294.338 183.521L294.25 182.95C294.191 182.57 294.143 182.193 294.056 181.807L293.826 180.655L293.559 179.496C293.175 177.949 292.738 176.398 292.237 174.848C291.732 173.302 291.199 171.754 290.624 170.218C290.341 169.448 290.05 168.681 289.746 167.921L288.84 165.699L295.406 162.708Z" fill="#FFB992"/>
<path d="M294.584 159.318C298.832 160.953 301.879 176.49 301.879 176.49L291.764 180.476C291.764 180.476 288.372 172.667 287.235 166.895C286.038 160.817 289.765 157.463 294.584 159.318Z" fill="#FF4773"/>
<path opacity="0.3" d="M294.584 159.318C298.832 160.953 301.879 176.49 301.879 176.49L291.764 180.476C291.764 180.476 288.372 172.667 287.235 166.895C286.038 160.817 289.765 157.463 294.584 159.318Z" fill="black"/>
<path d="M290.177 283.311C289.815 283.311 289.476 283.249 289.26 283.068C289.089 282.924 289.011 282.724 289.027 282.472C289.04 282.284 289.139 282.196 289.221 282.153C289.749 281.88 291.283 282.826 291.456 282.935C291.494 282.959 291.515 283.003 291.508 283.048C291.5 283.093 291.467 283.13 291.423 283.14C291.092 283.219 290.618 283.311 290.177 283.311ZM289.47 282.325C289.411 282.325 289.361 282.334 289.323 282.353C289.293 282.369 289.258 282.398 289.253 282.486C289.241 282.665 289.291 282.799 289.405 282.895C289.666 283.113 290.287 283.144 291.096 282.981C290.558 282.67 289.835 282.325 289.47 282.325Z" fill="#FF4773"/>
<path d="M291.396 283.143C291.378 283.143 291.359 283.138 291.343 283.129C290.85 282.861 289.898 281.818 289.998 281.287C290.016 281.191 290.088 281.025 290.357 280.991C290.526 280.971 290.693 281.018 290.837 281.136C291.39 281.588 291.504 282.962 291.508 283.02C291.512 283.061 291.492 283.101 291.458 283.123C291.439 283.136 291.418 283.143 291.396 283.143ZM290.435 281.213C290.419 281.213 290.401 281.214 290.384 281.217C290.237 281.234 290.225 281.302 290.22 281.33C290.16 281.644 290.767 282.432 291.256 282.804C291.201 282.402 291.049 281.602 290.694 281.313C290.613 281.245 290.529 281.213 290.435 281.213Z" fill="#FF4773"/>
<path d="M261.568 283.311C261.095 283.311 260.658 283.238 260.411 283.018C260.253 282.879 260.182 282.695 260.199 282.47C260.209 282.336 260.273 282.232 260.385 282.17C260.961 281.848 262.877 282.818 263.093 282.929C263.135 282.952 263.159 282.998 263.153 283.046C263.146 283.094 263.111 283.131 263.063 283.14C262.661 283.221 262.092 283.311 261.568 283.311ZM260.705 282.326C260.618 282.326 260.546 282.339 260.495 282.367C260.45 282.392 260.429 282.428 260.424 282.486C260.412 282.639 260.457 282.758 260.56 282.849C260.853 283.109 261.636 283.154 262.687 282.979C262.029 282.666 261.156 282.326 260.705 282.326Z" fill="#FF4773"/>
<path d="M263.041 283.143C263.026 283.143 263.01 283.14 262.995 283.133C262.421 282.875 261.283 281.845 261.37 281.307C261.39 281.18 261.48 281.023 261.789 280.991C262.025 280.968 262.23 281.033 262.415 281.185C263.02 281.682 263.149 282.965 263.154 283.019C263.157 283.06 263.14 283.098 263.108 283.121C263.087 283.135 263.065 283.143 263.041 283.143ZM261.88 281.213C261.858 281.213 261.835 281.214 261.812 281.217C261.609 281.237 261.596 281.317 261.592 281.344C261.539 281.667 262.313 282.476 262.899 282.829C262.837 282.454 262.668 281.686 262.271 281.36C262.152 281.262 262.023 281.213 261.88 281.213Z" fill="#FF4773"/>
<path d="M285.735 198.516L281.065 199.758L284.936 204.448C284.936 204.448 288.677 202.507 287.871 200.41L285.735 198.516Z" fill="#FFB992"/>
<path d="M277.684 203.66L281.065 207.331L284.937 204.448L281.065 199.758L277.684 203.66Z" fill="#FFB992"/>
<path d="M101.356 148.021C100.302 149.097 99.1727 150.286 98.1353 151.475C97.0809 152.668 96.0479 153.879 95.0698 155.125C94.0886 156.371 93.1648 157.648 92.2763 158.938L91.6295 159.916L91.0231 160.911C90.8148 161.241 90.6274 161.577 90.4469 161.916L89.9478 162.834C89.7806 163.167 89.6588 163.805 89.6045 164.473C89.549 165.151 89.5603 165.893 89.6064 166.646C89.703 168.157 89.9244 169.726 90.2059 171.294C90.4766 172.866 90.8154 174.445 91.1953 176.019C91.5544 177.594 91.9715 179.182 92.3835 180.731L90.0721 181.596C88.6611 178.527 87.5158 175.405 86.5668 172.136C86.1105 170.498 85.7086 168.829 85.4663 167.066C85.3495 166.182 85.2643 165.277 85.2713 164.31C85.2864 163.341 85.3602 162.316 85.814 161.119C85.9547 160.771 86.0342 160.63 86.1314 160.422L86.4166 159.83C86.604 159.432 86.7977 159.04 87.0091 158.662L87.6307 157.516L88.2888 156.399C89.1817 154.924 90.1308 153.49 91.1657 152.136C92.1911 150.772 93.2474 149.438 94.3643 148.158C95.5021 146.877 96.6139 145.655 97.9082 144.425L101.356 148.021Z" fill="#FFF2D1"/>
<path d="M101.624 140.499C98.2438 140.652 95.035 146.263 95.035 146.263L99.0263 154.416C99.0263 154.416 105.549 150.338 105.627 145.385C105.677 142.164 104.948 140.348 101.624 140.499Z" fill="#FF4773"/>
<path opacity="0.5" d="M101.624 140.499C98.2438 140.652 95.035 146.263 95.035 146.263L99.0263 154.416C99.0263 154.416 105.549 150.338 105.627 145.385C105.677 142.164 104.948 140.348 101.624 140.499Z" fill="black"/>
<path d="M91.7423 179.754L95.854 180.976L93.1179 183.747C93.1179 183.747 90.1559 182.834 89.7426 180.819L91.7423 179.754Z" fill="#FFF2D1"/>
<path d="M98.3428 184.142L97.6499 186.79L93.1179 183.747L95.854 180.977L98.3428 184.142Z" fill="#FFF2D1"/>
<path d="M192.655 156.686L92.8706 159.082L93.7738 196.707L193.559 194.311L192.655 156.686Z" fill="#FFBCE4"/>
<path opacity="0.6" d="M192.655 156.686L92.8706 159.082L93.7738 196.707L193.559 194.311L192.655 156.686Z" fill="#FFBCE4"/>
<path d="M187.646 159.806L150.443 160.699L150.78 174.726L187.982 173.833L187.646 159.806Z" fill="#FFE9EE"/>
<path opacity="0.7" d="M187.646 159.806L150.443 160.699L150.78 174.726L187.982 173.833L187.646 159.806Z" fill="white"/>
<path d="M167.707 177.266L130.505 178.159L130.842 192.187L168.044 191.294L167.707 177.266Z" fill="#FFE9EE"/>
<path opacity="0.7" d="M167.707 177.266L130.505 178.159L130.842 192.187L168.044 191.294L167.707 177.266Z" fill="white"/>
<path d="M124.906 128.063C124.843 128.449 124.997 128.801 125.25 128.851C125.504 128.9 125.762 128.627 125.825 128.241C125.889 127.855 125.735 127.503 125.481 127.453C125.227 127.404 124.97 127.678 124.906 128.063Z" fill="#263238"/>
<path d="M125.365 127.454L126.341 127.367C126.341 127.367 125.744 127.998 125.365 127.454Z" fill="#263238"/>
<path d="M125.171 128.502C125.171 128.502 125.555 130.29 126.148 131.233C125.557 131.609 124.722 131.223 124.722 131.223L125.171 128.502Z" fill="#A02724"/>
<path d="M125.853 125.591C125.816 125.591 125.778 125.582 125.744 125.563C124.831 125.073 124.078 125.443 124.046 125.459C123.933 125.517 123.795 125.472 123.736 125.358C123.678 125.244 123.723 125.107 123.835 125.048C123.875 125.027 124.829 124.548 125.962 125.157C126.074 125.217 126.117 125.357 126.056 125.469C126.015 125.547 125.936 125.591 125.853 125.591Z" fill="#263238"/>
<path d="M112.579 131.249C112.67 134.196 112.369 139.506 110.059 141.013C110.059 141.013 110.364 144.043 115.668 145.071C121.501 146.2 118.931 142.731 118.931 142.731C115.873 141.359 116.343 139.026 117.262 136.928L112.579 131.249Z" fill="#FFF2D1"/>
<path d="M128.468 148.447C128.83 149.915 129.29 151.527 129.798 153.037C130.318 154.561 130.869 156.071 131.508 157.525C132.145 158.979 132.862 160.381 133.675 161.677C134.475 162.975 135.379 164.179 136.399 165.127C136.909 165.6 137.443 166.013 137.998 166.331C138.274 166.493 138.556 166.632 138.841 166.744C139.023 166.815 139.029 166.824 139.102 166.846C139.165 166.865 139.236 166.88 139.32 166.886C139.647 166.923 140.198 166.824 140.782 166.571C141.369 166.32 141.992 165.95 142.607 165.529C145.073 163.791 147.399 161.33 149.517 158.889L151.569 160.26C151.139 161.057 150.69 161.779 150.213 162.516C149.742 163.25 149.239 163.965 148.701 164.661C147.628 166.056 146.48 167.424 145.058 168.651C144.347 169.267 143.571 169.852 142.647 170.35C141.725 170.832 140.633 171.292 139.266 171.308C138.929 171.313 138.578 171.284 138.229 171.22C137.887 171.164 137.492 171.039 137.281 170.96C136.775 170.785 136.289 170.57 135.827 170.327C134.898 169.845 134.066 169.251 133.314 168.609C130.322 165.999 128.491 162.781 126.986 159.563C126.239 157.944 125.586 156.302 125.035 154.631C124.478 152.945 123.99 151.318 123.597 149.502L128.468 148.447Z" fill="#FFF2D1"/>
<path d="M149.271 159.137L150.7 156.508L154.676 157.561C154.676 157.561 152.295 161.193 150.25 161.199L149.271 159.137Z" fill="#FFF2D1"/>
<path d="M153.939 155.562L156.963 157.561H154.675L150.7 156.508L153.939 155.562Z" fill="#FFF2D1"/>
<path d="M99.8876 282.688L104.758 283.047L106.205 271.861L101.335 271.501L99.8876 282.688Z" fill="#FFF2D1"/>
<path d="M61.5554 258.637L64.9226 262.25L74.0516 255.711L70.6851 252.097L61.5554 258.637Z" fill="#FFF2D1"/>
<path d="M66.3954 261.686L63.586 256.892C63.4838 256.718 63.2831 256.645 63.1033 256.717L59.1013 258.33C58.6861 258.497 58.5233 259.048 58.7656 259.446C59.7734 261.102 60.3407 261.852 61.5762 263.96C62.3366 265.257 63.316 267.229 64.366 269.02C65.3927 270.772 67.1911 269.899 66.9096 269.061C65.6476 265.307 66.3013 264.214 66.5594 262.549C66.6055 262.249 66.5449 261.942 66.3954 261.686Z" fill="#263238"/>
<path d="M105.063 282.354H99.5879C99.3885 282.354 99.2238 282.492 99.1904 282.686L98.4552 287.019C98.3789 287.468 98.7543 287.893 99.2143 287.885C101.124 287.852 102.047 287.74 104.454 287.74C105.935 287.74 108.995 287.894 111.041 287.894C113.041 287.894 113.248 285.871 112.4 285.688C108.602 284.866 107.128 283.733 105.869 282.653C105.643 282.458 105.354 282.354 105.063 282.354Z" fill="#263238"/>
<path d="M106.204 271.864L105.401 278.081L100.586 277.274L101.331 271.505L106.204 271.864Z" fill="#C5C4C4"/>
<path d="M70.6813 252.098L74.0497 255.712L70.2718 258.417L66.786 254.886L70.6813 252.098Z" fill="#C5C4C4"/>
<path d="M100.253 170.175C104.03 170.905 112.042 172.458 119.791 173.962C129.023 146.779 126.814 145.899 126.814 145.899C126.814 145.899 124.854 144.808 122.38 143.841C122.285 143.803 122.197 143.772 122.115 143.741C120.866 143.285 120.602 143.217 118.929 142.73C116.051 142.05 113.371 141.494 110.057 141.014C109.845 140.983 109.631 140.952 109.424 140.926C108.823 140.851 108.228 140.789 107.653 140.733C107.265 140.69 106.877 140.664 106.508 140.64C106.071 140.615 105.646 140.59 105.246 140.571C103.11 140.465 101.583 140.496 101.583 140.496C102.702 157.46 101.886 162.332 100.253 170.175Z" fill="#FF4773"/>
<path opacity="0.5" d="M100.253 170.175C104.03 170.905 112.042 172.458 119.791 173.962C129.023 146.779 126.814 145.899 126.814 145.899C126.814 145.899 124.854 144.808 122.38 143.841C122.285 143.803 122.197 143.772 122.115 143.741C120.866 143.285 120.602 143.217 118.929 142.73C116.051 142.05 113.371 141.494 110.057 141.014C109.845 140.983 109.631 140.952 109.424 140.926C108.823 140.851 108.228 140.789 107.653 140.733C107.265 140.69 106.877 140.664 106.508 140.64C106.071 140.615 105.646 140.59 105.246 140.571C103.11 140.465 101.583 140.496 101.583 140.496C102.702 157.46 101.886 162.332 100.253 170.175Z" fill="black"/>
<path d="M122.862 154.171C122.098 157.995 122.906 161.176 123.436 162.697C125.058 157.383 125.979 153.748 126.478 151.261C124.982 151.066 123.386 151.552 122.862 154.171Z" fill="#FF4773"/>
<path opacity="0.6" d="M122.862 154.171C122.098 157.995 122.906 161.176 123.436 162.697C125.058 157.383 125.979 153.748 126.478 151.261C124.982 151.066 123.386 151.552 122.862 154.171Z" fill="black"/>
<path d="M126.648 145.808C129.907 147.936 131.985 152.67 132.537 155.381L124.975 161.546C124.975 161.546 120.855 152.346 122.207 149.994C123.615 147.546 125.416 145.004 126.648 145.808Z" fill="#FF4773"/>
<path opacity="0.5" d="M126.648 145.808C129.907 147.936 131.985 152.67 132.537 155.381L124.975 161.546C124.975 161.546 120.855 152.346 122.207 149.994C123.615 147.546 125.416 145.004 126.648 145.808Z" fill="black"/>
<path d="M112.098 124.489C111.608 129.284 111.298 131.301 113.303 134.199C116.319 138.56 122.339 138.287 124.258 133.777C125.984 129.717 126.496 122.557 122.143 119.768C117.853 117.019 112.588 119.693 112.098 124.489Z" fill="#FFF2D1"/>
<path d="M112.165 114.699C109.22 116.881 111.107 117.407 109.851 119.608C108.502 121.972 107.095 119.28 104.417 121.878C102.682 123.561 105.644 125.349 103.488 128.314C101.813 130.617 99.9948 128.622 100.701 133.343C101.183 136.566 99.2111 136.165 97.8809 137.988C95.9733 140.603 97.6834 142.476 102.555 143.458C107.426 144.439 103.955 149.342 108.536 149.488C113.532 149.649 112.372 143.136 114.812 144.72C117.161 146.244 121.679 144.858 121.413 140.968C121.168 137.398 117.205 137.52 120.414 135.078C122.926 133.168 123.699 133.192 121.924 129.123C120.414 125.664 125.955 126.191 125.852 123.193C125.667 117.787 121.924 119.406 120.745 116.637C119.979 114.838 115.941 111.899 112.165 114.699Z" fill="#FF5C5C"/>
<path d="M121.416 126.987C121.407 127.863 121.789 128.794 122.283 129.469C123.025 130.484 123.901 130.216 124.117 129.285C124.311 128.446 124.16 126.907 123.212 126.2C122.277 125.504 121.425 125.985 121.416 126.987Z" fill="#FFF2D1"/>
<path d="M114.633 172.961C114.633 172.961 105.114 204.84 100.465 223.2C95.5594 242.57 72.1484 258.359 72.1484 258.359L67.1538 253.389C67.1538 253.389 82.8045 240.179 87.5567 222.102C97.2038 185.408 92.5626 177.635 100.254 170.176L114.633 172.961Z" fill="#FF003D"/>
<path d="M72.5788 259.08L66.343 252.875L68.038 250.994L75.6279 257.458L72.5788 259.08Z" fill="#FF4773"/>
<path d="M110.163 179.751C103.919 184.567 103.501 202.922 103.644 211.214C106.819 199.622 110.575 186.726 112.771 179.264C112.172 178.759 111.311 178.865 110.163 179.751Z" fill="#FF4773"/>
<path opacity="0.6" d="M110.163 179.751C103.919 184.567 103.501 202.922 103.644 211.214C106.819 199.622 110.575 186.726 112.771 179.264C112.172 178.759 111.311 178.865 110.163 179.751Z" fill="white"/>
<path d="M67.4056 264.288C67.3475 264.288 67.2882 264.279 67.2295 264.261C66.6351 264.08 66.2136 262.992 66.0154 262.359C66.0016 262.315 66.0154 262.267 66.0508 262.237C66.0867 262.207 66.1366 262.201 66.1776 262.222C66.3575 262.314 67.9363 263.138 67.9994 263.762C68.0133 263.9 67.9584 264.023 67.8397 264.118C67.6978 264.231 67.5526 264.288 67.4056 264.288ZM66.3265 262.564C66.6206 263.398 66.9765 263.943 67.2971 264.041C67.4283 264.082 67.5589 264.047 67.6952 263.938C67.7691 263.879 67.7735 263.825 67.7697 263.785C67.7362 263.456 66.9487 262.913 66.3265 262.564Z" fill="#FF4773"/>
<path d="M119.498 173.96C119.498 173.96 120.715 212.53 117.99 227.058C115.156 242.169 106.524 276.543 106.524 276.543L99.4989 275.636C99.4989 275.636 103.941 240.912 105.827 225.898C107.884 209.53 105.189 171.189 105.189 171.189L119.498 173.96Z" fill="#FF4773"/>
<path d="M108.018 276.945L98.0046 275.652L98.129 273.273L109.022 273.748L108.018 276.945Z" fill="#FF4773"/>
<path d="M67.5659 262.766C67.0213 262.766 66.3612 262.599 66.0659 262.424C66.0306 262.403 66.0098 262.365 66.0098 262.324C66.0104 262.284 66.0319 262.246 66.0672 262.225C66.1177 262.196 67.3027 261.508 67.9748 261.728C68.1584 261.787 68.2903 261.906 68.366 262.081C68.4853 262.353 68.3679 262.512 68.2871 262.584C68.1382 262.714 67.8694 262.766 67.5659 262.766ZM66.377 262.319C66.9254 262.541 67.8814 262.633 68.1338 262.41C68.1754 262.373 68.2152 262.314 68.154 262.173C68.1041 262.06 68.0221 261.986 67.9028 261.948C67.5015 261.818 66.784 262.112 66.377 262.319Z" fill="#FF4773"/>
<path d="M106.874 283.206C106.337 283.206 105.756 283.114 105.344 283.032C105.295 283.022 105.259 282.983 105.252 282.935C105.245 282.886 105.27 282.839 105.314 282.816C105.537 282.702 107.509 281.705 108.097 282.04C108.21 282.104 108.274 282.21 108.283 282.347C108.298 282.577 108.223 282.766 108.061 282.909C107.804 283.131 107.357 283.206 106.874 283.206ZM105.73 282.868C106.803 283.046 107.605 283 107.908 282.734C108.015 282.64 108.062 282.518 108.052 282.361C108.049 282.301 108.028 282.265 107.983 282.24C107.663 282.059 106.54 282.483 105.73 282.868Z" fill="#FF4773"/>
<path d="M105.366 283.033C105.342 283.033 105.318 283.026 105.299 283.012C105.265 282.987 105.247 282.947 105.252 282.906C105.261 282.816 105.512 280.706 106.671 280.832C106.986 280.864 107.077 281.024 107.098 281.152C107.186 281.702 106.007 282.759 105.413 283.024C105.398 283.031 105.383 283.033 105.366 283.033ZM106.58 281.059C105.877 281.059 105.6 282.215 105.514 282.711C106.121 282.349 106.923 281.519 106.869 281.189C106.865 281.163 106.852 281.083 106.647 281.062C106.624 281.06 106.602 281.059 106.58 281.059Z" fill="#FF4773"/>
<path d="M100.15 168.979L98.9815 170.547C98.8906 170.669 99.0288 170.837 99.2547 170.882L119.746 174.851C119.922 174.885 120.082 174.827 120.111 174.719L120.575 173.014C120.607 172.896 120.471 172.764 120.278 172.727L100.492 168.894C100.347 168.867 100.208 168.901 100.15 168.979Z" fill="#FF4773"/>
<path d="M102.444 171.694L101.914 171.591C101.809 171.571 101.737 171.501 101.755 171.436L102.376 169.225C102.395 169.161 102.496 169.124 102.602 169.144L103.132 169.247C103.237 169.267 103.308 169.337 103.291 169.402L102.669 171.613C102.651 171.678 102.549 171.714 102.444 171.694Z" fill="#FF4773"/>
<path opacity="0.8" d="M102.444 171.694L101.914 171.591C101.809 171.571 101.737 171.501 101.755 171.436L102.376 169.225C102.395 169.161 102.496 169.124 102.602 169.144L103.132 169.247C103.237 169.267 103.308 169.337 103.291 169.402L102.669 171.613C102.651 171.678 102.549 171.714 102.444 171.694Z" fill="white"/>
<path d="M115.826 174.317L115.296 174.215C115.191 174.194 115.119 174.124 115.137 174.06L115.758 171.849C115.777 171.784 115.878 171.748 115.984 171.768L116.514 171.871C116.619 171.891 116.691 171.961 116.673 172.025L116.051 174.237C116.032 174.302 115.931 174.338 115.826 174.317Z" fill="#FF4773"/>
<path opacity="0.8" d="M115.826 174.317L115.296 174.215C115.191 174.194 115.119 174.124 115.137 174.06L115.758 171.849C115.777 171.784 115.878 171.748 115.984 171.768L116.514 171.871C116.619 171.891 116.691 171.961 116.673 172.025L116.051 174.237C116.032 174.302 115.931 174.338 115.826 174.317Z" fill="white"/>
</svg>
