<svg width="316" height="221" viewBox="0 0 316 221" fill="none" xmlns="http://www.w3.org/2000/svg">
<path d="M143.956 155.056H283.144C298.983 155.056 312.34 142.215 312.978 126.376L315.992 51.4938C316.198 46.3855 312.224 42.2446 307.115 42.2446H157.746C152.638 42.2446 148.331 46.3855 148.125 51.4938L145.111 126.376C144.473 142.215 131.115 155.056 115.277 155.056H143.956Z" fill="#FF4773"/>
<path opacity="0.7" d="M143.956 155.056H283.144C298.983 155.056 312.34 142.215 312.978 126.376L315.992 51.4938C316.198 46.3855 312.224 42.2446 307.115 42.2446H157.746C152.638 42.2446 148.331 46.3855 148.125 51.4938L145.111 126.376C144.473 142.215 131.115 155.056 115.277 155.056H143.956Z" fill="white"/>
<path opacity="0.6" d="M292.607 75.2661H169.456C167.779 75.2661 166.474 73.9068 166.541 72.2298L166.864 64.2131C166.931 62.5361 168.346 61.1768 170.023 61.1768H293.175C294.852 61.1768 296.156 62.5361 296.089 64.2131L295.766 72.2298C295.698 73.9068 294.284 75.2661 292.607 75.2661Z" fill="white"/>
<path opacity="0.6" d="M292.827 90.4022H168.018C166.798 90.4022 165.849 89.4132 165.899 88.1941L166.021 85.1588C166.07 83.9397 167.098 82.9507 168.317 82.9507H293.125C294.344 82.9507 295.294 83.9397 295.245 85.1588L295.123 88.1941C295.074 89.4132 294.046 90.4022 292.827 90.4022Z" fill="white"/>
<path opacity="0.6" d="M292.371 101.72H167.563C166.342 101.72 165.394 100.731 165.443 99.5115L165.565 96.4762C165.614 95.2571 166.643 94.2681 167.862 94.2681H292.669C293.888 94.2681 294.838 95.2571 294.789 96.4762L294.667 99.5115C294.62 100.731 293.59 101.72 292.371 101.72Z" fill="white"/>
<path d="M259.657 15.2775C258.846 13.418 257.838 11.6327 256.662 9.97015L257.504 9.37402C258.721 11.0933 259.764 12.9405 260.601 14.866L259.657 15.2775Z" fill="#FF4773"/>
<path d="M262.158 28.6472L261.413 46.7959L262.445 46.8382L263.19 28.6895L262.158 28.6472Z" fill="#FF4773"/>
<path d="M255.62 126.375L259.552 28.68C260.19 12.8404 247.866 0 232.027 0H92.8386H64.1586C79.9982 0 92.3219 12.8404 91.6845 28.68L87.752 126.375C87.1146 142.215 106.999 155.055 122.839 155.055H254.466H283.146C267.306 155.055 254.982 142.215 255.62 126.375Z" fill="#FF4773"/>
<path d="M225.141 219.795H9.47291C4.32335 219.795 0.317545 215.621 0.524847 210.472L6.6016 59.4905C6.80891 54.3409 11.1509 50.167 16.3005 50.167H231.969C237.118 50.167 241.124 54.3409 240.917 59.4905L234.839 210.472C234.633 215.621 230.291 219.795 225.141 219.795Z" fill="white"/>
<path d="M225.141 220.312H9.47297C6.84198 220.312 4.40797 219.287 2.6196 217.425C0.830195 215.56 -0.0980245 213.085 0.00820533 210.451L6.08598 59.4684C6.30463 54.0548 10.887 49.6499 16.3006 49.6499H231.969C234.6 49.6499 237.033 50.6751 238.821 52.5367C240.61 54.4003 241.539 56.8766 241.432 59.5107L235.355 210.493C235.137 215.908 230.555 220.312 225.141 220.312ZM16.3006 50.6833C11.4325 50.6833 7.31227 54.6437 7.11734 59.5128L1.03956 210.495C0.944678 212.845 1.76975 215.053 3.3632 216.711C4.95562 218.369 7.12457 219.281 9.47297 219.281H225.14C230.008 219.281 234.128 215.321 234.323 210.452L240.401 59.4695C240.496 57.12 239.671 54.9119 238.076 53.2535C236.485 51.5961 234.315 50.6833 231.969 50.6833H16.3006Z" fill="#FF4773"/>
<path d="M225.892 58.4487H21.7111C18.0807 58.4487 15.0196 61.3912 14.8742 65.0216L9.93707 187.665H227.263L232.2 65.0216C232.346 61.3912 229.521 58.4487 225.892 58.4487Z" fill="#FF4773"/>
<path opacity="0.3" d="M40.7891 49.6514L35.9056 170.983C35.7674 174.412 38.4356 177.191 41.8638 177.191H197.316C200.744 177.191 203.635 174.412 203.774 170.983L208.657 49.6524L40.7891 49.6514Z" fill="black"/>
<path d="M203.347 0H64.1587C48.3191 0 34.962 12.8404 34.3246 28.68L28.5119 173.094C28.3736 176.522 31.0407 179.302 34.47 179.302H189.922C193.351 179.302 196.242 176.522 196.38 173.094L202.192 28.68C202.83 12.8404 216.187 0 232.027 0H203.347Z" fill="#FF4773"/>
<path opacity="0.7" d="M203.347 0H64.1587C48.3191 0 34.962 12.8404 34.3246 28.68L28.5119 173.094C28.3736 176.522 31.0407 179.302 34.47 179.302H189.922C193.351 179.302 196.242 176.522 196.38 173.094L202.192 28.68C202.83 12.8404 216.187 0 232.027 0H203.347Z" fill="white"/>
<path d="M235.758 188.181H1.4439C1.15925 188.181 0.928223 187.95 0.928223 187.666C0.928223 187.381 1.15925 187.15 1.4439 187.15H235.758C236.043 187.15 236.274 187.381 236.274 187.666C236.274 187.95 236.043 188.181 235.758 188.181Z" fill="#FF4773"/>
<path opacity="0.1" d="M187.092 99.6568H43.711C41.7803 99.6568 40.2786 98.0923 40.357 96.1616L42.5662 41.2707C42.6435 39.34 44.272 37.7754 46.2017 37.7754H189.583C191.514 37.7754 193.015 39.34 192.938 41.2707L190.729 96.1616C190.65 98.0923 189.022 99.6568 187.092 99.6568Z" fill="#FF4773"/>
<path opacity="0.6" d="M122.376 161.539H41.2192C39.2885 161.539 37.7869 159.974 37.8652 158.044L39.8021 109.913C39.8795 107.983 41.508 106.418 43.4377 106.418H124.594C126.525 106.418 128.027 107.983 127.948 109.913L126.011 158.044C125.934 159.974 124.306 161.539 122.376 161.539Z" fill="#FF4773"/>
<path d="M91.3937 133.979L76.1709 124.98L75.4468 142.976L91.3937 133.979Z" fill="white"/>
<path d="M184.601 161.539H136.47C134.539 161.539 133.038 159.974 133.116 158.044L135.053 109.913C135.13 107.983 136.759 106.418 138.689 106.418H186.819C188.75 106.418 190.251 107.983 190.174 109.913L188.237 158.044C188.159 159.974 186.531 161.539 184.601 161.539Z" fill="white"/>
<path opacity="0.3" d="M139.476 153.789L141.07 114.167C141.105 113.305 141.832 112.605 142.694 112.605H182.316C183.178 112.605 183.85 113.305 183.815 114.167L182.22 153.789C182.185 154.651 181.458 155.35 180.596 155.35H140.974C140.112 155.35 139.442 154.651 139.476 153.789Z" fill="#FF4773"/>
<path d="M169.15 136.325L166.978 139.795L159.903 126.815L142.049 155.35H179.521L169.15 136.325Z" fill="#FF4773"/>
<path d="M179.241 121.817C179.13 124.548 176.828 126.762 174.097 126.762C171.366 126.762 169.242 124.548 169.352 121.817C169.462 119.086 171.765 116.873 174.495 116.873C177.225 116.873 179.351 119.086 179.241 121.817Z" fill="white"/>
</svg>
