<svg width="21" height="20" viewBox="0 0 21 20" fill="none" xmlns="http://www.w3.org/2000/svg">
<path fill-rule="evenodd" clip-rule="evenodd" d="M17.4833 17.7902L17.484 17.7885L17.5014 17.745L20.5002 2.62592V2.57682C20.5002 2.20012 20.361 1.87126 20.0581 1.674C19.793 1.50133 19.4882 1.48904 19.2745 1.50526C19.0485 1.52241 18.8354 1.57883 18.6879 1.62579C18.612 1.64995 18.5484 1.67323 18.503 1.69083C18.4802 1.69967 18.4617 1.70717 18.4483 1.71276L18.4351 1.71831L1.71526 8.27725L1.71066 8.2789C1.70163 8.28219 1.68969 8.28664 1.67526 8.29225C1.64651 8.30345 1.60737 8.31946 1.56139 8.3403C1.47111 8.38122 1.34637 8.44436 1.21987 8.53099C1.00502 8.67812 0.595904 9.02645 0.664986 9.57867C0.722207 10.0361 1.03751 10.3266 1.25008 10.477C1.36403 10.5576 1.47304 10.6157 1.55287 10.6538C1.59332 10.673 1.62767 10.6878 1.65326 10.6982C1.66609 10.7034 1.67682 10.7076 1.68512 10.7107L1.69574 10.7147L1.70253 10.7172L4.62777 11.702C4.6179 11.8856 4.6361 12.0727 4.68478 12.2573L6.15006 17.8157C6.3238 18.4748 6.92002 18.9339 7.60159 18.9334C8.21252 18.9329 8.75435 18.5633 8.98454 18.0119L11.2722 15.5658L15.2012 18.5781L15.2571 18.6025C15.614 18.7582 15.9475 18.8076 16.2525 18.7659C16.557 18.7243 16.7989 18.5966 16.9807 18.4512C17.1595 18.3081 17.2821 18.1466 17.3592 18.025C17.3984 17.9633 17.4276 17.909 17.4478 17.8681C17.458 17.8476 17.466 17.8302 17.472 17.8167L17.4796 17.7993L17.4822 17.7928L17.4833 17.7902ZM6.13518 11.875C6.10187 11.7486 6.15416 11.6153 6.26444 11.5452L16.1865 5.24432C16.1865 5.24432 16.77 4.89002 16.7492 5.24432C16.7492 5.24432 16.8533 5.30689 16.5406 5.59861C16.244 5.87569 9.46894 12.4167 8.7834 13.0786C8.74383 13.1168 8.72021 13.1607 8.70627 13.2139L7.60046 17.4334L6.13518 11.875Z" fill="black"/>
</svg>
