<svg width="22" height="14" viewBox="0 0 22 14" fill="none" xmlns="http://www.w3.org/2000/svg">
<path d="M20.5827 13.1896H18.3012C17.438 13.1896 17.1784 12.4906 15.6303 10.9425C14.2792 9.63985 13.7084 9.47722 13.366 9.47722C12.8937 9.47722 12.7639 9.60701 12.7639 10.2591V12.3107C12.7639 12.8659 12.5841 13.1911 11.1345 13.1911C9.72768 13.0966 8.36344 12.6692 7.15415 11.9441C5.94487 11.219 4.92514 10.217 4.17897 9.02061C2.40751 6.81572 1.17492 4.22793 0.579224 1.46302C0.579224 1.12056 0.709015 0.810935 1.3611 0.810935H3.64104C4.22745 0.810935 4.43855 1.07208 4.66842 1.67412C5.77556 4.93297 7.66456 7.76648 8.4308 7.76648C8.72478 7.76648 8.85301 7.63669 8.85301 6.9033V3.54749C8.75606 2.01658 7.94291 1.88679 7.94291 1.33323C7.95336 1.18722 8.02027 1.05102 8.12945 0.953516C8.23863 0.856011 8.3815 0.804869 8.52775 0.810935H12.1119C12.6013 0.810935 12.7639 1.05488 12.7639 1.64129V6.1699C12.7639 6.65935 12.975 6.82198 13.122 6.82198C13.416 6.82198 13.6428 6.65935 14.1807 6.12142C15.3361 4.7124 16.2801 3.1426 16.9829 1.46145C17.0548 1.25952 17.1907 1.08663 17.37 0.969174C17.5493 0.851719 17.7621 0.796146 17.9759 0.810935H20.2574C20.9408 0.810935 21.0862 1.1534 20.9408 1.64129C20.1112 3.49969 19.0847 5.26378 17.879 6.9033C17.6335 7.27859 17.5349 7.47406 17.879 7.91348C18.1057 8.25594 18.9048 8.92366 19.4427 9.55854C20.2244 10.3383 20.8736 11.2405 21.3646 12.2294C21.56 12.8643 21.2332 13.1896 20.5827 13.1896Z" fill="black"/>
</svg>
