<svg width="50" height="50" viewBox="0 0 50 50" fill="none" xmlns="http://www.w3.org/2000/svg">
<path fill-rule="evenodd" clip-rule="evenodd" d="M41.7397 50.0002H8.26034C3.71714 50.0002 0 46.283 0 41.7398V8.26034C0 3.71714 3.71714 0 8.26034 0H41.7397C46.2829 0 50 3.71714 50 8.26034V41.7397C50 46.2829 46.2829 50.0002 41.7397 50.0002Z" fill="url(#paint0_linear_1_292)"/>
<path fill-rule="evenodd" clip-rule="evenodd" d="M42.0465 24.5619C42.0465 33.7324 34.5536 41.1684 25.3107 41.1684C22.3754 41.1684 19.6176 40.4188 17.2202 39.102L7.95367 42.0468L10.9742 33.1373C9.44996 30.6343 8.57351 27.6989 8.57351 24.562C8.57351 15.3896 16.0663 7.9541 25.3107 7.9541C34.5536 7.95393 42.0465 15.3894 42.0465 24.5619ZM25.3107 10.599C17.5499 10.599 11.2389 16.8617 11.2389 24.5619C11.2389 27.6155 12.2337 30.4457 13.9189 32.7483L12.1618 37.9328L17.5682 36.2149C19.7894 37.6722 22.451 38.5231 25.3105 38.5231C33.0681 38.5231 39.3808 32.26 39.3808 24.5617C39.381 16.8617 33.0683 10.599 25.3107 10.599ZM33.762 28.3868C33.6583 28.2168 33.3845 28.115 32.9759 27.9115C32.5653 27.7084 30.5473 26.7226 30.1717 26.5876C29.7961 26.4522 29.5207 26.384 29.2488 26.7908C28.975 27.1981 28.1886 28.1151 27.9486 28.387C27.71 28.6592 27.4712 28.6925 27.0608 28.4888C26.6498 28.2857 25.3273 27.8542 23.7609 26.4694C22.5422 25.3888 21.7187 24.0574 21.4782 23.6501C21.2401 23.2433 21.4545 23.0232 21.6577 22.8201C21.8428 22.6369 22.0685 22.3448 22.2737 22.108C22.4793 21.8694 22.5475 21.6989 22.6843 21.4272C22.8211 21.1553 22.753 20.9186 22.6493 20.715C22.5475 20.5118 21.7264 18.5085 21.3841 17.6926C21.0442 16.879 20.7017 16.9095 20.4612 16.9095C20.2226 16.9095 19.7796 16.9805 19.7796 16.9805C19.7796 16.9805 18.9572 17.0823 18.5818 17.4896C18.2062 17.8964 17.1465 18.8822 17.1465 20.8836C17.1465 22.8866 18.6154 24.8233 18.8204 25.0931C19.0259 25.3653 21.6577 29.6099 25.8289 31.2397C30.0001 32.869 30.0001 32.3254 30.7524 32.2569C31.5034 32.1905 33.1792 31.2729 33.5215 30.3221C33.8636 29.3707 33.8636 28.5555 33.762 28.3868Z" fill="white"/>
<defs>
<linearGradient id="paint0_linear_1_292" x1="25.0001" y1="8.57077e-05" x2="25.0001" y2="50.0001" gradientUnits="userSpaceOnUse">
<stop stop-color="#4AC14B"/>
<stop offset="1" stop-color="#06853A"/>
</linearGradient>
</defs>
</svg>
