<svg width="227" height="27" viewBox="0 0 227 27" fill="none" xmlns="http://www.w3.org/2000/svg">
<path d="M26.3398 26.9747C25.6995 27.0391 25.1071 26.5613 24.9968 25.8581C24.8775 25.1218 25.3314 24.4163 26.0099 24.2868C64.1677 16.991 102.897 11.25 141.815 7.12277C123.89 8.50479 106.068 10.135 88.4757 11.7353C59.8361 14.3521 30.2194 17.0535 1.83281 23.0735C1.1492 23.2171 0.500149 22.7382 0.368411 22.0031C0.236673 21.2681 0.677502 20.557 1.35489 20.414C29.8765 14.3601 59.5616 11.6517 88.2702 9.03484C133.221 4.93313 179.701 0.691036 225.558 0.73632C226.235 0.736215 226.793 1.32632 226.805 2.05976C226.818 2.79321 226.281 3.40508 225.613 3.43828C158.805 6.54229 91.7925 14.456 26.4443 26.9506C26.407 26.9543 26.3759 26.9575 26.3386 26.9612L26.3398 26.9747Z" fill="black"/>
</svg>
